<svg width="111" height="38" viewBox="0 0 111 38" fill="none" xmlns="http://www.w3.org/2000/svg">
<path d="M0.825317 9.8501C0.825317 7.05445 0.825317 5.65662 1.28204 4.554C1.891 3.08383 3.05905 1.91578 4.52922 1.30682C5.63184 0.850098 7.02967 0.850098 9.82532 0.850098H102C104.796 0.850098 106.193 0.850098 107.296 1.30682C108.766 1.91578 109.934 3.08383 110.543 4.554C111 5.65662 111 7.05445 111 9.8501V28.575C111 31.3706 111 32.7684 110.543 33.8711C109.934 35.3412 108.766 36.5093 107.296 37.1182C106.193 37.575 104.796 37.575 102 37.575H9.82532C7.02967 37.575 5.63184 37.575 4.52922 37.1182C3.05905 36.5093 1.891 35.3412 1.28204 33.8711C0.825317 32.7684 0.825317 31.3706 0.825317 28.575V9.8501Z" fill="#0C0D10"/>
<path d="M75.676 18.4789V20.5824H74.3576V21.9618H75.676V26.6488C75.676 28.2492 76.4 28.8894 78.2215 28.8894C78.5416 28.8894 78.8464 28.8513 79.1131 28.8055V27.4414C78.8845 27.4642 78.7397 27.4795 78.4882 27.4795C77.6727 27.4795 77.3146 27.0984 77.3146 26.2296V21.9618H79.1131V20.5824H77.3146V18.4789H75.676Z" fill="white"/>
<path d="M83.7532 29.0037C86.1767 29.0037 87.6628 27.3804 87.6628 24.6901C87.6628 22.0151 86.1691 20.3842 83.7532 20.3842C81.3297 20.3842 79.8359 22.0151 79.8359 24.6901C79.8359 27.3804 81.322 29.0037 83.7532 29.0037ZM83.7532 27.5481C82.328 27.5481 81.5278 26.504 81.5278 24.6901C81.5278 22.8916 82.328 21.8398 83.7532 21.8398C85.1707 21.8398 85.9786 22.8916 85.9786 24.6901C85.9786 26.4963 85.1707 27.5481 83.7532 27.5481Z" fill="white"/>
<path d="M88.9343 28.8437H90.5729V23.9433C90.5729 22.7772 91.4493 21.9923 92.6915 21.9923C92.9811 21.9923 93.4689 22.0456 93.6061 22.0913V20.4757C93.4308 20.4299 93.1183 20.4071 92.8745 20.4071C91.7923 20.4071 90.8701 21.0015 90.6338 21.817H90.5119V20.5442H88.9343V28.8437Z" fill="white"/>
<path d="M97.6745 21.7789C98.8863 21.7789 99.6789 22.6248 99.717 23.928H95.5254C95.6168 22.6324 96.4628 21.7789 97.6745 21.7789ZM99.7094 26.603C99.4045 27.2508 98.7263 27.609 97.7355 27.609C96.4247 27.609 95.5787 26.6869 95.5254 25.2312V25.1398H101.386V24.5682C101.386 21.9618 99.9914 20.3842 97.6822 20.3842C95.3425 20.3842 93.8564 22.0685 93.8564 24.7206C93.8564 27.3728 95.312 29.0037 97.6898 29.0037C99.5874 29.0037 100.914 28.0892 101.287 26.603H99.7094Z" fill="white"/>
<path d="M64.9307 25.7788C65.0571 27.8168 66.7554 29.1201 69.2831 29.1201C71.9846 29.1201 73.675 27.7536 73.675 25.5734C73.675 23.8593 72.7113 22.9114 70.3732 22.3664L69.1172 22.0583C67.6322 21.7108 67.0319 21.2447 67.0319 20.4311C67.0319 19.4043 67.9639 18.7328 69.3621 18.7328C70.6891 18.7328 71.6054 19.3885 71.7713 20.439H73.4933C73.3906 18.5196 71.7002 17.1688 69.3858 17.1688C66.8976 17.1688 65.2388 18.5196 65.2388 20.5496C65.2388 22.2242 66.1788 23.2195 68.2404 23.7014L69.7096 24.0568C71.2184 24.4123 71.8819 24.9336 71.8819 25.8025C71.8819 26.8136 70.8392 27.5482 69.4174 27.5482C67.8929 27.5482 66.8344 26.861 66.6843 25.7788H64.9307Z" fill="white"/>
<path d="M47.9571 20.4071C46.8292 20.4071 45.8537 20.971 45.3507 21.916H45.2287V20.5442H43.6511V31.6025H45.2897V27.5862H45.4192C45.8537 28.4626 46.791 28.9808 47.9723 28.9808C50.0681 28.9808 51.4018 27.327 51.4018 24.6901C51.4018 22.0532 50.0681 20.4071 47.9571 20.4071ZM47.4922 27.51C46.1204 27.51 45.2592 26.4278 45.2592 24.6978C45.2592 22.9601 46.1204 21.8779 47.4998 21.8779C48.8869 21.8779 49.7176 22.9373 49.7176 24.6901C49.7176 26.4506 48.8869 27.51 47.4922 27.51Z" fill="white"/>
<path d="M57.1354 20.4071C56.0074 20.4071 55.0319 20.971 54.5289 21.916H54.407V20.5442H52.8294V31.6025H54.468V27.5862H54.5975C55.0319 28.4626 55.9693 28.9808 57.1506 28.9808C59.2464 28.9808 60.5801 27.327 60.5801 24.6901C60.5801 22.0532 59.2464 20.4071 57.1354 20.4071ZM56.6705 27.51C55.2987 27.51 54.4375 26.4278 54.4375 24.6978C54.4375 22.9601 55.2987 21.8779 56.6781 21.8779C58.0651 21.8779 58.8958 22.9373 58.8958 24.6901C58.8958 26.4506 58.0651 27.51 56.6705 27.51Z" fill="white"/>
<path d="M40.7113 28.8437H42.5913L38.4759 17.4453H36.5722L32.4568 28.8437H34.2736L35.3242 25.8183H39.6686L40.7113 28.8437ZM37.4332 19.5148H37.5675L39.2184 24.3333H35.7744L37.4332 19.5148Z" fill="white"/>
<path d="M33.5574 8.84782V14.3465H35.5427C37.1812 14.3465 38.13 13.3367 38.13 11.58C38.13 9.85 37.1736 8.84782 35.5427 8.84782H33.5574ZM34.4109 9.62518H35.4474C36.5868 9.62518 37.2612 10.3492 37.2612 11.5914C37.2612 12.8527 36.5982 13.5691 35.4474 13.5691H34.4109V9.62518Z" fill="white"/>
<path d="M41.036 14.4265C42.2477 14.4265 42.9908 13.6148 42.9908 12.2697C42.9908 10.9322 42.2439 10.1167 41.036 10.1167C39.8242 10.1167 39.0774 10.9322 39.0774 12.2697C39.0774 13.6148 39.8204 14.4265 41.036 14.4265ZM41.036 13.6987C40.3234 13.6987 39.9233 13.1766 39.9233 12.2697C39.9233 11.3704 40.3234 10.8446 41.036 10.8446C41.7447 10.8446 42.1487 11.3704 42.1487 12.2697C42.1487 13.1728 41.7447 13.6987 41.036 13.6987Z" fill="white"/>
<path d="M49.3186 10.1968H48.4994L47.7601 13.3633H47.6953L46.8418 10.1968H46.0568L45.2032 13.3633H45.1422L44.3992 10.1968H43.5685L44.7117 14.3465H45.5538L46.4074 11.2904H46.4721L47.3295 14.3465H48.1793L49.3186 10.1968Z" fill="white"/>
<path d="M50.2621 14.3465H51.0814V11.9191C51.0814 11.2713 51.4663 10.8674 52.0721 10.8674C52.678 10.8674 52.9676 11.1989 52.9676 11.8658V14.3465H53.7869V11.66C53.7869 10.6731 53.2763 10.1167 52.3503 10.1167C51.7254 10.1167 51.3138 10.3949 51.1119 10.856H51.0509V10.1968H50.2621V14.3465Z" fill="white"/>
<path d="M55.0771 14.3465H55.8964V8.57727H55.0771V14.3465Z" fill="white"/>
<path d="M58.9776 14.4265C60.1894 14.4265 60.9325 13.6148 60.9325 12.2697C60.9325 10.9322 60.1856 10.1167 58.9776 10.1167C57.7659 10.1167 57.019 10.9322 57.019 12.2697C57.019 13.6148 57.7621 14.4265 58.9776 14.4265ZM58.9776 13.6987C58.2651 13.6987 57.865 13.1766 57.865 12.2697C57.865 11.3704 58.2651 10.8446 58.9776 10.8446C59.6864 10.8446 60.0903 11.3704 60.0903 12.2697C60.0903 13.1728 59.6864 13.6987 58.9776 13.6987Z" fill="white"/>
<path d="M63.3735 13.7253C62.9277 13.7253 62.6038 13.5081 62.6038 13.1347C62.6038 12.7689 62.8629 12.5746 63.4345 12.5364L64.4481 12.4717V12.8184C64.4481 13.3329 63.9908 13.7253 63.3735 13.7253ZM63.1639 14.4151C63.7088 14.4151 64.1623 14.1788 64.41 13.7634H64.4748V14.3465H65.2635V11.5114C65.2635 10.635 64.6767 10.1167 63.6364 10.1167C62.6952 10.1167 62.0246 10.574 61.9407 11.2866H62.7333C62.8248 10.9932 63.1411 10.8255 63.5983 10.8255C64.1585 10.8255 64.4481 11.0732 64.4481 11.5114V11.8696L63.324 11.9344C62.337 11.9953 61.7807 12.4259 61.7807 13.1728C61.7807 13.9311 62.3637 14.4151 63.1639 14.4151Z" fill="white"/>
<path d="M68.0437 14.4151C68.6153 14.4151 69.0993 14.1445 69.3469 13.691H69.4117V14.3465H70.1967V8.57727H69.3774V10.856H69.3165C69.0916 10.3987 68.6115 10.1282 68.0437 10.1282C66.9958 10.1282 66.3214 10.9589 66.3214 12.2697C66.3214 13.5844 66.9882 14.4151 68.0437 14.4151ZM68.2762 10.8636C68.9621 10.8636 69.3927 11.4085 69.3927 12.2735C69.3927 13.1423 68.9659 13.6796 68.2762 13.6796C67.5826 13.6796 67.1673 13.1499 67.1673 12.2697C67.1673 11.3971 67.5865 10.8636 68.2762 10.8636Z" fill="white"/>
<path d="M75.5094 14.4265C76.7211 14.4265 77.4642 13.6148 77.4642 12.2697C77.4642 10.9322 76.7173 10.1167 75.5094 10.1167C74.2976 10.1167 73.5508 10.9322 73.5508 12.2697C73.5508 13.6148 74.2938 14.4265 75.5094 14.4265ZM75.5094 13.6987C74.7968 13.6987 74.3967 13.1766 74.3967 12.2697C74.3967 11.3704 74.7968 10.8446 75.5094 10.8446C76.2181 10.8446 76.6221 11.3704 76.6221 12.2697C76.6221 13.1728 76.2181 13.6987 75.5094 13.6987Z" fill="white"/>
<path d="M78.5487 14.3465H79.368V11.9191C79.368 11.2713 79.7528 10.8674 80.3587 10.8674C80.9646 10.8674 81.2542 11.1989 81.2542 11.8658V14.3465H82.0735V11.66C82.0735 10.6731 81.5628 10.1167 80.6369 10.1167C80.0119 10.1167 79.6004 10.3949 79.3984 10.856H79.3375V10.1968H78.5487V14.3465Z" fill="white"/>
<path d="M85.8467 9.1641V10.2158H85.1874V10.9055H85.8467V13.249C85.8467 14.0492 86.2087 14.3693 87.1194 14.3693C87.2794 14.3693 87.4319 14.3503 87.5652 14.3274V13.6453C87.4509 13.6568 87.3785 13.6644 87.2528 13.6644C86.845 13.6644 86.6659 13.4738 86.6659 13.0394V10.9055H87.5652V10.2158H86.6659V9.1641H85.8467Z" fill="white"/>
<path d="M88.665 14.3465H89.4842V11.9229C89.4842 11.2942 89.8577 10.8712 90.5283 10.8712C91.1075 10.8712 91.4162 11.2066 91.4162 11.8696V14.3465H92.2355V11.6676C92.2355 10.6807 91.6906 10.1205 90.8065 10.1205C90.1816 10.1205 89.7434 10.3987 89.5414 10.8636H89.4766V8.57727H88.665V14.3465Z" fill="white"/>
<path d="M95.1909 10.8141C95.7968 10.8141 96.1931 11.237 96.2122 11.8886H94.1164C94.1621 11.2409 94.5851 10.8141 95.1909 10.8141ZM96.2084 13.2262C96.0559 13.5501 95.7168 13.7292 95.2214 13.7292C94.566 13.7292 94.143 13.2681 94.1164 12.5403V12.4945H97.0467V12.2087C97.0467 10.9055 96.3493 10.1167 95.1947 10.1167C94.0249 10.1167 93.2818 10.9589 93.2818 12.2849C93.2818 13.611 94.0097 14.4265 95.1986 14.4265C96.1474 14.4265 96.8104 13.9692 96.9971 13.2262H96.2084Z" fill="white"/>
<path d="M23.5662 19.4887C23.5861 17.9454 24.4149 16.485 25.7298 15.6766C24.9003 14.492 23.5109 13.7409 22.0654 13.6956C20.5237 13.5338 19.029 14.6182 18.2434 14.6182C17.4425 14.6182 16.2329 13.7117 14.9303 13.7385C13.2325 13.7934 11.6497 14.7587 10.8237 16.243C9.04802 19.3173 10.3725 23.8354 12.0734 26.3204C12.9244 27.5372 13.919 28.8965 15.2204 28.8483C16.4939 28.7954 16.9695 28.0362 18.5067 28.0362C20.0297 28.0362 20.4759 28.8483 21.8037 28.8176C23.1702 28.7954 24.0312 27.5954 24.8523 26.367C25.4638 25.5 25.9343 24.5417 26.2464 23.5277C24.6405 22.8485 23.5681 21.2324 23.5662 19.4887Z" fill="white"/>
<path d="M21.0582 12.0614C21.8033 11.1669 22.1704 10.0173 22.0815 8.85657C20.9431 8.97613 19.8917 9.52017 19.1365 10.3803C18.3981 11.2207 18.0138 12.3501 18.0865 13.4665C19.2252 13.4782 20.3446 12.9489 21.0582 12.0614Z" fill="white"/>
</svg>
