<svg width="25" height="23" viewBox="0 0 25 23" fill="none" xmlns="http://www.w3.org/2000/svg">
<path d="M24.3112 9.84329C24.3112 9.70891 24.2379 9.57452 24.2013 9.44014C24.1447 9.20306 24.0712 8.97035 23.9814 8.74379C23.9203 8.59719 23.8348 8.45059 23.7615 8.29177C23.6882 8.13295 23.5782 7.92527 23.4683 7.75424C23.3583 7.5832 23.2117 7.49769 23.2117 7.39995C23.2117 7.30222 22.9674 7.09454 22.833 6.94794C22.6986 6.80133 22.5765 6.7036 22.4421 6.58143L21.9901 6.17828L21.5503 5.88508C21.3776 5.77943 21.198 5.68555 21.0127 5.6041L20.5363 5.3842C20.3367 5.31029 20.1327 5.24909 19.9254 5.20095C19.7612 5.15265 19.5939 5.11591 19.4245 5.091H19.2046C18.7341 3.62409 17.8133 2.34273 16.5731 1.4289C15.3328 0.515068 13.8362 0.0152192 12.2958 0.000341992C10.7553 -0.0145352 9.24929 0.456315 7.99165 1.34602C6.734 2.23573 5.78864 3.49907 5.28983 4.95661H5.06993C4.9006 4.98152 4.73323 5.01826 4.56904 5.06656C4.36177 5.11471 4.15775 5.17591 3.95821 5.24981L3.48176 5.46972C3.29646 5.55117 3.11687 5.64504 2.94422 5.7507L2.50442 6.17828L2.0524 6.557C1.91802 6.67917 1.78364 6.78912 1.66147 6.9235C1.5393 7.05788 1.40492 7.22892 1.28275 7.37552C1.16059 7.52212 1.06285 7.6565 0.965119 7.81532C0.867385 7.97414 0.769652 8.1696 0.671918 8.35285C0.574185 8.53611 0.513101 8.65827 0.452018 8.80487C0.362154 9.03143 0.288665 9.26415 0.232117 9.50122C0.232117 9.63561 0.1466 9.76999 0.122167 9.90438C0.046126 10.2867 0.00523331 10.6752 0 11.065C0.00572707 11.4379 0.0425041 11.8098 0.10995 12.1767C0.10995 12.2988 0.171034 12.4088 0.195467 12.531C0.255851 12.771 0.32926 13.0075 0.415368 13.2395L0.561968 13.5938C0.669509 13.8294 0.791923 14.0579 0.928469 14.278L1.0995 14.5467C1.11708 14.581 1.13751 14.6137 1.16059 14.6445L1.22167 14.73C1.79064 15.4886 2.52843 16.1043 3.37661 16.5284C4.22479 16.9525 5.16006 17.1733 6.10835 17.1733C6.11108 16.5263 6.37029 15.9069 6.82913 15.4508C7.28524 14.9919 7.90472 14.7327 8.55169 14.73C8.98144 14.7259 9.40404 14.84 9.77336 15.0598V11.065C9.77336 10.4169 10.0308 9.79548 10.489 9.33726C10.9472 8.87905 11.5687 8.62162 12.2167 8.62162C12.8647 8.62162 13.4862 8.87905 13.9444 9.33726C14.4026 9.79548 14.66 10.4169 14.66 11.065V15.182C15.0312 14.9667 15.4526 14.8529 15.8817 14.8521C16.5435 14.8583 17.176 15.1262 17.6409 15.5974C18.0522 16.0225 18.2953 16.5825 18.325 17.1733C19.2733 17.1733 20.2086 16.9525 21.0568 16.5284C21.905 16.1043 22.6427 15.4886 23.2117 14.73L23.2728 14.6689C23.2959 14.6381 23.3163 14.6054 23.3339 14.5712L23.5049 14.3024C23.6415 14.0823 23.7639 13.8538 23.8714 13.6182L24.018 13.264C24.1041 13.0319 24.1775 12.7954 24.2379 12.5554C24.2379 12.4332 24.299 12.3233 24.3234 12.2011C24.3923 11.8262 24.429 11.4461 24.4334 11.065C24.432 10.6548 24.3911 10.2456 24.3112 9.84329Z" fill="white"/>
<path d="M15.0389 16.4158L13.4385 17.9551V11.0649C13.4385 10.7409 13.3098 10.4302 13.0807 10.2011C12.8516 9.97197 12.5409 9.84326 12.2169 9.84326C11.8929 9.84326 11.5821 9.97197 11.353 10.2011C11.1239 10.4302 10.9952 10.7409 10.9952 11.0649V17.8941L9.41925 16.3059C9.30534 16.192 9.17012 16.1016 9.02129 16.04C8.87246 15.9783 8.71295 15.9466 8.55186 15.9466C8.39078 15.9466 8.23126 15.9783 8.08244 16.04C7.93361 16.1016 7.79838 16.192 7.68448 16.3059C7.57057 16.4198 7.48022 16.555 7.41857 16.7039C7.35692 16.8527 7.3252 17.0122 7.3252 17.1733C7.3252 17.3344 7.35692 17.4939 7.41857 17.6427C7.48022 17.7915 7.57057 17.9268 7.68448 18.0407L11.3495 21.7057C11.4636 21.8189 11.599 21.9085 11.7479 21.9693C11.8967 22.0301 12.0561 22.0609 12.2169 22.06C12.5314 22.0587 12.8334 21.9362 13.0598 21.7179L16.7248 18.175C16.8545 18.0681 16.9606 17.9355 17.0367 17.7856C17.1128 17.6358 17.1571 17.4718 17.1669 17.304C17.1767 17.1363 17.1518 16.9683 17.0937 16.8106C17.0356 16.6529 16.9456 16.5088 16.8293 16.3875C16.713 16.2661 16.573 16.1701 16.4179 16.1054C16.2628 16.0406 16.096 16.0086 15.9279 16.0112C15.7599 16.0139 15.5942 16.0512 15.4412 16.1208C15.2883 16.1904 15.1513 16.2909 15.0389 16.4158Z" fill="white"/>
<path d="M24.3112 9.84329C24.3112 9.70891 24.2379 9.57452 24.2013 9.44014C24.1447 9.20306 24.0712 8.97035 23.9814 8.74379C23.9203 8.59719 23.8348 8.45059 23.7615 8.29177C23.6882 8.13295 23.5782 7.92527 23.4683 7.75424C23.3583 7.5832 23.2117 7.49769 23.2117 7.39995C23.2117 7.30222 22.9674 7.09454 22.833 6.94794C22.6986 6.80133 22.5765 6.7036 22.4421 6.58143L21.9901 6.17828L21.5503 5.88508C21.3776 5.77943 21.198 5.68555 21.0127 5.6041L20.5363 5.3842C20.3367 5.31029 20.1327 5.24909 19.9254 5.20095C19.7612 5.15265 19.5939 5.11591 19.4245 5.091H19.2046C18.7341 3.62409 17.8133 2.34273 16.5731 1.4289C15.3328 0.515068 13.8362 0.0152192 12.2958 0.000341992C10.7553 -0.0145352 9.24929 0.456315 7.99165 1.34602C6.734 2.23573 5.78864 3.49907 5.28983 4.95661H5.06993C4.9006 4.98152 4.73323 5.01826 4.56904 5.06656C4.36177 5.11471 4.15775 5.17591 3.95821 5.24981L3.48176 5.46972C3.29646 5.55117 3.11687 5.64504 2.94422 5.7507L2.50442 6.17828L2.0524 6.557C1.91802 6.67917 1.78364 6.78912 1.66147 6.9235C1.5393 7.05788 1.40492 7.22892 1.28275 7.37552C1.16059 7.52212 1.06285 7.6565 0.965119 7.81532C0.867385 7.97414 0.769652 8.1696 0.671918 8.35285C0.574185 8.53611 0.513101 8.65827 0.452018 8.80487C0.362154 9.03143 0.288665 9.26415 0.232117 9.50122C0.232117 9.63561 0.1466 9.76999 0.122167 9.90438C0.046126 10.2867 0.00523331 10.6752 0 11.065C0.00572707 11.4379 0.0425041 11.8098 0.10995 12.1767C0.10995 12.2988 0.171034 12.4088 0.195467 12.531C0.255851 12.771 0.32926 13.0075 0.415368 13.2395L0.561968 13.5938C0.669509 13.8294 0.791923 14.0579 0.928469 14.278L1.0995 14.5467C1.11708 14.581 1.13751 14.6137 1.16059 14.6445L1.22167 14.73C1.79064 15.4886 2.52843 16.1043 3.37661 16.5284C4.22479 16.9525 5.16006 17.1733 6.10835 17.1733C6.11108 16.5263 6.37029 15.9069 6.82913 15.4508C7.28524 14.9919 7.90472 14.7327 8.55169 14.73C8.98144 14.7259 9.40404 14.84 9.77336 15.0598V11.065C9.77336 10.4169 10.0308 9.79548 10.489 9.33726C10.9472 8.87905 11.5687 8.62162 12.2167 8.62162C12.8647 8.62162 13.4862 8.87905 13.9444 9.33726C14.4026 9.79548 14.66 10.4169 14.66 11.065V15.182C15.0312 14.9667 15.4526 14.8529 15.8817 14.8521C16.5435 14.8583 17.176 15.1262 17.6409 15.5974C18.0522 16.0225 18.2953 16.5825 18.325 17.1733C19.2733 17.1733 20.2086 16.9525 21.0568 16.5284C21.905 16.1043 22.6427 15.4886 23.2117 14.73L23.2728 14.6689C23.2959 14.6381 23.3163 14.6054 23.3339 14.5712L23.5049 14.3024C23.6415 14.0823 23.7639 13.8538 23.8714 13.6182L24.018 13.264C24.1041 13.0319 24.1775 12.7954 24.2379 12.5554C24.2379 12.4332 24.299 12.3233 24.3234 12.2011C24.3923 11.8262 24.429 11.4461 24.4334 11.065C24.432 10.6548 24.3911 10.2456 24.3112 9.84329Z" fill="white"/>
<path d="M15.0389 16.4158L13.4385 17.9551V11.0649C13.4385 10.7409 13.3098 10.4302 13.0807 10.2011C12.8516 9.97197 12.5409 9.84326 12.2169 9.84326C11.8929 9.84326 11.5821 9.97197 11.353 10.2011C11.1239 10.4302 10.9952 10.7409 10.9952 11.0649V17.8941L9.41925 16.3059C9.30534 16.192 9.17012 16.1016 9.02129 16.04C8.87246 15.9783 8.71295 15.9466 8.55186 15.9466C8.39078 15.9466 8.23126 15.9783 8.08244 16.04C7.93361 16.1016 7.79838 16.192 7.68448 16.3059C7.57057 16.4198 7.48022 16.555 7.41857 16.7039C7.35692 16.8527 7.3252 17.0122 7.3252 17.1733C7.3252 17.3344 7.35692 17.4939 7.41857 17.6427C7.48022 17.7915 7.57057 17.9268 7.68448 18.0407L11.3495 21.7057C11.4636 21.8189 11.599 21.9085 11.7479 21.9693C11.8967 22.0301 12.0561 22.0609 12.2169 22.06C12.5314 22.0587 12.8334 21.9362 13.0598 21.7179L16.7248 18.175C16.8545 18.0681 16.9606 17.9355 17.0367 17.7856C17.1128 17.6358 17.1571 17.4718 17.1669 17.304C17.1767 17.1363 17.1518 16.9683 17.0937 16.8106C17.0356 16.6529 16.9456 16.5088 16.8293 16.3875C16.713 16.2661 16.573 16.1701 16.4179 16.1054C16.2628 16.0406 16.096 16.0086 15.9279 16.0112C15.7599 16.0139 15.5942 16.0512 15.4412 16.1208C15.2883 16.1904 15.1513 16.2909 15.0389 16.4158Z" fill="white"/>
</svg>
