<svg width="124" height="38" viewBox="0 0 124 38" fill="none" xmlns="http://www.w3.org/2000/svg">
<path d="M0 9.12596C0 4.55533 3.70523 0.850098 8.27586 0.850098H115.482C120.053 0.850098 123.758 4.55533 123.758 9.12596V29.2991C123.758 33.8697 120.053 37.575 115.482 37.575H8.27586C3.70523 37.575 0 33.8697 0 29.2991V9.12596Z" fill="black"/>
<path d="M62.4619 20.8203C60.3057 20.8203 58.5484 22.4628 58.5484 24.7251C58.5484 26.9736 60.3057 28.6299 62.4619 28.6299C64.6189 28.6299 66.3763 26.9736 66.3763 24.7251C66.3754 22.4628 64.618 20.8203 62.4619 20.8203ZM62.4619 27.0929C61.2802 27.0929 60.2617 26.117 60.2617 24.726C60.2617 23.3204 61.2811 22.3591 62.4619 22.3591C63.6435 22.3591 64.662 23.3204 64.662 24.726C64.662 26.116 63.6435 27.0929 62.4619 27.0929ZM53.9235 20.8203C51.7674 20.8203 50.01 22.4628 50.01 24.7251C50.01 26.9736 51.7674 28.6299 53.9235 28.6299C56.0806 28.6299 57.8379 26.9736 57.8379 24.7251C57.8379 22.4628 56.0806 20.8203 53.9235 20.8203ZM53.9235 27.0929C52.7418 27.0929 51.7234 26.117 51.7234 24.726C51.7234 23.3204 52.7428 22.3591 53.9235 22.3591C55.1052 22.3591 56.1236 23.3204 56.1236 24.726C56.1246 26.116 55.1052 27.0929 53.9235 27.0929ZM43.768 22.0194V23.6757H47.7264C47.6082 24.6076 47.2983 25.2879 46.8253 25.7607C46.2496 26.3373 45.3485 26.9736 43.768 26.9736C41.3314 26.9736 39.4264 25.006 39.4264 22.5657C39.4264 20.1253 41.3314 18.1578 43.768 18.1578C45.0826 18.1578 46.0424 18.6756 46.7511 19.3412L47.918 18.1724C46.928 17.2259 45.6143 16.5015 43.768 16.5015C40.4302 16.5015 37.6241 19.2228 37.6241 22.5657C37.6241 25.9085 40.4302 28.6299 43.768 28.6299C45.5694 28.6299 46.9289 28.0377 47.9914 26.9286C49.0841 25.8342 49.4242 24.2954 49.4242 23.0532C49.4242 22.6694 49.3949 22.3141 49.3353 22.0185H43.768V22.0194ZM85.303 23.3057C84.9784 22.4334 83.9884 20.8203 81.9652 20.8203C79.9566 20.8203 78.2873 22.4032 78.2873 24.7251C78.2873 26.9139 79.942 28.6299 82.1568 28.6299C83.9435 28.6299 84.9775 27.5355 85.4066 26.8992L84.0773 26.0114C83.6345 26.6623 83.0286 27.0911 82.1568 27.0911C81.2859 27.0911 80.6653 26.6917 80.2665 25.9076L85.4799 23.7482L85.303 23.3057ZM79.986 24.6076C79.942 23.0982 81.153 22.3297 82.0248 22.3297C82.7041 22.3297 83.2798 22.6703 83.4723 23.1578L79.986 24.6076ZM75.7479 28.3939H77.4604V16.9165H75.7479V28.3939ZM72.9409 21.6934H72.8823C72.4982 21.2344 71.7593 20.8203 70.8297 20.8203C68.8799 20.8203 67.0932 22.5363 67.0932 24.7407C67.0932 26.9295 68.8799 28.6308 70.8297 28.6308C71.7602 28.6308 72.4982 28.2167 72.8823 27.7439H72.9409V28.3058C72.9409 29.7995 72.1434 30.5983 70.8591 30.5983C69.8103 30.5983 69.1604 29.8445 68.8945 29.2083L67.403 29.8298C67.8311 30.8646 68.9679 32.1371 70.8591 32.1371C72.8676 32.1371 74.5663 30.9536 74.5663 28.0689V21.0581H72.9419V21.6934H72.9409ZM70.9773 27.0929C69.7957 27.0929 68.8065 26.1013 68.8065 24.7407C68.8065 23.3644 69.7957 22.3591 70.9773 22.3591C72.1434 22.3591 73.0592 23.3644 73.0592 24.7407C73.0592 26.1013 72.1434 27.0929 70.9773 27.0929ZM93.328 16.9165H89.2293V28.3939H90.939V24.0457H93.3271C95.2228 24.0457 97.0875 22.6712 97.0875 20.4815C97.0875 18.2918 95.2238 16.9165 93.328 16.9165ZM93.372 22.4481H90.939V18.514H93.372C94.6508 18.514 95.3768 19.5744 95.3768 20.4815C95.3768 21.3703 94.6508 22.4481 93.372 22.4481ZM103.944 20.8001C102.705 20.8001 101.423 21.3464 100.892 22.5574L102.41 23.1918C102.734 22.5574 103.34 22.3499 103.973 22.3499C104.858 22.3499 105.757 22.8815 105.772 23.8262V23.9447C105.462 23.7675 104.798 23.5021 103.988 23.5021C102.351 23.5021 100.685 24.4028 100.685 26.0857C100.685 27.6218 102.027 28.6106 103.53 28.6106C104.68 28.6106 105.314 28.0937 105.712 27.4877H105.771V28.3737H107.423V23.9731C107.424 21.9367 105.904 20.8001 103.944 20.8001ZM103.736 27.0902C103.177 27.0902 102.395 26.8092 102.395 26.1151C102.395 25.2291 103.369 24.8894 104.209 24.8894C104.96 24.8894 105.315 25.0519 105.772 25.2732C105.639 26.3373 104.725 27.0902 103.736 27.0902ZM113.438 21.0508L111.477 26.027H111.419L109.383 21.0508H107.541L110.593 28.0055L108.853 31.8745H110.637L115.34 21.0508H113.438ZM98.0317 28.3939H99.7414V16.9165H98.0317V28.3939Z" fill="white"/>
<path d="M43.4693 10.2543C43.4693 11.0237 43.2419 11.6361 42.7863 12.0933C42.2693 12.6368 41.5946 12.9086 40.7659 12.9086C39.972 12.9086 39.2964 12.6332 38.7417 12.0823C38.1862 11.5305 37.9084 10.8474 37.9084 10.0321C37.9084 9.21593 38.1862 8.53285 38.7417 7.98197C39.2964 7.43018 39.972 7.15475 40.7659 7.15475C41.1601 7.15475 41.5368 7.23187 41.8944 7.3852C42.2528 7.53944 42.5397 7.74418 42.7542 8.00034L42.2711 8.48511C41.9072 8.049 41.4057 7.8314 40.765 7.8314C40.1856 7.8314 39.6851 8.03523 39.2624 8.44287C38.8398 8.85052 38.629 9.38027 38.629 10.0312C38.629 10.6822 38.8398 11.2119 39.2624 11.6196C39.6851 12.0272 40.1856 12.231 40.765 12.231C41.3792 12.231 41.8916 12.0263 42.3014 11.6159C42.5672 11.3487 42.7212 10.9769 42.7625 10.5004H40.765V9.83842H43.4299C43.4574 9.98256 43.4693 10.1212 43.4693 10.2543Z" fill="white"/>
<path d="M47.6955 7.95356H45.191V9.69983H47.4498V10.3618H45.191V12.1081H47.6955V12.7856H44.4842V7.27691H47.6955V7.95356Z" fill="white"/>
<path d="M50.6756 12.7856H49.9689V7.95356H48.4324V7.27691H52.2121V7.95356H50.6756V12.7856Z" fill="white"/>
<path d="M54.9466 12.7856V7.27691H55.6534V12.7856H54.9466Z" fill="white"/>
<path d="M58.7878 12.7856H58.0811V7.95356H56.5446V7.27691H60.3243V7.95356H58.7878V12.7856Z" fill="white"/>
<path d="M67.4791 12.0741C66.9382 12.6305 66.2663 12.9087 65.4623 12.9087C64.6583 12.9087 63.9864 12.6305 63.4464 12.0741C62.9056 11.5177 62.636 10.8365 62.636 10.0313C62.636 9.22607 62.9056 8.54483 63.4464 7.98844C63.9864 7.43206 64.6583 7.15295 65.4623 7.15295C66.2617 7.15295 66.9327 7.43298 67.4754 7.99212C68.0181 8.55125 68.2895 9.23066 68.2895 10.0313C68.2895 10.8365 68.0191 11.5177 67.4791 12.0741ZM63.968 11.6123C64.3751 12.0254 64.8729 12.2311 65.4623 12.2311C66.0518 12.2311 66.5505 12.0245 66.9566 11.6123C67.3636 11.1991 67.568 10.6721 67.568 10.0313C67.568 9.39042 67.3636 8.86341 66.9566 8.45026C66.5505 8.03711 66.0518 7.83145 65.4623 7.83145C64.8729 7.83145 64.3751 8.03802 63.968 8.45026C63.5619 8.86341 63.3575 9.39042 63.3575 10.0313C63.3575 10.6721 63.5619 11.1991 63.968 11.6123Z" fill="white"/>
<path d="M69.2814 12.7856V7.27691H70.1413L72.8145 11.5618H72.8447L72.8145 10.5004V7.27691H73.5212V12.7856H72.7833L69.9864 8.29235H69.9561L69.9864 9.3537V12.7856H69.2814Z" fill="white"/>
<path d="M43.4693 10.2543C43.4693 11.0237 43.2419 11.6361 42.7863 12.0933C42.2693 12.6368 41.5946 12.9086 40.7659 12.9086C39.972 12.9086 39.2964 12.6332 38.7417 12.0823C38.1862 11.5305 37.9084 10.8474 37.9084 10.0321C37.9084 9.21593 38.1862 8.53285 38.7417 7.98197C39.2964 7.43018 39.972 7.15475 40.7659 7.15475C41.1601 7.15475 41.5368 7.23187 41.8944 7.3852C42.2528 7.53944 42.5397 7.74418 42.7542 8.00034L42.2711 8.48511C41.9072 8.049 41.4057 7.8314 40.765 7.8314C40.1856 7.8314 39.6851 8.03523 39.2624 8.44287C38.8398 8.85052 38.629 9.38027 38.629 10.0312C38.629 10.6822 38.8398 11.2119 39.2624 11.6196C39.6851 12.0272 40.1856 12.231 40.765 12.231C41.3792 12.231 41.8916 12.0263 42.3014 11.6159C42.5672 11.3487 42.7212 10.9769 42.7625 10.5004H40.765V9.83842H43.4299C43.4574 9.98256 43.4693 10.1212 43.4693 10.2543Z" stroke="white" stroke-width="0.145" stroke-miterlimit="10"/>
<path d="M47.6955 7.95356H45.191V9.69983H47.4498V10.3618H45.191V12.1081H47.6955V12.7856H44.4842V7.27691H47.6955V7.95356Z" stroke="white" stroke-width="0.145" stroke-miterlimit="10"/>
<path d="M50.6756 12.7856H49.9689V7.95356H48.4324V7.27691H52.2121V7.95356H50.6756V12.7856Z" stroke="white" stroke-width="0.145" stroke-miterlimit="10"/>
<path d="M54.9466 12.7856V7.27691H55.6534V12.7856H54.9466Z" stroke="white" stroke-width="0.145" stroke-miterlimit="10"/>
<path d="M58.7878 12.7856H58.0811V7.95356H56.5446V7.27691H60.3243V7.95356H58.7878V12.7856Z" stroke="white" stroke-width="0.145" stroke-miterlimit="10"/>
<path d="M67.4791 12.0741C66.9382 12.6305 66.2663 12.9087 65.4623 12.9087C64.6583 12.9087 63.9864 12.6305 63.4464 12.0741C62.9056 11.5177 62.636 10.8365 62.636 10.0313C62.636 9.22607 62.9056 8.54483 63.4464 7.98844C63.9864 7.43206 64.6583 7.15295 65.4623 7.15295C66.2617 7.15295 66.9327 7.43298 67.4754 7.99212C68.0181 8.55125 68.2895 9.23066 68.2895 10.0313C68.2895 10.8365 68.0191 11.5177 67.4791 12.0741ZM63.968 11.6123C64.3751 12.0254 64.8729 12.2311 65.4623 12.2311C66.0518 12.2311 66.5505 12.0245 66.9566 11.6123C67.3636 11.1991 67.568 10.6721 67.568 10.0313C67.568 9.39042 67.3636 8.86341 66.9566 8.45026C66.5505 8.03711 66.0518 7.83145 65.4623 7.83145C64.8729 7.83145 64.3751 8.03802 63.968 8.45026C63.5619 8.86341 63.3575 9.39042 63.3575 10.0313C63.3575 10.6721 63.5619 11.1991 63.968 11.6123Z" stroke="white" stroke-width="0.145" stroke-miterlimit="10"/>
<path d="M69.2814 12.7856V7.27691H70.1413L72.8145 11.5618H72.8447L72.8145 10.5004V7.27691H73.5212V12.7856H72.7833L69.9864 8.29235H69.9561L69.9864 9.3537V12.7856H69.2814Z" stroke="white" stroke-width="0.145" stroke-miterlimit="10"/>
<g filter="url(#filter0_ii_114_5143)">
<path d="M9.5669 7.77064C9.30013 8.05342 9.14246 8.49228 9.14246 9.0606V29.3658C9.14246 29.935 9.30013 30.373 9.5669 30.6557L9.63474 30.7218L20.992 19.3472V19.2132V19.0791L9.63474 7.70361L9.5669 7.77064Z" fill="url(#paint0_linear_114_5143)"/>
<path d="M24.7772 23.14L20.9921 19.3473V19.2132V19.0792L24.7781 15.2874L24.8634 15.336L29.3489 17.8884C30.6296 18.6174 30.6296 19.81 29.3489 20.5399L24.8634 23.0923L24.7772 23.14Z" fill="url(#paint1_linear_114_5143)"/>
<g filter="url(#filter1_i_114_5143)">
<path d="M24.8634 23.0914L20.9911 19.2133L9.5669 30.6558C9.98859 31.1039 10.6862 31.1589 11.4718 30.7127L24.8634 23.0914Z" fill="url(#paint2_linear_114_5143)"/>
</g>
<path d="M24.8634 15.3351L11.4718 7.71469C10.6862 7.26756 9.98859 7.32357 9.5669 7.77161L20.992 19.2142L24.8634 15.3351Z" fill="url(#paint3_linear_114_5143)"/>
</g>
<defs>
<filter id="filter0_ii_114_5143" x="9.14246" y="7.40613" width="21.167" height="23.6147" filterUnits="userSpaceOnUse" color-interpolation-filters="sRGB">
<feFlood flood-opacity="0" result="BackgroundImageFix"/>
<feBlend mode="normal" in="SourceGraphic" in2="BackgroundImageFix" result="shape"/>
<feColorMatrix in="SourceAlpha" type="matrix" values="0 0 0 0 0 0 0 0 0 0 0 0 0 0 0 0 0 0 127 0" result="hardAlpha"/>
<feOffset dy="-0.10875"/>
<feComposite in2="hardAlpha" operator="arithmetic" k2="-1" k3="1"/>
<feColorMatrix type="matrix" values="0 0 0 0 0 0 0 0 0 0 0 0 0 0 0 0 0 0 0.12 0"/>
<feBlend mode="normal" in2="shape" result="effect1_innerShadow_114_5143"/>
<feColorMatrix in="SourceAlpha" type="matrix" values="0 0 0 0 0 0 0 0 0 0 0 0 0 0 0 0 0 0 127 0" result="hardAlpha"/>
<feOffset dy="0.10875"/>
<feComposite in2="hardAlpha" operator="arithmetic" k2="-1" k3="1"/>
<feColorMatrix type="matrix" values="0 0 0 0 1 0 0 0 0 1 0 0 0 0 1 0 0 0 0.25 0"/>
<feBlend mode="normal" in2="effect1_innerShadow_114_5143" result="effect2_innerShadow_114_5143"/>
</filter>
<filter id="filter1_i_114_5143" x="9.56689" y="19.2133" width="15.2965" height="11.8076" filterUnits="userSpaceOnUse" color-interpolation-filters="sRGB">
<feFlood flood-opacity="0" result="BackgroundImageFix"/>
<feBlend mode="normal" in="SourceGraphic" in2="BackgroundImageFix" result="shape"/>
<feColorMatrix in="SourceAlpha" type="matrix" values="0 0 0 0 0 0 0 0 0 0 0 0 0 0 0 0 0 0 127 0" result="hardAlpha"/>
<feOffset dy="-0.10875"/>
<feComposite in2="hardAlpha" operator="arithmetic" k2="-1" k3="1"/>
<feColorMatrix type="matrix" values="0 0 0 0 0 0 0 0 0 0 0 0 0 0 0 0 0 0 0.08 0"/>
<feBlend mode="normal" in2="shape" result="effect1_innerShadow_114_5143"/>
</filter>
<linearGradient id="paint0_linear_114_5143" x1="19.9853" y1="8.84576" x2="4.57739" y2="24.2302" gradientUnits="userSpaceOnUse">
<stop stop-color="#00A0FF"/>
<stop offset="0.0066" stop-color="#00A1FF"/>
<stop offset="0.2601" stop-color="#00BEFF"/>
<stop offset="0.5122" stop-color="#00D2FF"/>
<stop offset="0.7604" stop-color="#00DFFF"/>
<stop offset="1" stop-color="#00E3FF"/>
</linearGradient>
<linearGradient id="paint1_linear_114_5143" x1="31.016" y1="19.2132" x2="8.83502" y2="19.2132" gradientUnits="userSpaceOnUse">
<stop stop-color="#FFE000"/>
<stop offset="0.4087" stop-color="#FFBD00"/>
<stop offset="0.7754" stop-color="#FFA500"/>
<stop offset="1" stop-color="#FF9C00"/>
</linearGradient>
<linearGradient id="paint2_linear_114_5143" x1="22.7605" y1="21.3193" x2="1.86543" y2="42.1826" gradientUnits="userSpaceOnUse">
<stop stop-color="#FF3A44"/>
<stop offset="1" stop-color="#C31162"/>
</linearGradient>
<linearGradient id="paint3_linear_114_5143" x1="6.68966" y1="1.01222" x2="16.0199" y2="10.3282" gradientUnits="userSpaceOnUse">
<stop stop-color="#32A071"/>
<stop offset="0.0685" stop-color="#2DA771"/>
<stop offset="0.4762" stop-color="#15CF74"/>
<stop offset="0.8009" stop-color="#06E775"/>
<stop offset="1" stop-color="#00F076"/>
</linearGradient>
</defs>
</svg>
