<svg width="300" height="89" viewBox="0 0 300 89" fill="none" xmlns="http://www.w3.org/2000/svg">
<path d="M104.34 36.26C102.607 36.26 101.347 35.86 100.56 35.06C99.7867 34.2467 99.4 33.0733 99.4 31.54V25.04H102.4V31.7C102.4 32.4067 102.553 32.9467 102.86 33.32C103.18 33.68 103.673 33.86 104.34 33.86C105.007 33.86 105.493 33.68 105.8 33.32C106.12 32.9467 106.28 32.4067 106.28 31.7V25.04H109.28V31.54C109.28 33.0733 108.887 34.2467 108.1 35.06C107.327 35.86 106.073 36.26 104.34 36.26ZM115.836 36.26C115.049 36.26 114.256 36.1733 113.456 36C112.669 35.8267 111.969 35.58 111.356 35.26L112.196 32.88C112.462 33.0267 112.782 33.18 113.156 33.34C113.529 33.5 113.936 33.6333 114.376 33.74C114.816 33.8467 115.262 33.9 115.716 33.9C116.249 33.9 116.649 33.8267 116.916 33.68C117.196 33.52 117.336 33.28 117.336 32.96C117.336 32.72 117.242 32.5267 117.056 32.38C116.882 32.22 116.622 32.0733 116.276 31.94C115.929 31.7933 115.516 31.64 115.036 31.48C114.329 31.2267 113.722 30.9533 113.216 30.66C112.709 30.3667 112.316 30.0067 112.036 29.58C111.769 29.1533 111.636 28.62 111.636 27.98C111.636 27.2467 111.822 26.6467 112.196 26.18C112.569 25.7133 113.096 25.3667 113.776 25.14C114.456 24.9 115.249 24.78 116.156 24.78C116.902 24.78 117.576 24.84 118.176 24.96C118.776 25.08 119.242 25.2333 119.576 25.42V27.78C119.349 27.6733 119.049 27.5667 118.676 27.46C118.316 27.3533 117.922 27.2667 117.496 27.2C117.082 27.12 116.682 27.08 116.296 27.08C115.749 27.08 115.336 27.1533 115.056 27.3C114.776 27.4467 114.636 27.6533 114.636 27.92C114.636 28.1333 114.729 28.3133 114.916 28.46C115.116 28.6067 115.402 28.7467 115.776 28.88C116.149 29 116.596 29.1533 117.116 29.34C117.809 29.58 118.396 29.8467 118.876 30.14C119.356 30.4333 119.716 30.7933 119.956 31.22C120.209 31.6467 120.336 32.1733 120.336 32.8C120.336 33.4 120.196 33.9667 119.916 34.5C119.649 35.02 119.189 35.4467 118.536 35.78C117.882 36.1 116.982 36.26 115.836 36.26ZM110.522 23.52V22.26L112.542 21.42H119.682V23.52H110.522ZM127.547 36.26C126.334 36.26 125.347 36.08 124.587 35.72C123.841 35.3467 123.294 34.8067 122.947 34.1C122.601 33.3933 122.427 32.5267 122.427 31.5V25.04H125.407V31.66C125.407 32.3933 125.574 32.9467 125.907 33.32C126.254 33.6933 126.814 33.88 127.587 33.88C128.334 33.88 128.867 33.7067 129.187 33.36C129.507 33 129.667 32.4333 129.667 31.66V25.04H132.647V31.5C132.647 32.5267 132.474 33.3933 132.127 34.1C131.781 34.8067 131.234 35.3467 130.487 35.72C129.741 36.08 128.761 36.26 127.547 36.26ZM128.827 31.64C128.201 31.64 127.701 31.54 127.327 31.34C126.967 31.1267 126.714 30.86 126.567 30.54C126.421 30.2067 126.347 29.8733 126.347 29.54C126.347 29.3 126.381 29.0467 126.447 28.78C126.514 28.5133 126.614 28.3 126.747 28.14L128.527 28.5C128.487 28.58 128.454 28.6733 128.427 28.78C128.414 28.8733 128.407 28.9667 128.407 29.06C128.407 29.2333 128.461 29.3867 128.567 29.52C128.674 29.64 128.821 29.7 129.007 29.7H133.807V31.64H128.827ZM129.75 23.52C129.123 23.52 128.63 23.4267 128.27 23.24C127.91 23.0533 127.657 22.82 127.51 22.54C127.35 22.2467 127.27 21.94 127.27 21.62C127.27 21.3933 127.303 21.1533 127.37 20.9C127.437 20.6333 127.537 20.3867 127.67 20.16L129.85 20.44C129.823 20.5333 129.803 20.6333 129.79 20.74C129.763 20.8333 129.75 20.92 129.75 21C129.75 21.1867 129.81 21.3333 129.93 21.44C130.037 21.5333 130.223 21.58 130.49 21.58H134.79V23.52H129.75ZM136.063 36V25.04H138.263L138.663 26.76H138.823C139.05 26.2133 139.443 25.76 140.003 25.4C140.563 25.0267 141.29 24.84 142.183 24.84C143.037 24.84 143.743 24.9933 144.303 25.3C144.863 25.5933 145.283 26.0467 145.563 26.66C145.857 27.26 146.003 28.02 146.003 28.94V36H143.003V29.54C143.003 28.7933 142.85 28.26 142.543 27.94C142.25 27.6067 141.817 27.44 141.243 27.44C140.777 27.44 140.377 27.5667 140.043 27.82C139.723 28.0733 139.477 28.4467 139.303 28.94C139.143 29.42 139.063 30.0267 139.063 30.76V36H136.063ZM153.661 36V25.04H155.861L156.261 26.76H156.421C156.648 26.2133 157.041 25.76 157.601 25.4C158.161 25.0267 158.888 24.84 159.781 24.84C160.634 24.84 161.341 24.9933 161.901 25.3C162.461 25.5933 162.881 26.0467 163.161 26.66C163.454 27.26 163.601 28.02 163.601 28.94V36H160.601V29.54C160.601 28.7933 160.448 28.26 160.141 27.94C159.848 27.6067 159.414 27.44 158.841 27.44C158.374 27.44 157.974 27.5667 157.641 27.82C157.321 28.0733 157.074 28.4467 156.901 28.94C156.741 29.42 156.661 30.0267 156.661 30.76V36H153.661ZM153.959 23.52V22.26L155.979 21.42H163.119V23.52H153.959ZM160.559 22.3V20.04H163.119V22.3H160.559ZM171.052 36.26C169.532 36.26 168.379 35.9267 167.592 35.26C166.819 34.58 166.432 33.6067 166.432 32.34V31.56C166.432 31.0133 166.492 30.56 166.612 30.2C166.746 29.84 166.919 29.5133 167.132 29.22C167.346 28.9267 167.519 28.6667 167.652 28.44C167.799 28.2 167.872 27.9533 167.872 27.7C167.872 27.46 167.812 27.2933 167.692 27.2C167.586 27.0933 167.439 27.04 167.252 27.04C167.119 27.04 166.979 27.06 166.832 27.1C166.699 27.14 166.546 27.2 166.372 27.28L165.892 25.4C166.266 25.2 166.666 25.0667 167.092 25C167.532 24.92 167.919 24.88 168.252 24.88C168.839 24.88 169.306 24.9733 169.652 25.16C170.012 25.3467 170.272 25.6133 170.432 25.96C170.592 26.3067 170.672 26.72 170.672 27.2C170.672 27.6133 170.612 27.98 170.492 28.3C170.372 28.6067 170.219 28.9267 170.032 29.26C169.859 29.5667 169.706 29.8533 169.572 30.12C169.452 30.3867 169.392 30.7733 169.392 31.28V32.04C169.392 32.48 169.452 32.84 169.572 33.12C169.706 33.4 169.899 33.6067 170.152 33.74C170.406 33.86 170.706 33.92 171.052 33.92C171.626 33.92 172.032 33.7667 172.272 33.46C172.526 33.14 172.652 32.7133 172.652 32.18V30.24C172.652 29.84 172.559 29.5267 172.372 29.3C172.199 29.06 171.899 28.94 171.472 28.94H171.372V27.36H171.492C171.906 27.36 172.212 27.2467 172.412 27.02C172.612 26.7933 172.739 26.5067 172.792 26.16C172.859 25.8 172.892 25.4267 172.892 25.04H175.872C175.872 25.8533 175.766 26.5267 175.552 27.06C175.339 27.5933 174.966 27.9533 174.432 28.14V28.22C174.752 28.3133 174.999 28.46 175.172 28.66C175.346 28.8467 175.466 29.0733 175.532 29.34C175.599 29.6067 175.632 29.9 175.632 30.22V32.26C175.632 33.58 175.246 34.58 174.472 35.26C173.699 35.9267 172.559 36.26 171.052 36.26ZM183.025 36.26C181.505 36.26 180.352 35.9267 179.565 35.26C178.792 34.58 178.405 33.6067 178.405 32.34V31.56C178.405 31.0133 178.465 30.56 178.585 30.2C178.718 29.84 178.892 29.5133 179.105 29.22C179.318 28.9267 179.492 28.6667 179.625 28.44C179.772 28.2 179.845 27.9533 179.845 27.7C179.845 27.46 179.785 27.2933 179.665 27.2C179.558 27.0933 179.412 27.04 179.225 27.04C179.092 27.04 178.952 27.06 178.805 27.1C178.672 27.14 178.518 27.2 178.345 27.28L177.865 25.4C178.238 25.2 178.638 25.0667 179.065 25C179.505 24.92 179.892 24.88 180.225 24.88C180.812 24.88 181.278 24.9733 181.625 25.16C181.985 25.3467 182.245 25.6133 182.405 25.96C182.565 26.3067 182.645 26.72 182.645 27.2C182.645 27.6133 182.585 27.98 182.465 28.3C182.345 28.6067 182.192 28.9267 182.005 29.26C181.832 29.5667 181.678 29.8533 181.545 30.12C181.425 30.3867 181.365 30.7733 181.365 31.28V32.04C181.365 32.48 181.425 32.84 181.545 33.12C181.678 33.4 181.872 33.6067 182.125 33.74C182.378 33.86 182.678 33.92 183.025 33.92C183.598 33.92 184.005 33.7667 184.245 33.46C184.498 33.14 184.625 32.7133 184.625 32.18V30.24C184.625 29.84 184.532 29.5267 184.345 29.3C184.172 29.06 183.872 28.94 183.445 28.94H183.345V27.36H183.465C183.878 27.36 184.185 27.2467 184.385 27.02C184.585 26.7933 184.712 26.5067 184.765 26.16C184.832 25.8 184.865 25.4267 184.865 25.04H187.845C187.845 25.8533 187.738 26.5267 187.525 27.06C187.312 27.5933 186.938 27.9533 186.405 28.14V28.22C186.725 28.3133 186.972 28.46 187.145 28.66C187.318 28.8467 187.438 29.0733 187.505 29.34C187.572 29.6067 187.605 29.9 187.605 30.22V32.26C187.605 33.58 187.218 34.58 186.445 35.26C185.672 35.9267 184.532 36.26 183.025 36.26ZM178.705 22.52V21.26L180.725 20.42H187.865V22.52H178.705ZM185.285 16.98V13.26H187.885V16.98H185.285ZM192.218 36L189.038 25.04H192.058L194.478 33.58H194.598C194.811 33.58 195.011 33.52 195.198 33.4C195.384 33.28 195.544 33.12 195.678 32.92C195.944 32.5467 196.144 32.1067 196.278 31.6C196.411 31.08 196.478 30.5667 196.478 30.06C196.478 29.1667 196.304 28.48 195.958 28C195.624 27.52 195.158 27.28 194.558 27.28C194.438 27.28 194.324 27.2867 194.217 27.3C194.124 27.3133 194.038 27.34 193.958 27.38L193.398 25.08C193.704 24.9867 193.991 24.9333 194.258 24.92C194.538 24.8933 194.764 24.88 194.938 24.88C195.644 24.88 196.258 24.9733 196.778 25.16C197.298 25.3467 197.744 25.6267 198.118 26C198.584 26.4533 198.931 27.02 199.158 27.7C199.398 28.38 199.518 29.1467 199.518 30C199.518 31.08 199.344 32.0267 198.998 32.84C198.664 33.64 198.258 34.2733 197.778 34.74C197.378 35.1267 196.871 35.4333 196.258 35.66C195.658 35.8867 194.831 36 193.778 36H192.218ZM201.903 36V25.04H204.103L204.503 26.76H204.663C204.89 26.2133 205.283 25.76 205.843 25.4C206.403 25.0267 207.13 24.84 208.023 24.84C208.877 24.84 209.583 24.9933 210.143 25.3C210.703 25.5933 211.123 26.0467 211.403 26.66C211.697 27.26 211.843 28.02 211.843 28.94V36H208.843V29.54C208.843 28.7933 208.69 28.26 208.383 27.94C208.09 27.6067 207.657 27.44 207.083 27.44C206.617 27.44 206.217 27.5667 205.883 27.82C205.563 28.0733 205.317 28.4467 205.143 28.94C204.983 29.42 204.903 30.0267 204.903 30.76V36H201.903ZM218.994 36.26C217.368 36.26 216.161 35.8667 215.374 35.08C214.588 34.28 214.194 33.1 214.194 31.54C214.194 31.2733 214.201 30.9533 214.214 30.58C214.241 30.1933 214.274 29.8533 214.314 29.56H219.114V31.46H217.134V31.74C217.134 32.2733 217.201 32.7133 217.334 33.06C217.468 33.3933 217.668 33.64 217.934 33.8C218.214 33.96 218.561 34.04 218.974 34.04C219.428 34.04 219.808 33.94 220.114 33.74C220.434 33.54 220.674 33.2 220.834 32.72C221.008 32.24 221.094 31.58 221.094 30.74C221.094 29.9533 221.001 29.3 220.814 28.78C220.641 28.2467 220.341 27.8467 219.914 27.58C219.501 27.3133 218.928 27.18 218.194 27.18C217.794 27.18 217.381 27.2267 216.954 27.32C216.528 27.4 216.121 27.5067 215.734 27.64C215.361 27.7733 215.034 27.92 214.754 28.08V25.58C215.048 25.42 215.408 25.28 215.834 25.16C216.274 25.04 216.748 24.9467 217.254 24.88C217.761 24.8133 218.261 24.78 218.754 24.78C220.048 24.78 221.088 25.02 221.874 25.5C222.674 25.9667 223.254 26.6333 223.614 27.5C223.988 28.3667 224.174 29.3933 224.174 30.58C224.174 31.7933 223.994 32.8267 223.634 33.68C223.288 34.52 222.734 35.16 221.974 35.6C221.214 36.04 220.221 36.26 218.994 36.26ZM231.13 36.26C229.93 36.26 228.97 36.12 228.25 35.84C227.53 35.5467 227.003 35.14 226.67 34.62C226.35 34.1 226.19 33.5 226.19 32.82C226.19 32.2333 226.277 31.76 226.45 31.4C226.637 31.04 226.87 30.7667 227.15 30.58C227.443 30.38 227.737 30.2467 228.03 30.18V30.06C227.723 29.9533 227.43 29.8067 227.15 29.62C226.87 29.4333 226.637 29.18 226.45 28.86C226.277 28.54 226.19 28.14 226.19 27.66C226.19 27.1667 226.303 26.7067 226.53 26.28C226.77 25.8533 227.15 25.5133 227.67 25.26C228.19 24.9933 228.877 24.86 229.73 24.86C230.143 24.86 230.543 24.8933 230.93 24.96C231.317 25.0133 231.617 25.0933 231.83 25.2L231.37 27.22C231.263 27.1933 231.117 27.1667 230.93 27.14C230.757 27.1 230.577 27.08 230.39 27.08C229.977 27.08 229.67 27.18 229.47 27.38C229.27 27.5667 229.17 27.8133 229.17 28.12C229.17 28.44 229.257 28.6867 229.43 28.86C229.603 29.0333 229.823 29.1533 230.09 29.22C230.37 29.2867 230.657 29.32 230.95 29.32H231.37V31.18H230.95C230.377 31.18 229.943 31.28 229.65 31.48C229.37 31.68 229.23 32.0067 229.23 32.46C229.23 32.7 229.283 32.94 229.39 33.18C229.51 33.4067 229.71 33.6 229.99 33.76C230.27 33.9067 230.67 33.98 231.19 33.98C231.683 33.98 232.07 33.9067 232.35 33.76C232.63 33.6133 232.83 33.42 232.95 33.18C233.07 32.9267 233.13 32.6467 233.13 32.34V25.04H236.13V32.24C236.13 33.6133 235.723 34.6267 234.91 35.28C234.11 35.9333 232.85 36.26 231.13 36.26ZM245.171 36V28.88C245.171 28.24 244.998 27.78 244.651 27.5C244.305 27.22 243.771 27.08 243.051 27.08C242.358 27.08 241.678 27.1867 241.011 27.4C240.358 27.6 239.791 27.84 239.311 28.12V25.64C239.698 25.4533 240.245 25.2667 240.951 25.08C241.658 24.88 242.471 24.78 243.391 24.78C244.098 24.78 244.731 24.8667 245.291 25.04C245.865 25.2133 246.278 25.5533 246.531 26.06C247.091 26.2333 247.491 26.5733 247.731 27.08C247.985 27.5733 248.111 28.2133 248.111 29V36H245.171ZM241.891 36.2C240.745 36.2 239.858 35.9267 239.231 35.38C238.618 34.8333 238.311 34.0667 238.311 33.08C238.311 32.0133 238.691 31.16 239.451 30.52C240.225 29.88 241.438 29.4933 243.091 29.36L245.651 29.16V31.32L243.431 31.54C242.631 31.62 242.071 31.78 241.751 32.02C241.445 32.26 241.291 32.58 241.291 32.98C241.291 33.38 241.418 33.68 241.671 33.88C241.938 34.08 242.278 34.18 242.691 34.18C242.851 34.18 243.011 34.1667 243.171 34.14C243.331 34.1 243.478 34.06 243.611 34.02L243.871 35.9C243.618 35.9933 243.318 36.0667 242.971 36.12C242.625 36.1733 242.265 36.2 241.891 36.2ZM246.471 27.22L244.831 25.84C245.298 25.68 245.665 25.48 245.931 25.24C246.198 24.9867 246.338 24.68 246.351 24.32H248.971C248.971 24.7333 248.885 25.1333 248.711 25.52C248.551 25.8933 248.285 26.2267 247.911 26.52C247.551 26.8133 247.071 27.0467 246.471 27.22ZM244.399 23.96C244.293 23.7733 244.206 23.5333 244.139 23.24C244.059 22.9467 244.019 22.6533 244.019 22.36C244.019 21.9867 244.093 21.6467 244.239 21.34C244.373 21.0333 244.619 20.7933 244.979 20.62C245.326 20.4333 245.806 20.34 246.419 20.34H249.319V22.36H247.399C247.146 22.36 246.953 22.4067 246.819 22.5C246.673 22.58 246.599 22.7333 246.599 22.96C246.599 23.0533 246.613 23.1533 246.639 23.26C246.666 23.3533 246.706 23.4533 246.759 23.56L244.399 23.96ZM256.589 36V31.4H255.449V29.56H259.289V33.72H259.429C259.869 33.72 260.242 33.6 260.549 33.36C260.869 33.12 261.109 32.7667 261.269 32.3C261.429 31.82 261.509 31.22 261.509 30.5C261.509 29.6733 261.389 29.02 261.149 28.54C260.922 28.0467 260.582 27.6933 260.129 27.48C259.676 27.2667 259.116 27.16 258.449 27.16C257.756 27.16 257.129 27.26 256.569 27.46C256.009 27.6467 255.509 27.8733 255.069 28.14V25.64C255.509 25.4133 256.062 25.2133 256.729 25.04C257.396 24.8667 258.162 24.78 259.029 24.78C260.322 24.78 261.369 24.9867 262.169 25.4C262.982 25.8133 263.582 26.44 263.969 27.28C264.356 28.12 264.549 29.1733 264.549 30.44C264.549 31.6267 264.369 32.64 264.009 33.48C263.662 34.3067 263.089 34.9333 262.289 35.36C261.502 35.7867 260.449 36 259.129 36H256.589ZM261.978 23.96C261.218 23.96 260.611 23.7867 260.158 23.44C259.704 23.0933 259.478 22.6067 259.478 21.98C259.478 21.3533 259.704 20.8667 260.158 20.52C260.611 20.1733 261.218 20 261.978 20C262.738 20 263.351 20.1733 263.818 20.52C264.271 20.8667 264.498 21.3533 264.498 21.98C264.498 22.6067 264.271 23.0933 263.818 23.44C263.351 23.7867 262.738 23.96 261.978 23.96ZM261.978 22.8C262.271 22.8 262.498 22.7267 262.658 22.58C262.818 22.4333 262.898 22.2333 262.898 21.98C262.898 21.7267 262.818 21.5267 262.658 21.38C262.498 21.2333 262.271 21.16 261.978 21.16C261.698 21.16 261.478 21.2333 261.318 21.38C261.158 21.5267 261.078 21.7267 261.078 21.98C261.078 22.2333 261.158 22.4333 261.318 22.58C261.478 22.7267 261.698 22.8 261.978 22.8ZM269.761 36V28.76C269.761 28.2 269.628 27.7933 269.361 27.54C269.108 27.2867 268.688 27.16 268.101 27.16C267.661 27.16 267.254 27.22 266.881 27.34C266.521 27.46 266.181 27.6067 265.861 27.78V25.38C266.154 25.2467 266.568 25.1133 267.101 24.98C267.634 24.8467 268.261 24.78 268.981 24.78C269.714 24.78 270.361 24.8867 270.921 25.1C271.494 25.3133 271.941 25.6733 272.261 26.18C272.594 26.6733 272.761 27.3533 272.761 28.22V36H269.761ZM275.452 36V32.66C275.452 31.82 275.619 31.1733 275.952 30.72C276.286 30.2667 276.759 29.9467 277.372 29.76L277.392 29.68L275.252 28.9V28.38C275.252 27.7267 275.446 27.1267 275.832 26.58C276.219 26.0333 276.786 25.6 277.532 25.28C278.292 24.9467 279.212 24.78 280.292 24.78C281.306 24.78 282.179 24.94 282.912 25.26C283.646 25.5667 284.212 26.0333 284.612 26.66C285.026 27.2733 285.232 28.0533 285.232 29V36H282.232V29.18C282.232 28.5133 282.052 28.0133 281.692 27.68C281.346 27.3467 280.852 27.18 280.212 27.18C279.599 27.18 279.139 27.3133 278.832 27.58C278.526 27.8333 278.359 28.1467 278.332 28.52L280.112 29.34L279.892 30.64C279.412 30.6667 279.052 30.84 278.812 31.16C278.572 31.48 278.452 31.9133 278.452 32.46V36H275.452ZM281.996 23.52C281.369 23.52 280.876 23.4267 280.516 23.24C280.156 23.0533 279.903 22.82 279.756 22.54C279.596 22.2467 279.516 21.94 279.516 21.62C279.516 21.3933 279.549 21.1533 279.616 20.9C279.683 20.6333 279.783 20.3867 279.916 20.16L282.096 20.44C282.069 20.5333 282.049 20.6333 282.036 20.74C282.009 20.8333 281.996 20.92 281.996 21C281.996 21.1867 282.056 21.3333 282.176 21.44C282.283 21.5333 282.469 21.58 282.736 21.58H287.036V23.52H281.996ZM291.973 36.2C290.893 36.2 290.033 35.9667 289.393 35.5C288.753 35.02 288.293 34.3667 288.013 33.54C287.733 32.7 287.593 31.74 287.593 30.66C287.593 29.5 287.719 28.54 287.973 27.78C288.239 27.0067 288.613 26.4067 289.093 25.98C289.573 25.54 290.139 25.2333 290.793 25.06C291.459 24.8733 292.186 24.78 292.973 24.78C294.173 24.78 295.133 24.9467 295.853 25.28C296.573 25.6133 297.093 26.0867 297.413 26.7C297.746 27.3133 297.913 28.0333 297.913 28.86V36H294.913V29.1C294.913 28.4733 294.759 28 294.453 27.68C294.159 27.3467 293.666 27.18 292.973 27.18C292.506 27.18 292.093 27.28 291.733 27.48C291.386 27.6667 291.113 28.0067 290.913 28.5C290.726 28.9933 290.633 29.7 290.633 30.62C290.633 31.2467 290.693 31.8 290.813 32.28C290.933 32.76 291.126 33.1333 291.393 33.4C291.673 33.6667 292.046 33.8 292.513 33.8C292.659 33.8 292.799 33.7933 292.933 33.78C293.079 33.7533 293.206 33.7267 293.313 33.7L293.593 35.94C293.379 36.0333 293.119 36.1 292.813 36.14C292.519 36.18 292.239 36.2 291.973 36.2Z" fill="#5954A4"/>
<path d="M104.56 53.52V66H102.88V53.52H98.44V52.04H109V53.52H104.56ZM113.717 66.24C113.01 66.24 112.37 66.1133 111.797 65.86C111.237 65.6067 110.75 65.2467 110.337 64.78C109.937 64.3 109.623 63.7333 109.397 63.08C109.183 62.4133 109.077 61.6667 109.077 60.84C109.077 60.0267 109.183 59.2867 109.397 58.62C109.623 57.9533 109.937 57.3867 110.337 56.92C110.75 56.44 111.237 56.0733 111.797 55.82C112.37 55.5667 113.01 55.44 113.717 55.44C114.41 55.44 115.03 55.5667 115.577 55.82C116.123 56.0733 116.59 56.4267 116.977 56.88C117.363 57.32 117.657 57.8467 117.857 58.46C118.07 59.0733 118.177 59.7467 118.177 60.48V61.24H110.757V61.72C110.757 62.16 110.823 62.5733 110.957 62.96C111.103 63.3333 111.303 63.66 111.557 63.94C111.823 64.22 112.143 64.44 112.517 64.6C112.903 64.76 113.337 64.84 113.817 64.84C114.47 64.84 115.037 64.6867 115.517 64.38C116.01 64.0733 116.39 63.6333 116.657 63.06L117.797 63.88C117.463 64.5867 116.943 65.16 116.237 65.6C115.53 66.0267 114.69 66.24 113.717 66.24ZM113.717 56.78C113.277 56.78 112.877 56.86 112.517 57.02C112.157 57.1667 111.843 57.38 111.577 57.66C111.323 57.94 111.123 58.2733 110.977 58.66C110.83 59.0333 110.757 59.4467 110.757 59.9V60.04H116.457V59.82C116.457 58.9 116.203 58.1667 115.697 57.62C115.203 57.06 114.543 56.78 113.717 56.78ZM128.313 66C127.713 66 127.28 65.84 127.013 65.52C126.76 65.2 126.6 64.8 126.533 64.32H126.433C126.207 64.96 125.833 65.44 125.313 65.76C124.793 66.08 124.173 66.24 123.453 66.24C122.36 66.24 121.507 65.96 120.893 65.4C120.293 64.84 119.993 64.08 119.993 63.12C119.993 62.1467 120.347 61.4 121.053 60.88C121.773 60.36 122.887 60.1 124.393 60.1H126.433V59.08C126.433 58.3467 126.233 57.7867 125.833 57.4C125.433 57.0133 124.82 56.82 123.993 56.82C123.367 56.82 122.84 56.96 122.413 57.24C122 57.52 121.653 57.8933 121.373 58.36L120.413 57.46C120.693 56.9 121.14 56.4267 121.753 56.04C122.367 55.64 123.14 55.44 124.073 55.44C125.327 55.44 126.3 55.7467 126.993 56.36C127.687 56.9733 128.033 57.8267 128.033 58.92V64.6H129.213V66H128.313ZM123.713 64.88C124.113 64.88 124.48 64.8333 124.813 64.74C125.147 64.6467 125.433 64.5133 125.673 64.34C125.913 64.1667 126.1 63.9667 126.233 63.74C126.367 63.5133 126.433 63.2667 126.433 63V61.3H124.313C123.393 61.3 122.72 61.4333 122.293 61.7C121.88 61.9667 121.673 62.3533 121.673 62.86V63.28C121.673 63.7867 121.853 64.18 122.213 64.46C122.587 64.74 123.087 64.88 123.713 64.88ZM135.337 66.24C134.617 66.24 133.97 66.1133 133.397 65.86C132.824 65.6067 132.337 65.2467 131.937 64.78C131.55 64.3133 131.25 63.7467 131.037 63.08C130.837 62.4133 130.737 61.6667 130.737 60.84C130.737 60.0133 130.837 59.2667 131.037 58.6C131.25 57.9333 131.55 57.3667 131.937 56.9C132.337 56.4333 132.824 56.0733 133.397 55.82C133.97 55.5667 134.617 55.44 135.337 55.44C136.364 55.44 137.184 55.6667 137.797 56.12C138.424 56.56 138.89 57.14 139.197 57.86L137.857 58.54C137.67 58.0067 137.364 57.5933 136.937 57.3C136.51 57.0067 135.977 56.86 135.337 56.86C134.857 56.86 134.437 56.94 134.077 57.1C133.717 57.2467 133.417 57.46 133.177 57.74C132.937 58.0067 132.757 58.3333 132.637 58.72C132.517 59.0933 132.457 59.5067 132.457 59.96V61.72C132.457 62.6267 132.697 63.3733 133.177 63.96C133.67 64.5333 134.39 64.82 135.337 64.82C136.63 64.82 137.564 64.22 138.137 63.02L139.297 63.8C138.964 64.5467 138.464 65.14 137.797 65.58C137.144 66.02 136.324 66.24 135.337 66.24ZM141.555 51.2H143.155V57.36H143.235C143.489 56.7733 143.842 56.3067 144.295 55.96C144.762 55.6133 145.382 55.44 146.155 55.44C147.222 55.44 148.062 55.7867 148.675 56.48C149.302 57.16 149.615 58.1267 149.615 59.38V66H148.015V59.66C148.015 57.8067 147.235 56.88 145.675 56.88C145.355 56.88 145.042 56.92 144.735 57C144.442 57.08 144.175 57.2 143.935 57.36C143.695 57.52 143.502 57.7267 143.355 57.98C143.222 58.22 143.155 58.5067 143.155 58.84V66H141.555V51.2ZM153.723 53.26C153.376 53.26 153.123 53.18 152.963 53.02C152.816 52.8467 152.743 52.6267 152.743 52.36V52.1C152.743 51.8333 152.816 51.62 152.963 51.46C153.123 51.2867 153.376 51.2 153.723 51.2C154.069 51.2 154.316 51.2867 154.463 51.46C154.623 51.62 154.703 51.8333 154.703 52.1V52.36C154.703 52.6267 154.623 52.8467 154.463 53.02C154.316 53.18 154.069 53.26 153.723 53.26ZM152.923 55.68H154.523V66H152.923V55.68ZM157.923 66V55.68H159.523V57.36H159.603C159.856 56.7733 160.209 56.3067 160.663 55.96C161.129 55.6133 161.749 55.44 162.523 55.44C163.589 55.44 164.429 55.7867 165.043 56.48C165.669 57.16 165.983 58.1267 165.983 59.38V66H164.383V59.66C164.383 57.8067 163.603 56.88 162.043 56.88C161.723 56.88 161.409 56.92 161.103 57C160.809 57.08 160.543 57.2 160.303 57.36C160.063 57.52 159.869 57.7267 159.723 57.98C159.589 58.22 159.523 58.5067 159.523 58.84V66H157.923ZM177.99 67.14C177.99 68.2067 177.57 68.9867 176.73 69.48C175.903 69.9867 174.657 70.24 172.99 70.24C171.377 70.24 170.217 70.02 169.51 69.58C168.803 69.14 168.45 68.5133 168.45 67.7C168.45 67.14 168.597 66.7 168.89 66.38C169.183 66.0733 169.583 65.8467 170.09 65.7V65.48C169.477 65.1867 169.17 64.7067 169.17 64.04C169.17 63.52 169.337 63.1267 169.67 62.86C170.003 62.58 170.43 62.3733 170.95 62.24V62.16C170.337 61.8667 169.857 61.4467 169.51 60.9C169.177 60.3533 169.01 59.72 169.01 59C169.01 58.48 169.103 58 169.29 57.56C169.477 57.12 169.737 56.7467 170.07 56.44C170.417 56.12 170.823 55.8733 171.29 55.7C171.77 55.5267 172.303 55.44 172.89 55.44C173.623 55.44 174.277 55.5733 174.85 55.84V55.66C174.85 55.26 174.943 54.9333 175.13 54.68C175.317 54.4133 175.623 54.28 176.05 54.28H177.59V55.68H175.63V56.34C176.003 56.66 176.29 57.0467 176.49 57.5C176.703 57.94 176.81 58.44 176.81 59C176.81 59.52 176.717 60 176.53 60.44C176.343 60.88 176.077 61.26 175.73 61.58C175.397 61.8867 174.99 62.1267 174.51 62.3C174.03 62.4733 173.497 62.56 172.91 62.56C172.577 62.56 172.243 62.5267 171.91 62.46C171.563 62.5533 171.25 62.6933 170.97 62.88C170.69 63.0533 170.55 63.3 170.55 63.62C170.55 63.9267 170.697 64.1333 170.99 64.24C171.283 64.3467 171.663 64.4 172.13 64.4H174.33C175.61 64.4 176.537 64.6467 177.11 65.14C177.697 65.62 177.99 66.2867 177.99 67.14ZM176.49 67.26C176.49 66.8467 176.33 66.5133 176.01 66.26C175.703 66.02 175.15 65.9 174.35 65.9H170.91C170.27 66.1933 169.95 66.66 169.95 67.3C169.95 67.7533 170.117 68.14 170.45 68.46C170.797 68.78 171.377 68.94 172.19 68.94H173.67C174.563 68.94 175.257 68.8 175.75 68.52C176.243 68.24 176.49 67.82 176.49 67.26ZM172.91 61.28C173.59 61.28 174.13 61.12 174.53 60.8C174.93 60.4667 175.13 59.96 175.13 59.28V58.72C175.13 58.04 174.93 57.54 174.53 57.22C174.13 56.8867 173.59 56.72 172.91 56.72C172.23 56.72 171.69 56.8867 171.29 57.22C170.89 57.54 170.69 58.04 170.69 58.72V59.28C170.69 59.96 170.89 60.4667 171.29 60.8C171.69 61.12 172.23 61.28 172.91 61.28ZM189.443 53.52V66H187.763V53.52H183.323V52.04H193.883V53.52H189.443ZM198.62 66.24C197.926 66.24 197.293 66.1133 196.72 65.86C196.146 65.6067 195.653 65.2467 195.24 64.78C194.84 64.3 194.526 63.7333 194.3 63.08C194.073 62.4133 193.96 61.6667 193.96 60.84C193.96 60.0267 194.073 59.2867 194.3 58.62C194.526 57.9533 194.84 57.3867 195.24 56.92C195.653 56.44 196.146 56.0733 196.72 55.82C197.293 55.5667 197.926 55.44 198.62 55.44C199.313 55.44 199.94 55.5667 200.5 55.82C201.073 56.0733 201.566 56.44 201.98 56.92C202.393 57.3867 202.713 57.9533 202.94 58.62C203.166 59.2867 203.28 60.0267 203.28 60.84C203.28 61.6667 203.166 62.4133 202.94 63.08C202.713 63.7333 202.393 64.3 201.98 64.78C201.566 65.2467 201.073 65.6067 200.5 65.86C199.94 66.1133 199.313 66.24 198.62 66.24ZM198.62 64.82C199.486 64.82 200.193 64.5533 200.74 64.02C201.286 63.4867 201.56 62.6733 201.56 61.58V60.1C201.56 59.0067 201.286 58.1933 200.74 57.66C200.193 57.1267 199.486 56.86 198.62 56.86C197.753 56.86 197.046 57.1267 196.5 57.66C195.953 58.1933 195.68 59.0067 195.68 60.1V61.58C195.68 62.6733 195.953 63.4867 196.5 64.02C197.046 64.5533 197.753 64.82 198.62 64.82ZM212.173 55.68H213.753L209.133 68.4C209.013 68.7067 208.893 68.96 208.773 69.16C208.653 69.3733 208.507 69.54 208.333 69.66C208.16 69.78 207.94 69.8667 207.673 69.92C207.42 69.9733 207.107 70 206.733 70H205.913V68.6H207.533L208.313 66.4L204.453 55.68H206.053L208.533 62.7L209.013 64.38H209.113L209.673 62.7L212.173 55.68ZM225.6 66.24C223.827 66.24 222.447 65.64 221.46 64.44C220.474 63.2267 219.98 61.4467 219.98 59.1C219.98 56.7533 220.474 54.9533 221.46 53.7C222.447 52.4333 223.827 51.8 225.6 51.8C226.774 51.8 227.754 52.0667 228.54 52.6C229.34 53.1333 229.96 53.8867 230.4 54.86L229.04 55.68C228.76 54.96 228.334 54.3867 227.76 53.96C227.187 53.52 226.467 53.3 225.6 53.3C225 53.3 224.46 53.4133 223.98 53.64C223.514 53.8667 223.114 54.1933 222.78 54.62C222.46 55.0333 222.214 55.5333 222.04 56.12C221.867 56.6933 221.78 57.34 221.78 58.06V60.14C221.78 61.58 222.114 62.7067 222.78 63.52C223.447 64.3333 224.387 64.74 225.6 64.74C226.494 64.74 227.24 64.5133 227.84 64.06C228.44 63.5933 228.88 62.98 229.16 62.22L230.5 63.06C230.06 64.0467 229.427 64.8267 228.6 65.4C227.774 65.96 226.774 66.24 225.6 66.24ZM236.842 66.24C236.149 66.24 235.516 66.1133 234.942 65.86C234.369 65.6067 233.876 65.2467 233.462 64.78C233.062 64.3 232.749 63.7333 232.522 63.08C232.296 62.4133 232.182 61.6667 232.182 60.84C232.182 60.0267 232.296 59.2867 232.522 58.62C232.749 57.9533 233.062 57.3867 233.462 56.92C233.876 56.44 234.369 56.0733 234.942 55.82C235.516 55.5667 236.149 55.44 236.842 55.44C237.536 55.44 238.162 55.5667 238.722 55.82C239.296 56.0733 239.789 56.44 240.202 56.92C240.616 57.3867 240.936 57.9533 241.162 58.62C241.389 59.2867 241.502 60.0267 241.502 60.84C241.502 61.6667 241.389 62.4133 241.162 63.08C240.936 63.7333 240.616 64.3 240.202 64.78C239.789 65.2467 239.296 65.6067 238.722 65.86C238.162 66.1133 237.536 66.24 236.842 66.24ZM236.842 64.82C237.709 64.82 238.416 64.5533 238.962 64.02C239.509 63.4867 239.782 62.6733 239.782 61.58V60.1C239.782 59.0067 239.509 58.1933 238.962 57.66C238.416 57.1267 237.709 56.86 236.842 56.86C235.976 56.86 235.269 57.1267 234.722 57.66C234.176 58.1933 233.902 59.0067 233.902 60.1V61.58C233.902 62.6733 234.176 63.4867 234.722 64.02C235.269 64.5533 235.976 64.82 236.842 64.82ZM244.763 66.24C244.336 66.24 244.023 66.1333 243.823 65.92C243.636 65.7067 243.543 65.4267 243.543 65.08V64.82C243.543 64.4733 243.636 64.1933 243.823 63.98C244.023 63.7667 244.336 63.66 244.763 63.66C245.19 63.66 245.496 63.7667 245.683 63.98C245.883 64.1933 245.983 64.4733 245.983 64.82V65.08C245.983 65.4267 245.883 65.7067 245.683 65.92C245.496 66.1333 245.19 66.24 244.763 66.24ZM250.212 63.66C250.639 63.66 250.946 63.7733 251.132 64C251.332 64.2133 251.432 64.4933 251.432 64.84V65.12C251.432 65.6667 251.272 66.2667 250.952 66.92C250.632 67.5867 250.186 68.1667 249.612 68.66H248.272C248.672 68.2333 248.992 67.8267 249.232 67.44C249.486 67.0667 249.666 66.6467 249.772 66.18C249.506 66.1133 249.306 65.9867 249.172 65.8C249.052 65.6133 248.992 65.3867 248.992 65.12V64.84C248.992 64.4933 249.086 64.2133 249.272 64C249.472 63.7733 249.786 63.66 250.212 63.66ZM256.341 66C255.781 66 255.355 65.8467 255.061 65.54C254.781 65.22 254.641 64.82 254.641 64.34V51.2H256.241V64.6H257.761V66H256.341ZM262.273 66C261.713 66 261.286 65.8467 260.993 65.54C260.713 65.22 260.573 64.8067 260.573 64.3V57.08H258.873V55.68H259.833C260.18 55.68 260.413 55.6133 260.533 55.48C260.666 55.3333 260.733 55.0867 260.733 54.74V52.82H262.173V55.68H264.433V57.08H262.173V64.6H264.273V66H262.273ZM273.527 64.32H273.447C272.82 65.6 271.813 66.24 270.427 66.24C269.787 66.24 269.207 66.1133 268.687 65.86C268.167 65.6067 267.72 65.2467 267.347 64.78C266.987 64.3133 266.707 63.7467 266.507 63.08C266.32 62.4133 266.227 61.6667 266.227 60.84C266.227 60.0133 266.32 59.2667 266.507 58.6C266.707 57.9333 266.987 57.3667 267.347 56.9C267.72 56.4333 268.167 56.0733 268.687 55.82C269.207 55.5667 269.787 55.44 270.427 55.44C271.147 55.44 271.76 55.6 272.267 55.92C272.787 56.2267 273.18 56.7067 273.447 57.36H273.527V51.2H275.127V66H273.527V64.32ZM270.867 64.8C271.227 64.8 271.567 64.7533 271.887 64.66C272.22 64.5667 272.507 64.4333 272.747 64.26C272.987 64.0733 273.173 63.8533 273.307 63.6C273.453 63.3333 273.527 63.0333 273.527 62.7V58.86C273.527 58.58 273.453 58.32 273.307 58.08C273.173 57.8267 272.987 57.6133 272.747 57.44C272.507 57.2667 272.22 57.1333 271.887 57.04C271.567 56.9333 271.227 56.88 270.867 56.88C269.96 56.88 269.247 57.1667 268.727 57.74C268.207 58.3 267.947 59.04 267.947 59.96V61.72C267.947 62.64 268.207 63.3867 268.727 63.96C269.247 64.52 269.96 64.8 270.867 64.8ZM279.548 66.24C279.121 66.24 278.808 66.1333 278.608 65.92C278.421 65.7067 278.328 65.4267 278.328 65.08V64.82C278.328 64.4733 278.421 64.1933 278.608 63.98C278.808 63.7667 279.121 63.66 279.548 63.66C279.975 63.66 280.281 63.7667 280.468 63.98C280.668 64.1933 280.768 64.4733 280.768 64.82V65.08C280.768 65.4267 280.668 65.7067 280.468 65.92C280.281 66.1333 279.975 66.24 279.548 66.24Z" fill="#474747"/>
<g filter="url(#filter0_d_706_3546)">
<circle cx="42" cy="42" r="35" fill="url(#paint0_radial_706_3546)"/>
</g>
<path fill-rule="evenodd" clip-rule="evenodd" d="M35.1182 43.2471V57.2381C35.1182 58.3419 36.013 59.2367 37.1167 59.2367H47.961C49.0647 59.2367 49.9595 58.3419 49.9595 57.2381V43.2471C49.9595 43.2471 46.1202 42.0718 42.381 44.6044C38.6417 47.1371 35.1182 43.2471 35.1182 43.2471Z" fill="#6CC2C3"/>
<g filter="url(#filter1_d_706_3546)">
<path d="M42.3632 62.5842C44.3344 62.5842 46.0231 62.2492 47.4295 61.579C48.8358 60.9088 49.9836 59.9933 50.8731 58.8325C51.7625 57.6717 52.4116 56.3194 52.8203 54.7757C53.2289 53.2319 53.4333 51.5864 53.4333 49.8392V36.9147H49.3586V49.8392C49.3586 50.9881 49.2444 52.107 49.016 53.196C48.7877 54.285 48.403 55.2543 47.8622 56.104C47.3213 56.9537 46.6061 57.6418 45.7166 58.1684C44.8272 58.6949 43.7094 58.9582 42.3632 58.9582C41.041 58.9582 39.9292 58.7009 39.0277 58.1863C38.1262 57.6717 37.405 56.9896 36.8642 56.1399C36.3233 55.2903 35.9386 54.3209 35.7103 53.2319C35.4819 52.1429 35.3677 51.012 35.3677 49.8392V36.9147H31.3291V49.8392C31.3291 51.4907 31.5214 53.0823 31.906 54.6141C32.2907 56.1459 32.9157 57.5042 33.7811 58.6889C34.6465 59.8737 35.7824 60.8191 37.1887 61.5251C38.595 62.2312 40.3198 62.5842 42.3632 62.5842Z" fill="white"/>
</g>
<path fill-rule="evenodd" clip-rule="evenodd" d="M38.9076 51.0624C39.6052 51.0624 40.1707 50.4994 40.1707 49.8048C40.1707 49.1103 39.6052 48.5473 38.9076 48.5473C38.21 48.5473 37.6445 49.1103 37.6445 49.8048C37.6445 50.4994 38.21 51.0624 38.9076 51.0624Z" fill="#F1C352"/>
<path fill-rule="evenodd" clip-rule="evenodd" d="M45.2233 47.2897C45.5721 47.2897 45.8549 47.0082 45.8549 46.6609C45.8549 46.3136 45.5721 46.0321 45.2233 46.0321C44.8746 46.0321 44.5918 46.3136 44.5918 46.6609C44.5918 47.0082 44.8746 47.2897 45.2233 47.2897Z" fill="#CAED1F"/>
<path fill-rule="evenodd" clip-rule="evenodd" d="M44.7495 55.4639C45.7086 55.4639 46.4862 54.6898 46.4862 53.7348C46.4862 52.7798 45.7086 52.0056 44.7495 52.0056C43.7903 52.0056 43.0127 52.7798 43.0127 53.7348C43.0127 54.6898 43.7903 55.4639 44.7495 55.4639Z" fill="#E66680"/>
<path d="M47.1617 30.7556C47.1617 33.4269 45.0783 33.8417 45.0783 36.3313C45.0783 37.6166 43.777 37.7249 42.7865 37.7249C41.931 37.7249 40.0422 37.4017 40.0422 36.3305C40.0422 33.8421 37.9946 33.4273 37.9946 30.7556C37.9946 28.2535 40.1968 26.2252 42.6127 26.2252C45.0295 26.2252 47.1617 28.2535 47.1617 30.7556Z" fill="#F6C23F"/>
<path d="M44.314 39.6502C44.314 39.9937 43.3831 40.6874 42.5776 40.6874C41.7722 40.6874 40.8413 39.9937 40.8413 39.6502C40.8413 39.3067 41.7718 39.4428 42.5776 39.4428C43.3831 39.4428 44.314 39.3067 44.314 39.6502Z" fill="#CCD6DD"/>
<path d="M44.5388 30.4374C44.5002 30.3988 44.4542 30.3682 44.4037 30.3473C44.3531 30.3265 44.299 30.3157 44.2442 30.3157C44.1895 30.3157 44.1353 30.3265 44.0848 30.3473C44.0342 30.3682 43.9883 30.3988 43.9496 30.4374L42.5775 31.8035L41.2054 30.4374C41.1667 30.3988 41.1207 30.3683 41.0702 30.3474C41.0196 30.3266 40.9655 30.3159 40.9108 30.3159C40.8561 30.3159 40.8019 30.3266 40.7513 30.3474C40.7008 30.3683 40.6549 30.3988 40.6162 30.4374C40.5775 30.4759 40.5468 30.5216 40.5259 30.5719C40.5049 30.6223 40.4941 30.6762 40.4941 30.7307C40.4941 30.7851 40.5049 30.8391 40.5259 30.8894C40.5468 30.9397 40.5775 30.9855 40.6162 31.024L42.1608 32.5619V36.9536C42.1608 37.0637 42.2047 37.1692 42.2829 37.247C42.361 37.3248 42.467 37.3685 42.5775 37.3685C42.688 37.3685 42.794 37.3248 42.8721 37.247C42.9503 37.1692 42.9942 37.0637 42.9942 36.9536V32.5619L44.5388 31.024C44.5776 30.9855 44.6083 30.9398 44.6292 30.8894C44.6502 30.8391 44.661 30.7852 44.661 30.7307C44.661 30.6762 44.6502 30.6222 44.6292 30.5719C44.6083 30.5216 44.5776 30.4759 44.5388 30.4374Z" fill="white"/>
<path d="M45.0783 39.028C45.0783 39.2481 44.9905 39.4591 44.8342 39.6147C44.678 39.7703 44.466 39.8577 44.245 39.8577H40.9115C40.6905 39.8577 40.4785 39.7703 40.3222 39.6147C40.1659 39.4591 40.0781 39.2481 40.0781 39.028V36.5388H45.0783V39.028Z" fill="#99AAB5"/>
<path d="M40.0773 39.4429C39.9729 39.4425 39.8725 39.4031 39.7959 39.3326C39.7193 39.2621 39.672 39.1655 39.6635 39.0619C39.655 38.9584 39.6858 38.8554 39.7498 38.7734C39.8138 38.6914 39.9064 38.6363 40.0093 38.6189L45.0095 37.7892C45.0635 37.78 45.1188 37.7815 45.1722 37.7936C45.2256 37.8058 45.2761 37.8284 45.3206 37.8601C45.3652 37.8918 45.403 37.9321 45.4319 37.9784C45.4607 38.0248 45.48 38.0764 45.4887 38.1302C45.4977 38.184 45.496 38.2389 45.4837 38.292C45.4713 38.345 45.4486 38.3952 45.4168 38.4395C45.385 38.4838 45.3447 38.5214 45.2983 38.5502C45.2519 38.579 45.2002 38.5984 45.1462 38.6073L40.146 39.4371C40.1233 39.441 40.1003 39.443 40.0773 39.4429ZM40.0773 37.7834C39.9729 37.783 39.8725 37.7437 39.7959 37.6731C39.7193 37.6026 39.672 37.506 39.6635 37.4025C39.655 37.2989 39.6858 37.196 39.7498 37.114C39.8138 37.0319 39.9064 36.9768 40.0093 36.9595L45.0095 36.1298C45.0635 36.1206 45.1188 36.1221 45.1722 36.1343C45.2256 36.1465 45.276 36.1691 45.3205 36.2008C45.3651 36.2325 45.4029 36.2727 45.4318 36.319C45.4606 36.3654 45.48 36.4169 45.4887 36.4708C45.4977 36.5245 45.496 36.5795 45.4837 36.6325C45.4713 36.6856 45.4486 36.7357 45.4168 36.78C45.385 36.8243 45.3447 36.8619 45.2983 36.8907C45.2519 36.9196 45.2002 36.939 45.1462 36.9479L40.146 37.7776C40.1233 37.7816 40.1003 37.7835 40.0773 37.7834Z" fill="#CCD6DD"/>
<path d="M41.75 22.1381C41.75 21.6172 42.1741 21.1949 42.6973 21.1949C43.2205 21.1949 43.6446 21.6172 43.6446 22.1381V24.0245C43.6446 24.5454 43.2205 24.9677 42.6973 24.9677C42.1741 24.9677 41.75 24.5454 41.75 24.0245V22.1381Z" fill="white" fill-opacity="0.6"/>
<path d="M51.539 29.998C52.0622 29.998 52.4863 30.4202 52.4863 30.9412C52.4863 31.4621 52.0622 31.8843 51.539 31.8843L49.6444 31.8843C49.1212 31.8843 48.697 31.4621 48.697 30.9412C48.697 30.4202 49.1212 29.998 49.6444 29.998L51.539 29.998Z" fill="white" fill-opacity="0.6"/>
<path d="M48.9171 23.7482C49.287 23.3799 49.8868 23.3799 50.2568 23.7482C50.6267 24.1166 50.6267 24.7137 50.2568 25.0821L48.9171 26.4159C48.5471 26.7843 47.9473 26.7843 47.5773 26.4159C47.2074 26.0476 47.2074 25.4504 47.5773 25.0821L48.9171 23.7482Z" fill="white" fill-opacity="0.6"/>
<path d="M35.4345 29.998C35.9577 29.998 36.3818 30.4202 36.3818 30.9412C36.3818 31.4621 35.9577 31.8843 35.4345 31.8843L33.5399 31.8843C33.0167 31.8843 32.5925 31.4621 32.5925 30.9412C32.5925 30.4202 33.0167 29.998 33.5399 29.998L35.4345 29.998Z" fill="white" fill-opacity="0.6"/>
<path d="M37.8365 25.0821C38.2064 25.4504 38.2064 26.0476 37.8365 26.4159C37.4665 26.7843 36.8667 26.7843 36.4968 26.4159L35.1571 25.0821C34.7871 24.7137 34.7871 24.1166 35.1571 23.7482C35.527 23.3799 36.1268 23.3799 36.4968 23.7482L37.8365 25.0821Z" fill="white" fill-opacity="0.6"/>
<defs>
<filter id="filter0_d_706_3546" x="0.114754" y="0.114754" width="88.3607" height="88.3607" filterUnits="userSpaceOnUse" color-interpolation-filters="sRGB">
<feFlood flood-opacity="0" result="BackgroundImageFix"/>
<feColorMatrix in="SourceAlpha" type="matrix" values="0 0 0 0 0 0 0 0 0 0 0 0 0 0 0 0 0 0 127 0" result="hardAlpha"/>
<feOffset dx="2.29508" dy="2.29508"/>
<feGaussianBlur stdDeviation="4.59016"/>
<feColorMatrix type="matrix" values="0 0 0 0 0.67357 0 0 0 0 0.668278 0 0 0 0 0.77015 0 0 0 1 0"/>
<feBlend mode="normal" in2="BackgroundImageFix" result="effect1_dropShadow_706_3546"/>
<feBlend mode="normal" in="SourceGraphic" in2="effect1_dropShadow_706_3546" result="shape"/>
</filter>
<filter id="filter1_d_706_3546" x="30.9294" y="36.7148" width="22.9034" height="26.469" filterUnits="userSpaceOnUse" color-interpolation-filters="sRGB">
<feFlood flood-opacity="0" result="BackgroundImageFix"/>
<feColorMatrix in="SourceAlpha" type="matrix" values="0 0 0 0 0 0 0 0 0 0 0 0 0 0 0 0 0 0 127 0" result="hardAlpha"/>
<feOffset dy="0.199858"/>
<feGaussianBlur stdDeviation="0.199858"/>
<feColorMatrix type="matrix" values="0 0 0 0 0 0 0 0 0 0 0 0 0 0 0 0 0 0 0.216701 0"/>
<feBlend mode="normal" in2="BackgroundImageFix" result="effect1_dropShadow_706_3546"/>
<feBlend mode="normal" in="SourceGraphic" in2="effect1_dropShadow_706_3546" result="shape"/>
</filter>
<radialGradient id="paint0_radial_706_3546" cx="0" cy="0" r="1" gradientUnits="userSpaceOnUse" gradientTransform="translate(42 40.2715) rotate(90) scale(34.6411)">
<stop stop-color="#6F6BC0"/>
<stop offset="1" stop-color="#4F4B98"/>
</radialGradient>
</defs>
</svg>
