<svg width="245" height="69" viewBox="0 0 245 69" fill="none" xmlns="http://www.w3.org/2000/svg">
<path d="M7.344 11.192C7.344 10.4133 7.19467 9.84267 6.896 9.48C6.608 9.11733 6.192 8.936 5.648 8.936C5.30667 8.936 4.976 8.98933 4.656 9.096C4.34667 9.192 4.05333 9.33067 3.776 9.512C3.50933 9.68267 3.264 9.88533 3.04 10.12C2.816 10.344 2.62933 10.584 2.48 10.84V17H1.264V8.04H2.4L2.48 9.448C2.66133 9.24533 2.864 9.05333 3.088 8.872C3.32267 8.68 3.57333 8.51467 3.84 8.376C4.11733 8.22667 4.41067 8.10933 4.72 8.024C5.02933 7.93867 5.36 7.896 5.712 7.896C6.65067 7.896 7.36 8.18933 7.84 8.776C8.32 9.352 8.56 10.1573 8.56 11.192V17H7.344V11.192ZM7.38087 6.792V4.184H8.56487V6.792H7.38087ZM14.8209 17V11.192C14.8209 10.424 14.6555 9.85867 14.3249 9.496C14.0049 9.12267 13.5195 8.936 12.8689 8.936C12.3569 8.936 11.8715 9.032 11.4129 9.224C10.9649 9.40533 10.5862 9.61867 10.2769 9.864L9.95688 8.952C10.1169 8.824 10.3035 8.696 10.5169 8.568C10.7409 8.44 10.9809 8.328 11.2369 8.232C11.5035 8.136 11.7809 8.056 12.0689 7.992C12.3675 7.928 12.6609 7.896 12.9489 7.896C13.9835 7.896 14.7569 8.184 15.2689 8.76C15.7809 9.336 16.0369 10.1467 16.0369 11.192V17H14.8209ZM19.7136 13.832C19.7136 14.6 19.863 15.1707 20.1616 15.544C20.4603 15.9173 20.9616 16.104 21.6656 16.104C21.9536 16.104 22.2363 16.056 22.5136 15.96C22.791 15.8533 23.0523 15.7147 23.2976 15.544C23.543 15.3627 23.7616 15.1547 23.9536 14.92C24.1456 14.6853 24.3003 14.44 24.4176 14.184V8.04H25.6336V17H24.4976L24.4176 15.592C24.0976 16.072 23.687 16.4507 23.1856 16.728C22.695 17.0053 22.0976 17.144 21.3936 17.144C20.423 17.144 19.6976 16.8667 19.2176 16.312C18.7376 15.7573 18.4976 14.936 18.4976 13.848V8.04H19.7136V13.832ZM33.5946 17V12.584H31.3226C30.512 12.584 29.872 12.7333 29.4026 13.032C28.9333 13.3307 28.6986 13.816 28.6986 14.488C28.6986 15.0533 28.8693 15.4693 29.2106 15.736C29.5626 16.0027 29.9786 16.136 30.4586 16.136C30.704 16.136 30.944 16.1147 31.1786 16.072C31.424 16.0187 31.6373 15.9493 31.8186 15.864L32.0266 16.856C31.8133 16.9413 31.5573 17.0107 31.2586 17.064C30.96 17.1173 30.656 17.144 30.3466 17.144C29.9413 17.144 29.5626 17.0907 29.2106 16.984C28.8693 16.8773 28.5706 16.7173 28.3146 16.504C28.0586 16.28 27.856 16.0027 27.7066 15.672C27.568 15.3413 27.4986 14.952 27.4986 14.504C27.4986 13.5653 27.824 12.84 28.4746 12.328C29.1253 11.8053 30.1173 11.544 31.4506 11.544H33.5946V11.256C33.5946 10.5413 33.4186 9.97067 33.0666 9.544C32.7253 9.11733 32.144 8.904 31.3226 8.904C30.6826 8.904 30.1013 8.99467 29.5786 9.176C29.0666 9.35733 28.6186 9.58133 28.2346 9.848L27.8346 8.984C28.0053 8.856 28.2186 8.728 28.4746 8.6C28.7306 8.46133 29.008 8.344 29.3066 8.248C29.616 8.14133 29.9413 8.056 30.2826 7.992C30.624 7.928 30.9706 7.896 31.3226 7.896C31.6853 7.896 32.016 7.93333 32.3146 8.008C32.624 8.072 32.9013 8.16267 33.1466 8.28L33.8986 7.416H35.2906L34.0106 8.92C34.544 9.50667 34.8106 10.28 34.8106 11.24V17H33.5946ZM41.0709 17V11.192C41.0709 10.424 40.9055 9.85867 40.5749 9.496C40.2549 9.12267 39.7695 8.936 39.1189 8.936C38.6069 8.936 38.1215 9.032 37.6629 9.224C37.2149 9.40533 36.8362 9.61867 36.5269 9.864L36.2069 8.952C36.3669 8.824 36.5535 8.696 36.7669 8.568C36.9909 8.44 37.2309 8.328 37.4869 8.232C37.7535 8.136 38.0309 8.056 38.3189 7.992C38.6175 7.928 38.9109 7.896 39.1989 7.896C40.2335 7.896 41.0069 8.184 41.5189 8.76C42.0309 9.336 42.2869 10.1467 42.2869 11.192V17H41.0709ZM50.6996 8.04H51.9156V13.688C51.9156 14.776 51.665 15.624 51.1636 16.232C50.673 16.84 49.9103 17.144 48.8756 17.144C48.2356 17.144 47.6756 17.0107 47.1956 16.744C46.7156 16.4667 46.3156 16.0827 45.9956 15.592L45.9156 17H44.7796V8.04H45.9956V14.184C46.113 14.44 46.2623 14.6853 46.4436 14.92C46.6356 15.1547 46.849 15.3627 47.0836 15.544C47.329 15.7147 47.5903 15.8533 47.8676 15.96C48.1556 16.056 48.4436 16.104 48.7316 16.104C49.4356 16.104 49.937 15.896 50.2356 15.48C50.545 15.0533 50.6996 14.4507 50.6996 13.672V8.04ZM58.1646 17V11.192C58.1646 10.424 57.9993 9.85867 57.6686 9.496C57.3486 9.12267 56.8633 8.936 56.2126 8.936C55.7006 8.936 55.2153 9.032 54.7566 9.224C54.3086 9.40533 53.93 9.61867 53.6206 9.864L53.3006 8.952C53.4606 8.824 53.6473 8.696 53.8606 8.568C54.0846 8.44 54.3246 8.328 54.5806 8.232C54.8473 8.136 55.1246 8.056 55.4126 7.992C55.7113 7.928 56.0046 7.896 56.2926 7.896C57.3273 7.896 58.1006 8.184 58.6126 8.76C59.1246 9.336 59.3806 10.1467 59.3806 11.192V17H58.1646ZM64.2414 16.12C64.988 16.12 65.5534 15.976 65.9374 15.688C66.3214 15.4 66.5134 15.048 66.5134 14.632C66.5134 14.376 66.444 14.1573 66.3054 13.976C66.1667 13.7947 65.9854 13.6347 65.7614 13.496C65.5374 13.3573 65.2814 13.24 64.9934 13.144C64.716 13.0373 64.4334 12.9413 64.1454 12.856C63.7614 12.7493 63.3987 12.6267 63.0574 12.488C62.7267 12.3493 62.4334 12.1787 62.1774 11.976C61.9214 11.7733 61.7187 11.5333 61.5694 11.256C61.4307 10.9787 61.3614 10.6373 61.3614 10.232C61.3614 9.496 61.6494 8.92533 62.2254 8.52C62.812 8.104 63.6067 7.896 64.6094 7.896C65.1214 7.896 65.6174 7.94933 66.0974 8.056C66.5774 8.16267 66.9934 8.30667 67.3454 8.488L67.0414 9.432C66.7214 9.272 66.3694 9.14933 65.9854 9.064C65.6014 8.968 65.1854 8.92 64.7374 8.92C64.0227 8.92 63.4787 9.04267 63.1054 9.288C62.732 9.53333 62.5454 9.848 62.5454 10.232C62.5454 10.456 62.5987 10.648 62.7054 10.808C62.8227 10.968 62.972 11.112 63.1534 11.24C63.3454 11.3573 63.564 11.464 63.8094 11.56C64.0547 11.6453 64.316 11.7307 64.5934 11.816C65.0414 11.9547 65.4574 12.104 65.8414 12.264C66.2254 12.424 66.5507 12.616 66.8174 12.84C67.0947 13.0533 67.308 13.3093 67.4574 13.608C67.6174 13.9067 67.6974 14.2587 67.6974 14.664C67.6974 15.4213 67.42 16.024 66.8654 16.472C66.3214 16.92 65.468 17.144 64.3054 17.144C63.708 17.144 63.1587 17.0907 62.6574 16.984C62.156 16.8667 61.7347 16.7067 61.3934 16.504L61.6974 15.56C62.0067 15.7307 62.3854 15.8693 62.8334 15.976C63.2814 16.072 63.7507 16.12 64.2414 16.12ZM70.9171 15.544C70.9171 15.8427 71.0558 15.992 71.3331 15.992H72.1971V17H71.0291C70.6131 17 70.2878 16.8773 70.0531 16.632C69.8185 16.376 69.7011 16.0453 69.7011 15.64V13.256C69.7011 12.9147 69.7758 12.6 69.9251 12.312C70.0851 12.024 70.3091 11.8107 70.5971 11.672C70.3731 11.4907 70.1491 11.304 69.9251 11.112C69.7011 10.92 69.4771 10.728 69.2531 10.536C69.3491 10.2053 69.5145 9.88 69.7491 9.56C69.9838 9.24 70.2718 8.95733 70.6131 8.712C70.9651 8.46667 71.3598 8.26933 71.7971 8.12C72.2345 7.97067 72.7038 7.896 73.2051 7.896C73.8025 7.896 74.3251 7.98133 74.7731 8.152C75.2318 8.32267 75.6158 8.56267 75.9251 8.872C76.2345 9.18133 76.4638 9.54933 76.6131 9.976C76.7731 10.392 76.8531 10.8507 76.8531 11.352V17H75.6371V11.352C75.6371 10.5627 75.4291 9.96533 75.0131 9.56C74.5971 9.144 73.9945 8.936 73.2051 8.936C72.5758 8.936 72.0211 9.08 71.5411 9.368C71.0611 9.64533 70.7251 10.008 70.5331 10.456C70.7465 10.6587 70.9598 10.856 71.1731 11.048C71.3865 11.24 71.6051 11.4373 71.8291 11.64C71.2211 11.9173 70.9171 12.3973 70.9171 13.08V15.544ZM80.6378 12.936C80.4884 12.936 80.3658 12.9893 80.2698 13.096C80.1738 13.192 80.1258 13.3307 80.1258 13.512V13.96C80.1258 15.3893 80.9524 16.104 82.6058 16.104C83.5124 16.104 84.2111 15.8213 84.7018 15.256C85.1924 14.68 85.4378 13.7627 85.4378 12.504C85.4378 11.3413 85.1871 10.456 84.6858 9.848C84.1844 9.24 83.4804 8.936 82.5738 8.936C81.9018 8.936 81.2991 9.03733 80.7658 9.24C80.2324 9.432 79.7684 9.67733 79.3738 9.976L78.9738 9.08C79.1551 8.93067 79.3738 8.78667 79.6298 8.648C79.8858 8.50933 80.1684 8.38667 80.4778 8.28C80.7871 8.16267 81.1178 8.072 81.4698 8.008C81.8324 7.93333 82.2058 7.896 82.5898 7.896C83.9124 7.896 84.9204 8.312 85.6138 9.144C86.3071 9.976 86.6538 11.1173 86.6538 12.568C86.6538 14.0613 86.3124 15.1973 85.6298 15.976C84.9578 16.7547 83.9551 17.144 82.6218 17.144C81.3738 17.144 80.4458 16.872 79.8378 16.328C79.2298 15.7733 78.9258 14.984 78.9258 13.96V13.464C78.9258 12.9413 79.0644 12.552 79.3418 12.296C79.6298 12.0293 80.0191 11.896 80.5098 11.896H81.9338V12.936H80.6378ZM85.0527 6.792V4.184H86.2367V6.792H85.0527ZM92.4928 17V11.192C92.4928 10.424 92.3274 9.85867 91.9968 9.496C91.6768 9.12267 91.1914 8.936 90.5408 8.936C90.0288 8.936 89.5434 9.032 89.0848 9.224C88.6368 9.40533 88.2581 9.61867 87.9488 9.864L87.6288 8.952C87.7888 8.824 87.9754 8.696 88.1888 8.568C88.4128 8.44 88.6528 8.328 88.9088 8.232C89.1754 8.136 89.4528 8.056 89.7408 7.992C90.0394 7.928 90.3328 7.896 90.6208 7.896C91.6554 7.896 92.4288 8.184 92.9408 8.76C93.4528 9.336 93.7088 10.1467 93.7088 11.192V17H92.4928ZM97.3855 13.832C97.3855 14.6 97.5348 15.1707 97.8335 15.544C98.1322 15.9173 98.6335 16.104 99.3375 16.104C99.6255 16.104 99.9082 16.056 100.186 15.96C100.463 15.8533 100.724 15.7147 100.97 15.544C101.215 15.3627 101.434 15.1547 101.626 14.92C101.818 14.6853 101.972 14.44 102.09 14.184V8.04H103.306V17H102.17L102.09 15.592C101.77 16.072 101.359 16.4507 100.858 16.728C100.367 17.0053 99.7695 17.144 99.0655 17.144C98.0948 17.144 97.3695 16.8667 96.8895 16.312C96.4095 15.7573 96.1695 14.936 96.1695 13.848V8.04H97.3855V13.832ZM111.267 17V12.584H108.995C108.184 12.584 107.544 12.7333 107.075 13.032C106.605 13.3307 106.371 13.816 106.371 14.488C106.371 15.0533 106.541 15.4693 106.883 15.736C107.235 16.0027 107.651 16.136 108.131 16.136C108.376 16.136 108.616 16.1147 108.851 16.072C109.096 16.0187 109.309 15.9493 109.491 15.864L109.699 16.856C109.485 16.9413 109.229 17.0107 108.931 17.064C108.632 17.1173 108.328 17.144 108.019 17.144C107.613 17.144 107.235 17.0907 106.883 16.984C106.541 16.8773 106.243 16.7173 105.987 16.504C105.731 16.28 105.528 16.0027 105.379 15.672C105.24 15.3413 105.171 14.952 105.171 14.504C105.171 13.5653 105.496 12.84 106.147 12.328C106.797 11.8053 107.789 11.544 109.123 11.544H111.267V11.256C111.267 10.5413 111.091 9.97067 110.739 9.544C110.397 9.11733 109.816 8.904 108.995 8.904C108.355 8.904 107.773 8.99467 107.251 9.176C106.739 9.35733 106.291 9.58133 105.907 9.848L105.507 8.984C105.677 8.856 105.891 8.728 106.147 8.6C106.403 8.46133 106.68 8.344 106.979 8.248C107.288 8.14133 107.613 8.056 107.955 7.992C108.296 7.928 108.643 7.896 108.995 7.896C109.357 7.896 109.688 7.93333 109.987 8.008C110.296 8.072 110.573 8.16267 110.819 8.28L111.571 7.416H112.963L111.683 8.92C112.216 9.50667 112.483 10.28 112.483 11.24V17H111.267ZM105.687 6.792V5.8H109.623V4.296H110.631V5.832H111.463V4.296H112.487V6.792H105.687ZM111.351 3.496V1.4H112.487V3.496H111.351ZM116.263 12.936C116.113 12.936 115.991 12.9893 115.895 13.096C115.799 13.192 115.751 13.3307 115.751 13.512V13.96C115.751 15.3893 116.577 16.104 118.231 16.104C119.137 16.104 119.836 15.8213 120.327 15.256C120.817 14.68 121.063 13.7627 121.063 12.504C121.063 11.3413 120.812 10.456 120.311 9.848C119.809 9.24 119.105 8.936 118.199 8.936C117.527 8.936 116.924 9.03733 116.391 9.24C115.857 9.432 115.393 9.67733 114.999 9.976L114.599 9.08C114.78 8.93067 114.999 8.78667 115.255 8.648C115.511 8.50933 115.793 8.38667 116.103 8.28C116.412 8.16267 116.743 8.072 117.095 8.008C117.457 7.93333 117.831 7.896 118.215 7.896C119.537 7.896 120.545 8.312 121.239 9.144C121.932 9.976 122.279 11.1173 122.279 12.568C122.279 14.0613 121.937 15.1973 121.255 15.976C120.583 16.7547 119.58 17.144 118.247 17.144C116.999 17.144 116.071 16.872 115.463 16.328C114.855 15.7733 114.551 14.984 114.551 13.96V13.464C114.551 12.9413 114.689 12.552 114.967 12.296C115.255 12.0293 115.644 11.896 116.135 11.896H117.559V12.936H116.263ZM124.79 17V6.232C124.79 5.592 124.902 5.02133 125.126 4.52C125.35 4.01867 125.67 3.60267 126.086 3.272H122.15V2.264H127.622V3.128C127.11 3.37333 126.71 3.736 126.422 4.216C126.144 4.68533 126.006 5.256 126.006 5.928V17H124.79ZM134.831 17V11.624C134.831 11.24 134.783 10.8827 134.687 10.552C134.591 10.2213 134.442 9.93867 134.239 9.704C134.037 9.45867 133.781 9.272 133.471 9.144C133.173 9.00533 132.815 8.936 132.399 8.936C131.898 8.936 131.455 9.02667 131.071 9.208C130.698 9.37867 130.383 9.62933 130.127 9.96C129.882 10.28 129.695 10.6693 129.567 11.128C129.439 11.576 129.375 12.0773 129.375 12.632C129.375 13.2613 129.45 13.7947 129.599 14.232C129.749 14.6587 129.941 15.0107 130.175 15.288C130.41 15.5547 130.671 15.752 130.959 15.88C131.258 15.9973 131.551 16.056 131.839 16.056C132.063 16.056 132.255 16.04 132.415 16.008C132.586 15.976 132.751 15.928 132.911 15.864L133.135 16.824C132.954 16.9093 132.746 16.9733 132.511 17.016C132.287 17.0693 132.042 17.096 131.775 17.096C131.306 17.096 130.853 17.0107 130.415 16.84C129.989 16.6587 129.605 16.3867 129.263 16.024C128.933 15.6507 128.666 15.1867 128.463 14.632C128.261 14.0667 128.159 13.4 128.159 12.632C128.159 11.9707 128.25 11.352 128.431 10.776C128.623 10.2 128.901 9.69867 129.263 9.272C129.626 8.84533 130.063 8.50933 130.575 8.264C131.098 8.01867 131.695 7.896 132.367 7.896C132.997 7.896 133.541 7.99733 133.999 8.2C134.469 8.392 134.853 8.65867 135.151 9C135.461 9.34133 135.685 9.74133 135.823 10.2C135.973 10.648 136.047 11.128 136.047 11.64V17H134.831ZM134.337 6.792C134.06 6.792 133.868 6.712 133.761 6.552C133.655 6.38133 133.601 6.168 133.601 5.912V5.592C133.601 5.47467 133.585 5.39467 133.553 5.352C133.511 5.29867 133.425 5.272 133.297 5.272H132.465V4.28H133.713C134.001 4.28 134.231 4.344 134.401 4.472C134.572 4.6 134.657 4.808 134.657 5.096V5.544C134.657 5.61867 134.673 5.68267 134.705 5.736C134.737 5.77867 134.812 5.8 134.929 5.8H137.153V6.792H134.337ZM144.769 13.88C144.908 14.1467 145.025 14.424 145.121 14.712C145.228 15 145.329 15.3093 145.425 15.64H145.441C145.388 15.2453 145.351 14.856 145.329 14.472C145.319 14.088 145.313 13.6773 145.313 13.24V8.04H146.497V17H145.185L143.041 12.76C142.924 12.5147 142.823 12.2747 142.737 12.04C142.652 11.7947 142.593 11.6133 142.561 11.496H142.529C142.508 11.6133 142.455 11.7947 142.369 12.04C142.284 12.2747 142.177 12.5147 142.049 12.76L139.857 17H138.545V9.4C138.545 8.99467 138.663 8.664 138.897 8.408C139.143 8.152 139.473 8.02933 139.889 8.04H140.881V9.08H140.177C139.879 9.08 139.729 9.22933 139.729 9.528V13.24C139.729 13.6773 139.719 14.088 139.697 14.472C139.676 14.856 139.639 15.2453 139.585 15.64H139.617C139.703 15.3627 139.799 15.064 139.905 14.744C140.012 14.424 140.14 14.1307 140.289 13.864L142.065 10.552H143.041L144.769 13.88ZM145.35 6.792V4.184H146.534V6.792H145.35ZM152.79 17V11.192C152.79 10.424 152.624 9.85867 152.294 9.496C151.974 9.12267 151.488 8.936 150.838 8.936C150.326 8.936 149.84 9.032 149.382 9.224C148.934 9.40533 148.555 9.61867 148.246 9.864L147.926 8.952C148.086 8.824 148.272 8.696 148.486 8.568C148.71 8.44 148.95 8.328 149.206 8.232C149.472 8.136 149.75 8.056 150.038 7.992C150.336 7.928 150.63 7.896 150.918 7.896C151.952 7.896 152.726 8.184 153.238 8.76C153.75 9.336 154.006 10.1467 154.006 11.192V17H152.79ZM157.682 13.832C157.682 14.6 157.832 15.1707 158.13 15.544C158.429 15.9173 158.93 16.104 159.634 16.104C159.922 16.104 160.205 16.056 160.482 15.96C160.76 15.8533 161.021 15.7147 161.266 15.544C161.512 15.3627 161.73 15.1547 161.922 14.92C162.114 14.6853 162.269 14.44 162.386 14.184V8.04H163.602V17H162.466L162.386 15.592C162.066 16.072 161.656 16.4507 161.154 16.728C160.664 17.0053 160.066 17.144 159.362 17.144C158.392 17.144 157.666 16.8667 157.186 16.312C156.706 15.7573 156.466 14.936 156.466 13.848V8.04H157.682V13.832ZM166.139 17V8.04H167.323V17H166.139ZM169.275 17V8.04H170.459V17H169.275ZM174.278 12.936C174.129 12.936 174.006 12.9893 173.91 13.096C173.814 13.192 173.766 13.3307 173.766 13.512V13.96C173.766 15.3893 174.593 16.104 176.246 16.104C177.153 16.104 177.852 15.8213 178.342 15.256C178.833 14.68 179.078 13.7627 179.078 12.504C179.078 11.3413 178.828 10.456 178.326 9.848C177.825 9.24 177.121 8.936 176.214 8.936C175.542 8.936 174.94 9.03733 174.406 9.24C173.873 9.432 173.409 9.67733 173.014 9.976L172.614 9.08C172.796 8.93067 173.014 8.78667 173.27 8.648C173.526 8.50933 173.809 8.38667 174.118 8.28C174.428 8.16267 174.758 8.072 175.11 8.008C175.473 7.93333 175.846 7.896 176.23 7.896C177.553 7.896 178.561 8.312 179.254 9.144C179.948 9.976 180.294 11.1173 180.294 12.568C180.294 14.0613 179.953 15.1973 179.27 15.976C178.598 16.7547 177.596 17.144 176.262 17.144C175.014 17.144 174.086 16.872 173.478 16.328C172.87 15.7733 172.566 14.984 172.566 13.96V13.464C172.566 12.9413 172.705 12.552 172.982 12.296C173.27 12.0293 173.66 11.896 174.15 11.896H175.574V12.936H174.278ZM187.221 8.488L188.837 13.416C188.933 13.7147 189.024 14.0453 189.109 14.408C189.195 14.7707 189.275 15.2133 189.349 15.736H189.381C189.403 15.2027 189.435 14.76 189.477 14.408C189.52 14.0453 189.568 13.7093 189.621 13.4L190.469 8.04H191.701L190.229 17H188.885L187.125 11.752C187.029 11.4747 186.944 11.144 186.869 10.76C186.805 10.376 186.757 10.0293 186.725 9.72H186.693C186.661 10.0293 186.608 10.376 186.533 10.76C186.469 11.144 186.389 11.4747 186.293 11.752L184.533 17H183.189C182.944 15.496 182.699 14.0027 182.453 12.52C182.208 11.0373 181.963 9.544 181.717 8.04H182.949L183.797 13.4C183.851 13.7093 183.899 14.0453 183.941 14.408C183.984 14.76 184.016 15.2027 184.037 15.736H184.069C184.144 15.2133 184.224 14.7707 184.309 14.408C184.395 14.0453 184.485 13.7147 184.581 13.416L186.197 8.488H187.221ZM198.425 8.488L200.041 13.416C200.137 13.7147 200.227 14.0453 200.312 14.408C200.398 14.7707 200.478 15.2133 200.553 15.736H200.585C200.606 15.2027 200.638 14.76 200.681 14.408C200.723 14.0453 200.771 13.7093 200.825 13.4L201.673 8.04H202.905L201.433 17H200.089L198.329 11.752C198.233 11.4747 198.147 11.144 198.073 10.76C198.009 10.376 197.961 10.0293 197.929 9.72H197.897C197.865 10.0293 197.811 10.376 197.737 10.76C197.673 11.144 197.593 11.4747 197.497 11.752L195.737 17H194.393C194.147 15.496 193.902 14.0027 193.657 12.52C193.411 11.0373 193.166 9.544 192.921 8.04H194.153L195.001 13.4C195.054 13.7093 195.102 14.0453 195.145 14.408C195.187 14.76 195.219 15.2027 195.241 15.736H195.273C195.347 15.2133 195.427 14.7707 195.513 14.408C195.598 14.0453 195.689 13.7147 195.785 13.416L197.401 8.488H198.425ZM210.22 17V12.584H207.948C207.137 12.584 206.497 12.7333 206.028 13.032C205.558 13.3307 205.324 13.816 205.324 14.488C205.324 15.0533 205.494 15.4693 205.836 15.736C206.188 16.0027 206.604 16.136 207.084 16.136C207.329 16.136 207.569 16.1147 207.804 16.072C208.049 16.0187 208.262 15.9493 208.444 15.864L208.652 16.856C208.438 16.9413 208.182 17.0107 207.884 17.064C207.585 17.1173 207.281 17.144 206.972 17.144C206.566 17.144 206.188 17.0907 205.836 16.984C205.494 16.8773 205.196 16.7173 204.94 16.504C204.684 16.28 204.481 16.0027 204.332 15.672C204.193 15.3413 204.124 14.952 204.124 14.504C204.124 13.5653 204.449 12.84 205.1 12.328C205.75 11.8053 206.742 11.544 208.076 11.544H210.22V11.256C210.22 10.5093 210.044 9.93333 209.692 9.528C209.35 9.112 208.758 8.904 207.916 8.904C207.297 8.904 206.726 8.99467 206.204 9.176C205.692 9.35733 205.244 9.58133 204.86 9.848L204.46 8.984C204.63 8.856 204.838 8.728 205.084 8.6C205.329 8.472 205.601 8.35467 205.9 8.248C206.209 8.14133 206.54 8.056 206.892 7.992C207.244 7.928 207.612 7.896 207.996 7.896C209.116 7.896 209.969 8.19467 210.556 8.792C211.142 9.38933 211.436 10.2053 211.436 11.24V17H210.22ZM204.64 6.792V5.8H211.44V6.792H204.64ZM213.952 17V8.04H215.168V17H213.952ZM221.381 7.896C221.978 7.896 222.506 7.98667 222.965 8.168C223.434 8.33867 223.824 8.57867 224.133 8.888C224.453 9.19733 224.693 9.56 224.853 9.976C225.013 10.392 225.093 10.84 225.093 11.32V17H223.877V11.304C223.877 10.6 223.669 10.0293 223.253 9.592C222.837 9.15467 222.213 8.936 221.381 8.936C220.549 8.936 219.925 9.15467 219.509 9.592C219.104 10.0293 218.901 10.6 218.901 11.304V13.336C219.05 13.0053 219.285 12.728 219.605 12.504C219.925 12.2693 220.32 12.152 220.789 12.152H221.893V13.224H220.789C220.33 13.224 219.936 13.3573 219.605 13.624C219.285 13.88 219.05 14.2587 218.901 14.76V17H217.685V11.32C217.685 10.84 217.765 10.392 217.925 9.976C218.085 9.56 218.32 9.19733 218.629 8.888C218.949 8.57867 219.338 8.33867 219.797 8.168C220.256 7.98667 220.784 7.896 221.381 7.896ZM233.944 13.976C233.944 15.0213 233.683 15.8107 233.16 16.344C232.637 16.8773 231.811 17.144 230.68 17.144C229.549 17.144 228.717 16.8667 228.184 16.312C227.661 15.7573 227.4 15.0267 227.4 14.12V12.888C227.4 12.5787 227.485 12.2907 227.656 12.024C227.827 11.7467 228.008 11.4907 228.2 11.256C228.403 11.0107 228.589 10.7813 228.76 10.568C228.931 10.344 229.016 10.12 229.016 9.896V9.496C229.016 9.21867 228.872 9.08 228.584 9.08H227.496V8.04H228.712C229.245 8.04 229.619 8.16267 229.832 8.408C230.056 8.65333 230.168 8.98933 230.168 9.416V9.88C230.168 10.1787 230.083 10.4613 229.912 10.728C229.752 10.984 229.571 11.2347 229.368 11.48C229.176 11.7147 228.995 11.9493 228.824 12.184C228.664 12.408 228.584 12.6427 228.584 12.888V14.12C228.584 14.7813 228.749 15.2827 229.08 15.624C229.411 15.9547 229.944 16.12 230.68 16.12C231.021 16.12 231.32 16.088 231.576 16.024C231.832 15.9493 232.04 15.832 232.2 15.672C232.371 15.5013 232.499 15.2827 232.584 15.016C232.669 14.7387 232.712 14.3973 232.712 13.992V12.328C232.712 11.8693 232.611 11.5333 232.408 11.32C232.205 11.1067 231.944 11 231.624 11H231.304L231.128 10.488L232.872 8.04H234.2L232.408 10.376C232.856 10.4507 233.224 10.664 233.512 11.016C233.8 11.368 233.944 11.8 233.944 12.312V13.976ZM232.164 6.792C231.151 6.792 230.644 6.33867 230.644 5.432V4.808H231.796V5.288C231.796 5.62933 231.967 5.8 232.308 5.8H236.132V6.792H232.164ZM232.804 3.496V1.4H233.94V3.496H232.804ZM237.62 13.832C237.62 14.6 237.769 15.1707 238.068 15.544C238.367 15.9173 238.868 16.104 239.572 16.104C239.86 16.104 240.143 16.056 240.42 15.96C240.697 15.8533 240.959 15.7147 241.204 15.544C241.449 15.3627 241.668 15.1547 241.86 14.92C242.052 14.6853 242.207 14.44 242.324 14.184V8.04H243.54V17H242.404L242.324 15.592C242.004 16.072 241.593 16.4507 241.092 16.728C240.601 17.0053 240.004 17.144 239.3 17.144C238.329 17.144 237.604 16.8667 237.124 16.312C236.644 15.7573 236.404 14.936 236.404 13.848V8.04H237.62V13.832Z" fill="white"/>
<path d="M0 37.8501C0 34.5364 2.68629 31.8501 6 31.8501H117.758C121.071 31.8501 123.758 34.5364 123.758 37.8501V62.575C123.758 65.8887 121.071 68.575 117.758 68.575H5.99999C2.68629 68.575 0 65.8887 0 62.575V37.8501Z" fill="black"/>
<path d="M62.4619 51.8203C60.3057 51.8203 58.5484 53.4628 58.5484 55.7251C58.5484 57.9736 60.3057 59.6299 62.4619 59.6299C64.6189 59.6299 66.3763 57.9736 66.3763 55.7251C66.3754 53.4628 64.618 51.8203 62.4619 51.8203ZM62.4619 58.0929C61.2802 58.0929 60.2617 57.117 60.2617 55.726C60.2617 54.3204 61.2811 53.3591 62.4619 53.3591C63.6435 53.3591 64.662 54.3204 64.662 55.726C64.662 57.116 63.6435 58.0929 62.4619 58.0929ZM53.9235 51.8203C51.7674 51.8203 50.01 53.4628 50.01 55.7251C50.01 57.9736 51.7674 59.6299 53.9235 59.6299C56.0806 59.6299 57.8379 57.9736 57.8379 55.7251C57.8379 53.4628 56.0806 51.8203 53.9235 51.8203ZM53.9235 58.0929C52.7418 58.0929 51.7234 57.117 51.7234 55.726C51.7234 54.3204 52.7428 53.3591 53.9235 53.3591C55.1052 53.3591 56.1236 54.3204 56.1236 55.726C56.1246 57.116 55.1052 58.0929 53.9235 58.0929ZM43.768 53.0194V54.6757H47.7264C47.6082 55.6076 47.2983 56.2879 46.8253 56.7607C46.2496 57.3373 45.3485 57.9736 43.768 57.9736C41.3314 57.9736 39.4264 56.006 39.4264 53.5657C39.4264 51.1253 41.3314 49.1578 43.768 49.1578C45.0826 49.1578 46.0424 49.6756 46.7511 50.3412L47.918 49.1724C46.928 48.2259 45.6143 47.5015 43.768 47.5015C40.4302 47.5015 37.6241 50.2228 37.6241 53.5657C37.6241 56.9085 40.4302 59.6299 43.768 59.6299C45.5694 59.6299 46.9289 59.0377 47.9914 57.9286C49.0841 56.8342 49.4242 55.2954 49.4242 54.0532C49.4242 53.6694 49.3949 53.3141 49.3353 53.0185H43.768V53.0194ZM85.303 54.3057C84.9784 53.4334 83.9884 51.8203 81.9652 51.8203C79.9566 51.8203 78.2873 53.4032 78.2873 55.7251C78.2873 57.9139 79.942 59.6299 82.1568 59.6299C83.9435 59.6299 84.9775 58.5355 85.4066 57.8992L84.0773 57.0114C83.6345 57.6623 83.0286 58.0911 82.1568 58.0911C81.2859 58.0911 80.6653 57.6917 80.2665 56.9076L85.4799 54.7482L85.303 54.3057ZM79.986 55.6076C79.942 54.0982 81.153 53.3297 82.0248 53.3297C82.7041 53.3297 83.2798 53.6703 83.4723 54.1578L79.986 55.6076ZM75.7479 59.3939H77.4604V47.9165H75.7479V59.3939ZM72.9409 52.6934H72.8823C72.4982 52.2344 71.7593 51.8203 70.8297 51.8203C68.8799 51.8203 67.0932 53.5363 67.0932 55.7407C67.0932 57.9295 68.8799 59.6308 70.8297 59.6308C71.7602 59.6308 72.4982 59.2167 72.8823 58.7439H72.9409V59.3058C72.9409 60.7995 72.1434 61.5983 70.8591 61.5983C69.8103 61.5983 69.1604 60.8445 68.8945 60.2083L67.403 60.8298C67.8311 61.8646 68.9679 63.1371 70.8591 63.1371C72.8676 63.1371 74.5663 61.9536 74.5663 59.0689V52.0581H72.9419V52.6934H72.9409ZM70.9773 58.0929C69.7957 58.0929 68.8065 57.1013 68.8065 55.7407C68.8065 54.3644 69.7957 53.3591 70.9773 53.3591C72.1434 53.3591 73.0592 54.3644 73.0592 55.7407C73.0592 57.1013 72.1434 58.0929 70.9773 58.0929ZM93.328 47.9165H89.2293V59.3939H90.939V55.0457H93.3271C95.2228 55.0457 97.0875 53.6712 97.0875 51.4815C97.0875 49.2918 95.2238 47.9165 93.328 47.9165ZM93.372 53.4481H90.939V49.514H93.372C94.6508 49.514 95.3768 50.5744 95.3768 51.4815C95.3768 52.3703 94.6508 53.4481 93.372 53.4481ZM103.944 51.8001C102.705 51.8001 101.423 52.3464 100.892 53.5574L102.41 54.1918C102.734 53.5574 103.34 53.3499 103.973 53.3499C104.858 53.3499 105.757 53.8815 105.772 54.8262V54.9447C105.462 54.7675 104.798 54.5021 103.988 54.5021C102.351 54.5021 100.685 55.4028 100.685 57.0857C100.685 58.6218 102.027 59.6106 103.53 59.6106C104.68 59.6106 105.314 59.0937 105.712 58.4877H105.771V59.3737H107.423V54.9731C107.424 52.9367 105.904 51.8001 103.944 51.8001ZM103.736 58.0902C103.177 58.0902 102.395 57.8092 102.395 57.1151C102.395 56.2291 103.369 55.8894 104.209 55.8894C104.96 55.8894 105.315 56.0519 105.772 56.2732C105.639 57.3373 104.725 58.0902 103.736 58.0902ZM113.438 52.0508L111.477 57.027H111.419L109.383 52.0508H107.541L110.593 59.0055L108.853 62.8745H110.637L115.34 52.0508H113.438ZM98.0317 59.3939H99.7414V47.9165H98.0317V59.3939Z" fill="white"/>
<path d="M43.4693 41.2543C43.4693 42.0237 43.2419 42.6361 42.7863 43.0933C42.2693 43.6368 41.5946 43.9086 40.7659 43.9086C39.972 43.9086 39.2964 43.6332 38.7417 43.0823C38.1862 42.5305 37.9084 41.8474 37.9084 41.0321C37.9084 40.2159 38.1862 39.5328 38.7417 38.982C39.2964 38.4302 39.972 38.1547 40.7659 38.1547C41.1601 38.1547 41.5368 38.2319 41.8944 38.3852C42.2528 38.5394 42.5397 38.7442 42.7543 39.0003L42.2711 39.4851C41.9072 39.049 41.4057 38.8314 40.765 38.8314C40.1856 38.8314 39.6851 39.0352 39.2624 39.4429C38.8398 39.8505 38.629 40.3803 38.629 41.0312C38.629 41.6822 38.8398 42.2119 39.2624 42.6196C39.6851 43.0272 40.1856 43.231 40.765 43.231C41.3792 43.231 41.8916 43.0263 42.3014 42.6159C42.5672 42.3487 42.7212 41.9769 42.7625 41.5004H40.765V40.8384H43.4299C43.4574 40.9826 43.4693 41.1212 43.4693 41.2543Z" fill="white"/>
<path d="M47.6955 38.9536H45.191V40.6998H47.4498V41.3618H45.191V43.1081H47.6955V43.7856H44.4842V38.2769H47.6955V38.9536Z" fill="white"/>
<path d="M50.6756 43.7856H49.9689V38.9536H48.4324V38.2769H52.2121V38.9536H50.6756V43.7856Z" fill="white"/>
<path d="M54.9466 43.7856V38.2769H55.6534V43.7856H54.9466Z" fill="white"/>
<path d="M58.7878 43.7856H58.0811V38.9536H56.5446V38.2769H60.3243V38.9536H58.7878V43.7856Z" fill="white"/>
<path d="M67.4791 43.0741C66.9382 43.6305 66.2663 43.9087 65.4623 43.9087C64.6583 43.9087 63.9864 43.6305 63.4464 43.0741C62.9056 42.5177 62.636 41.8365 62.636 41.0313C62.636 40.2261 62.9056 39.5448 63.4464 38.9884C63.9864 38.4321 64.6583 38.153 65.4623 38.153C66.2617 38.153 66.9327 38.433 67.4754 38.9921C68.0181 39.5513 68.2895 40.2307 68.2895 41.0313C68.2895 41.8365 68.0191 42.5177 67.4791 43.0741ZM63.968 42.6123C64.3751 43.0254 64.8729 43.2311 65.4623 43.2311C66.0518 43.2311 66.5505 43.0245 66.9566 42.6123C67.3636 42.1991 67.568 41.6721 67.568 41.0313C67.568 40.3904 67.3636 39.8634 66.9566 39.4503C66.5505 39.0371 66.0518 38.8314 65.4623 38.8314C64.8729 38.8314 64.3751 39.038 63.968 39.4503C63.5619 39.8634 63.3575 40.3904 63.3575 41.0313C63.3575 41.6721 63.5619 42.1991 63.968 42.6123Z" fill="white"/>
<path d="M69.2814 43.7856V38.2769H70.1413L72.8145 42.5618H72.8447L72.8145 41.5004V38.2769H73.5212V43.7856H72.7833L69.9864 39.2924H69.9561L69.9864 40.3537V43.7856H69.2814Z" fill="white"/>
<path d="M43.4693 41.2543C43.4693 42.0237 43.2419 42.6361 42.7863 43.0933C42.2693 43.6368 41.5946 43.9086 40.7659 43.9086C39.972 43.9086 39.2964 43.6332 38.7417 43.0823C38.1862 42.5305 37.9084 41.8474 37.9084 41.0321C37.9084 40.2159 38.1862 39.5328 38.7417 38.982C39.2964 38.4302 39.972 38.1547 40.7659 38.1547C41.1601 38.1547 41.5368 38.2319 41.8944 38.3852C42.2528 38.5394 42.5397 38.7442 42.7543 39.0003L42.2711 39.4851C41.9072 39.049 41.4057 38.8314 40.765 38.8314C40.1856 38.8314 39.6851 39.0352 39.2624 39.4429C38.8398 39.8505 38.629 40.3803 38.629 41.0312C38.629 41.6822 38.8398 42.2119 39.2624 42.6196C39.6851 43.0272 40.1856 43.231 40.765 43.231C41.3792 43.231 41.8916 43.0263 42.3014 42.6159C42.5672 42.3487 42.7212 41.9769 42.7625 41.5004H40.765V40.8384H43.4299C43.4574 40.9826 43.4693 41.1212 43.4693 41.2543Z" stroke="white" stroke-width="0.145" stroke-miterlimit="10"/>
<path d="M47.6955 38.9536H45.191V40.6998H47.4498V41.3618H45.191V43.1081H47.6955V43.7856H44.4842V38.2769H47.6955V38.9536Z" stroke="white" stroke-width="0.145" stroke-miterlimit="10"/>
<path d="M50.6756 43.7856H49.9689V38.9536H48.4324V38.2769H52.2121V38.9536H50.6756V43.7856Z" stroke="white" stroke-width="0.145" stroke-miterlimit="10"/>
<path d="M54.9466 43.7856V38.2769H55.6534V43.7856H54.9466Z" stroke="white" stroke-width="0.145" stroke-miterlimit="10"/>
<path d="M58.7878 43.7856H58.0811V38.9536H56.5446V38.2769H60.3243V38.9536H58.7878V43.7856Z" stroke="white" stroke-width="0.145" stroke-miterlimit="10"/>
<path d="M67.4791 43.0741C66.9382 43.6305 66.2663 43.9087 65.4623 43.9087C64.6583 43.9087 63.9864 43.6305 63.4464 43.0741C62.9056 42.5177 62.636 41.8365 62.636 41.0313C62.636 40.2261 62.9056 39.5448 63.4464 38.9884C63.9864 38.4321 64.6583 38.153 65.4623 38.153C66.2617 38.153 66.9327 38.433 67.4754 38.9921C68.0181 39.5513 68.2895 40.2307 68.2895 41.0313C68.2895 41.8365 68.0191 42.5177 67.4791 43.0741ZM63.968 42.6123C64.3751 43.0254 64.8729 43.2311 65.4623 43.2311C66.0518 43.2311 66.5505 43.0245 66.9566 42.6123C67.3636 42.1991 67.568 41.6721 67.568 41.0313C67.568 40.3904 67.3636 39.8634 66.9566 39.4503C66.5505 39.0371 66.0518 38.8314 65.4623 38.8314C64.8729 38.8314 64.3751 39.038 63.968 39.4503C63.5619 39.8634 63.3575 40.3904 63.3575 41.0313C63.3575 41.6721 63.5619 42.1991 63.968 42.6123Z" stroke="white" stroke-width="0.145" stroke-miterlimit="10"/>
<path d="M69.2814 43.7856V38.2769H70.1413L72.8145 42.5618H72.8447L72.8145 41.5004V38.2769H73.5212V43.7856H72.7833L69.9864 39.2924H69.9561L69.9864 40.3537V43.7856H69.2814Z" stroke="white" stroke-width="0.145" stroke-miterlimit="10"/>
<g filter="url(#filter0_ii_114_5157)">
<path d="M9.5669 38.7706C9.30013 39.0534 9.14246 39.4923 9.14246 40.0606V60.3658C9.14246 60.935 9.30013 61.373 9.5669 61.6557L9.63474 61.7218L20.992 50.3472V50.2132V50.0791L9.63474 38.7036L9.5669 38.7706Z" fill="url(#paint0_linear_114_5157)"/>
<path d="M24.7772 54.14L20.9921 50.3473V50.2132V50.0792L24.7781 46.2874L24.8634 46.336L29.3489 48.8884C30.6296 49.6174 30.6296 50.81 29.3489 51.5399L24.8634 54.0923L24.7772 54.14Z" fill="url(#paint1_linear_114_5157)"/>
<g filter="url(#filter1_i_114_5157)">
<path d="M24.8634 54.0914L20.9911 50.2133L9.5669 61.6558C9.98859 62.1039 10.6862 62.1589 11.4718 61.7127L24.8634 54.0914Z" fill="url(#paint2_linear_114_5157)"/>
</g>
<path d="M24.8634 46.3351L11.4718 38.7147C10.6862 38.2676 9.98859 38.3236 9.5669 38.7716L20.992 50.2142L24.8634 46.3351Z" fill="url(#paint3_linear_114_5157)"/>
</g>
<path d="M134.825 40.8501C134.825 38.0544 134.825 36.6566 135.282 35.554C135.891 34.0838 137.059 32.9158 138.529 32.3068C139.632 31.8501 141.03 31.8501 143.825 31.8501H236C238.796 31.8501 240.193 31.8501 241.296 32.3068C242.766 32.9158 243.934 34.0838 244.543 35.554C245 36.6566 245 38.0544 245 40.8501V59.575C245 62.3706 245 63.7684 244.543 64.8711C243.934 66.3412 242.766 67.5093 241.296 68.1182C240.193 68.575 238.796 68.575 236 68.575H143.825C141.03 68.575 139.632 68.575 138.529 68.1182C137.059 67.5093 135.891 66.3412 135.282 64.8711C134.825 63.7684 134.825 62.3706 134.825 59.575V40.8501Z" fill="#0C0D10"/>
<path d="M209.676 49.4789V51.5824H208.358V52.9618H209.676V57.6488C209.676 59.2492 210.4 59.8894 212.221 59.8894C212.542 59.8894 212.846 59.8513 213.113 59.8055V58.4414C212.885 58.4642 212.74 58.4795 212.488 58.4795C211.673 58.4795 211.315 58.0984 211.315 57.2296V52.9618H213.113V51.5824H211.315V49.4789H209.676Z" fill="white"/>
<path d="M217.753 60.0037C220.177 60.0037 221.663 58.3804 221.663 55.6901C221.663 53.0151 220.169 51.3842 217.753 51.3842C215.33 51.3842 213.836 53.0151 213.836 55.6901C213.836 58.3804 215.322 60.0037 217.753 60.0037ZM217.753 58.5481C216.328 58.5481 215.528 57.504 215.528 55.6901C215.528 53.8916 216.328 52.8398 217.753 52.8398C219.171 52.8398 219.979 53.8916 219.979 55.6901C219.979 57.4963 219.171 58.5481 217.753 58.5481Z" fill="white"/>
<path d="M222.934 59.8437H224.573V54.9433C224.573 53.7772 225.449 52.9923 226.692 52.9923C226.981 52.9923 227.469 53.0456 227.606 53.0913V51.4757C227.431 51.4299 227.118 51.4071 226.874 51.4071C225.792 51.4071 224.87 52.0015 224.634 52.817H224.512V51.5442H222.934V59.8437Z" fill="white"/>
<path d="M231.675 52.7789C232.886 52.7789 233.679 53.6248 233.717 54.928H229.525C229.617 53.6324 230.463 52.7789 231.675 52.7789ZM233.709 57.603C233.405 58.2508 232.726 58.609 231.736 58.609C230.425 58.609 229.579 57.6869 229.525 56.2312V56.1398H235.386V55.5682C235.386 52.9618 233.991 51.3842 231.682 51.3842C229.342 51.3842 227.856 53.0685 227.856 55.7206C227.856 58.3728 229.312 60.0037 231.69 60.0037C233.587 60.0037 234.914 59.0892 235.287 57.603H233.709Z" fill="white"/>
<path d="M198.931 56.7788C199.057 58.8168 200.755 60.1201 203.283 60.1201C205.985 60.1201 207.675 58.7536 207.675 56.5734C207.675 54.8593 206.711 53.9114 204.373 53.3664L203.117 53.0583C201.632 52.7108 201.032 52.2447 201.032 51.4311C201.032 50.4043 201.964 49.7328 203.362 49.7328C204.689 49.7328 205.605 50.3885 205.771 51.439H207.493C207.391 49.5196 205.7 48.1688 203.386 48.1688C200.898 48.1688 199.239 49.5196 199.239 51.5496C199.239 53.2242 200.179 54.2195 202.24 54.7014L203.71 55.0568C205.218 55.4123 205.882 55.9336 205.882 56.8025C205.882 57.8136 204.839 58.5482 203.417 58.5482C201.893 58.5482 200.834 57.861 200.684 56.7788H198.931Z" fill="white"/>
<path d="M181.957 51.4071C180.829 51.4071 179.854 51.971 179.351 52.916H179.229V51.5442H177.651V62.6025H179.29V58.5862H179.419C179.854 59.4626 180.791 59.9808 181.972 59.9808C184.068 59.9808 185.402 58.327 185.402 55.6901C185.402 53.0532 184.068 51.4071 181.957 51.4071ZM181.492 58.51C180.12 58.51 179.259 57.4278 179.259 55.6978C179.259 53.9601 180.12 52.8779 181.5 52.8779C182.887 52.8779 183.718 53.9373 183.718 55.6901C183.718 57.4506 182.887 58.51 181.492 58.51Z" fill="white"/>
<path d="M191.135 51.4071C190.007 51.4071 189.032 51.971 188.529 52.916H188.407V51.5442H186.829V62.6025H188.468V58.5862H188.598C189.032 59.4626 189.969 59.9808 191.151 59.9808C193.246 59.9808 194.58 58.327 194.58 55.6901C194.58 53.0532 193.246 51.4071 191.135 51.4071ZM190.67 58.51C189.299 58.51 188.437 57.4278 188.437 55.6978C188.437 53.9601 189.299 52.8779 190.678 52.8779C192.065 52.8779 192.896 53.9373 192.896 55.6901C192.896 57.4506 192.065 58.51 190.67 58.51Z" fill="white"/>
<path d="M174.711 59.8437H176.591L172.476 48.4453H170.572L166.457 59.8437H168.274L169.324 56.8183H173.669L174.711 59.8437ZM171.433 50.5148H171.567L173.218 55.3333H169.774L171.433 50.5148Z" fill="white"/>
<path d="M167.557 39.8478V45.3465H169.543C171.181 45.3465 172.13 44.3367 172.13 42.58C172.13 40.85 171.174 39.8478 169.543 39.8478H167.557ZM168.411 40.6252H169.447C170.587 40.6252 171.261 41.3492 171.261 42.5914C171.261 43.8527 170.598 44.5691 169.447 44.5691H168.411V40.6252Z" fill="white"/>
<path d="M175.036 45.4265C176.248 45.4265 176.991 44.6148 176.991 43.2697C176.991 41.9322 176.244 41.1167 175.036 41.1167C173.824 41.1167 173.077 41.9322 173.077 43.2697C173.077 44.6148 173.82 45.4265 175.036 45.4265ZM175.036 44.6987C174.323 44.6987 173.923 44.1766 173.923 43.2697C173.923 42.3704 174.323 41.8446 175.036 41.8446C175.745 41.8446 176.149 42.3704 176.149 43.2697C176.149 44.1728 175.745 44.6987 175.036 44.6987Z" fill="white"/>
<path d="M183.319 41.1968H182.499L181.76 44.3633H181.695L180.842 41.1968H180.057L179.203 44.3633H179.142L178.399 41.1968H177.568L178.712 45.3465H179.554L180.407 42.2904H180.472L181.33 45.3465H182.179L183.319 41.1968Z" fill="white"/>
<path d="M184.262 45.3465H185.081V42.9191C185.081 42.2713 185.466 41.8674 186.072 41.8674C186.678 41.8674 186.968 42.1989 186.968 42.8658V45.3465H187.787V42.66C187.787 41.6731 187.276 41.1167 186.35 41.1167C185.725 41.1167 185.314 41.3949 185.112 41.856H185.051V41.1968H184.262V45.3465Z" fill="white"/>
<path d="M189.077 45.3465H189.896V39.5773H189.077V45.3465Z" fill="white"/>
<path d="M192.978 45.4265C194.189 45.4265 194.932 44.6148 194.932 43.2697C194.932 41.9322 194.186 41.1167 192.978 41.1167C191.766 41.1167 191.019 41.9322 191.019 43.2697C191.019 44.6148 191.762 45.4265 192.978 45.4265ZM192.978 44.6987C192.265 44.6987 191.865 44.1766 191.865 43.2697C191.865 42.3704 192.265 41.8446 192.978 41.8446C193.686 41.8446 194.09 42.3704 194.09 43.2697C194.09 44.1728 193.686 44.6987 192.978 44.6987Z" fill="white"/>
<path d="M197.373 44.7253C196.928 44.7253 196.604 44.5081 196.604 44.1347C196.604 43.7689 196.863 43.5746 197.434 43.5364L198.448 43.4717V43.8184C198.448 44.3329 197.991 44.7253 197.373 44.7253ZM197.164 45.4151C197.709 45.4151 198.162 45.1788 198.41 44.7634H198.475V45.3465H199.264V42.5114C199.264 41.635 198.677 41.1167 197.636 41.1167C196.695 41.1167 196.025 41.574 195.941 42.2866H196.733C196.825 41.9932 197.141 41.8255 197.598 41.8255C198.158 41.8255 198.448 42.0732 198.448 42.5114V42.8696L197.324 42.9344C196.337 42.9953 195.781 43.4259 195.781 44.1728C195.781 44.9311 196.364 45.4151 197.164 45.4151Z" fill="white"/>
<path d="M202.044 45.4151C202.615 45.4151 203.099 45.1445 203.347 44.691H203.412V45.3465H204.197V39.5773H203.377V41.856H203.316C203.092 41.3987 202.611 41.1282 202.044 41.1282C200.996 41.1282 200.321 41.9589 200.321 43.2697C200.321 44.5844 200.988 45.4151 202.044 45.4151ZM202.276 41.8636C202.962 41.8636 203.393 42.4085 203.393 43.2735C203.393 44.1423 202.966 44.6796 202.276 44.6796C201.583 44.6796 201.167 44.1499 201.167 43.2697C201.167 42.3971 201.586 41.8636 202.276 41.8636Z" fill="white"/>
<path d="M209.509 45.4265C210.721 45.4265 211.464 44.6148 211.464 43.2697C211.464 41.9322 210.717 41.1167 209.509 41.1167C208.298 41.1167 207.551 41.9322 207.551 43.2697C207.551 44.6148 208.294 45.4265 209.509 45.4265ZM209.509 44.6987C208.797 44.6987 208.397 44.1766 208.397 43.2697C208.397 42.3704 208.797 41.8446 209.509 41.8446C210.218 41.8446 210.622 42.3704 210.622 43.2697C210.622 44.1728 210.218 44.6987 209.509 44.6987Z" fill="white"/>
<path d="M212.549 45.3465H213.368V42.9191C213.368 42.2713 213.753 41.8674 214.359 41.8674C214.965 41.8674 215.254 42.1989 215.254 42.8658V45.3465H216.073V42.66C216.073 41.6731 215.563 41.1167 214.637 41.1167C214.012 41.1167 213.6 41.3949 213.398 41.856H213.337V41.1968H212.549V45.3465Z" fill="white"/>
<path d="M219.847 40.1641V41.2158H219.187V41.9055H219.847V44.249C219.847 45.0492 220.209 45.3693 221.119 45.3693C221.279 45.3693 221.432 45.3503 221.565 45.3274V44.6453C221.451 44.6568 221.379 44.6644 221.253 44.6644C220.845 44.6644 220.666 44.4738 220.666 44.0394V41.9055H221.565V41.2158H220.666V40.1641H219.847Z" fill="white"/>
<path d="M222.665 45.3465H223.484V42.9229C223.484 42.2942 223.858 41.8712 224.528 41.8712C225.108 41.8712 225.416 42.2066 225.416 42.8696V45.3465H226.235V42.6676C226.235 41.6807 225.691 41.1205 224.807 41.1205C224.182 41.1205 223.743 41.3987 223.541 41.8636H223.477V39.5773H222.665V45.3465Z" fill="white"/>
<path d="M229.191 41.8141C229.797 41.8141 230.193 42.237 230.212 42.8886H228.116C228.162 42.2409 228.585 41.8141 229.191 41.8141ZM230.208 44.2262C230.056 44.5501 229.717 44.7292 229.221 44.7292C228.566 44.7292 228.143 44.2681 228.116 43.5403V43.4945H231.047V43.2087C231.047 41.9055 230.349 41.1167 229.195 41.1167C228.025 41.1167 227.282 41.9589 227.282 43.2849C227.282 44.611 228.01 45.4265 229.199 45.4265C230.147 45.4265 230.81 44.9692 230.997 44.2262H230.208Z" fill="white"/>
<path d="M157.566 50.4887C157.586 48.9454 158.415 47.485 159.73 46.6766C158.9 45.492 157.511 44.7409 156.065 44.6956C154.524 44.5338 153.029 45.6182 152.243 45.6182C151.443 45.6182 150.233 44.7117 148.93 44.7385C147.233 44.7934 145.65 45.7587 144.824 47.243C143.048 50.3173 144.372 54.8354 146.073 57.3204C146.924 58.5372 147.919 59.8965 149.22 59.8483C150.494 59.7954 150.97 59.0362 152.507 59.0362C154.03 59.0362 154.476 59.8483 155.804 59.8176C157.17 59.7954 158.031 58.5954 158.852 57.367C159.464 56.5 159.934 55.5417 160.246 54.5277C158.641 53.8485 157.568 52.2324 157.566 50.4887Z" fill="white"/>
<path d="M155.058 43.0614C155.803 42.1669 156.17 41.0173 156.081 39.8566C154.943 39.9761 153.892 40.5202 153.137 41.3803C152.398 42.2207 152.014 43.3501 152.086 44.4665C153.225 44.4782 154.345 43.9489 155.058 43.0614Z" fill="white"/>
<defs>
<filter id="filter0_ii_114_5157" x="9.14246" y="38.4061" width="21.167" height="23.6147" filterUnits="userSpaceOnUse" color-interpolation-filters="sRGB">
<feFlood flood-opacity="0" result="BackgroundImageFix"/>
<feBlend mode="normal" in="SourceGraphic" in2="BackgroundImageFix" result="shape"/>
<feColorMatrix in="SourceAlpha" type="matrix" values="0 0 0 0 0 0 0 0 0 0 0 0 0 0 0 0 0 0 127 0" result="hardAlpha"/>
<feOffset dy="-0.10875"/>
<feComposite in2="hardAlpha" operator="arithmetic" k2="-1" k3="1"/>
<feColorMatrix type="matrix" values="0 0 0 0 0 0 0 0 0 0 0 0 0 0 0 0 0 0 0.12 0"/>
<feBlend mode="normal" in2="shape" result="effect1_innerShadow_114_5157"/>
<feColorMatrix in="SourceAlpha" type="matrix" values="0 0 0 0 0 0 0 0 0 0 0 0 0 0 0 0 0 0 127 0" result="hardAlpha"/>
<feOffset dy="0.10875"/>
<feComposite in2="hardAlpha" operator="arithmetic" k2="-1" k3="1"/>
<feColorMatrix type="matrix" values="0 0 0 0 1 0 0 0 0 1 0 0 0 0 1 0 0 0 0.25 0"/>
<feBlend mode="normal" in2="effect1_innerShadow_114_5157" result="effect2_innerShadow_114_5157"/>
</filter>
<filter id="filter1_i_114_5157" x="9.56689" y="50.2133" width="15.2965" height="11.8076" filterUnits="userSpaceOnUse" color-interpolation-filters="sRGB">
<feFlood flood-opacity="0" result="BackgroundImageFix"/>
<feBlend mode="normal" in="SourceGraphic" in2="BackgroundImageFix" result="shape"/>
<feColorMatrix in="SourceAlpha" type="matrix" values="0 0 0 0 0 0 0 0 0 0 0 0 0 0 0 0 0 0 127 0" result="hardAlpha"/>
<feOffset dy="-0.10875"/>
<feComposite in2="hardAlpha" operator="arithmetic" k2="-1" k3="1"/>
<feColorMatrix type="matrix" values="0 0 0 0 0 0 0 0 0 0 0 0 0 0 0 0 0 0 0.08 0"/>
<feBlend mode="normal" in2="shape" result="effect1_innerShadow_114_5157"/>
</filter>
<linearGradient id="paint0_linear_114_5157" x1="19.9853" y1="39.8458" x2="4.57739" y2="55.2302" gradientUnits="userSpaceOnUse">
<stop stop-color="#00A0FF"/>
<stop offset="0.0066" stop-color="#00A1FF"/>
<stop offset="0.2601" stop-color="#00BEFF"/>
<stop offset="0.5122" stop-color="#00D2FF"/>
<stop offset="0.7604" stop-color="#00DFFF"/>
<stop offset="1" stop-color="#00E3FF"/>
</linearGradient>
<linearGradient id="paint1_linear_114_5157" x1="31.016" y1="50.2132" x2="8.83502" y2="50.2132" gradientUnits="userSpaceOnUse">
<stop stop-color="#FFE000"/>
<stop offset="0.4087" stop-color="#FFBD00"/>
<stop offset="0.7754" stop-color="#FFA500"/>
<stop offset="1" stop-color="#FF9C00"/>
</linearGradient>
<linearGradient id="paint2_linear_114_5157" x1="22.7605" y1="52.3193" x2="1.86543" y2="73.1826" gradientUnits="userSpaceOnUse">
<stop stop-color="#FF3A44"/>
<stop offset="1" stop-color="#C31162"/>
</linearGradient>
<linearGradient id="paint3_linear_114_5157" x1="6.68966" y1="32.0122" x2="16.0199" y2="41.3282" gradientUnits="userSpaceOnUse">
<stop stop-color="#32A071"/>
<stop offset="0.0685" stop-color="#2DA771"/>
<stop offset="0.4762" stop-color="#15CF74"/>
<stop offset="0.8009" stop-color="#06E775"/>
<stop offset="1" stop-color="#00F076"/>
</linearGradient>
</defs>
</svg>
