<svg width="145" height="43" viewBox="0 0 145 43" fill="none" xmlns="http://www.w3.org/2000/svg">
<g filter="url(#filter0_d_881_125)">
<path d="M4 10C4 7.79086 5.79086 6 8 6H40C42.2091 6 44 7.79086 44 10V33C44 35.2091 42.2091 37 40 37H8C5.79086 37 4 35.2091 4 33V10Z" fill="#CFCFCF"/>
</g>
<g filter="url(#filter1_d_881_125)">
<path d="M7 7.17442C7 4.65611 9.29916 2.76432 11.7703 3.2493L23.9778 5.64508V36.9846L10.2297 34.2865C8.35332 33.9182 7 32.2735 7 30.3613V7.17442Z" fill="#F2F2F2"/>
<path d="M37.593 3.03979C39.4571 3.03979 40.9682 4.55321 40.9682 6.42011V30.8704C40.9682 32.4867 39.8257 33.8768 38.242 34.1876L23.9904 36.9846L23.9904 5.64508L36.9439 3.10288C37.1578 3.06092 37.3751 3.03979 37.593 3.03979Z" fill="white"/>
</g>
<g filter="url(#filter2_d_881_125)">
<path d="M32 3.84L36 3V9.06095L34 7.91171L32 10V3.84Z" fill="#1D7372"/>
</g>
<path opacity="0.9" d="M21.0218 15.6203V12.6745L23.9331 11L26.8814 12.6745V15.6203L23.9331 13.9566L21.0218 15.6203Z" fill="#089D7C"/>
<path d="M18.0951 20.6328L15.5439 19.1599L15.5494 15.8013L18.4737 14.0854L21.0249 15.5583L18.1099 17.2796L18.0951 20.6328Z" fill="#089D7C"/>
<path d="M18.0951 20.3672L15.5439 21.8401L15.5494 25.1987L18.4737 26.9146L21.0249 25.4417L18.1099 23.7204L18.0951 20.3672Z" fill="#089D7C"/>
<path d="M29.9049 20.6328L32.4561 19.1599L32.4506 15.8013L29.5263 14.0854L26.9751 15.5583L29.8901 17.2796L29.9049 20.6328Z" fill="#089D7C"/>
<path d="M29.9049 20.3672L32.4561 21.8401L32.4506 25.1987L29.5263 26.9146L26.9751 25.4417L29.8901 23.7204L29.9049 20.3672Z" fill="#089D7C"/>
<path d="M21.1187 25.3797V28.3255L24.03 30L26.9782 28.3255V25.3797L24.03 27.0434L21.1187 25.3797Z" fill="#089D7C"/>
<path opacity="0.494754" d="M21.007 16.5633H26.8778L29.8353 20.4764L26.8778 24.3896H21.007L18.1162 20.4764L21.007 16.5633Z" fill="#089D7C"/>
<path d="M23.3531 20.0589H22.3777L23.9325 16.7519L25.5738 20.0589H24.5114V20.8979H25.5738L23.9757 24.1538L22.3777 20.8979H23.3531V20.0589Z" fill="#089D7C"/>
<path d="M51.5117 18.6289V8.47754C51.5117 7.9502 51.6318 7.55469 51.8721 7.29102C52.1123 7.02734 52.4229 6.89551 52.8037 6.89551C53.1963 6.89551 53.5127 7.02734 53.7529 7.29102C53.999 7.54883 54.1221 7.94434 54.1221 8.47754V18.6289C54.1221 19.1621 53.999 19.5605 53.7529 19.8242C53.5127 20.0879 53.1963 20.2197 52.8037 20.2197C52.4287 20.2197 52.1182 20.0879 51.8721 19.8242C51.6318 19.5547 51.5117 19.1562 51.5117 18.6289ZM61.2104 16.3789H58.4331C58.0112 16.3789 57.689 16.2822 57.4663 16.0889C57.2495 15.8896 57.1411 15.6348 57.1411 15.3242C57.1411 15.0078 57.2466 14.7529 57.4575 14.5596C57.6743 14.3604 57.9995 14.2607 58.4331 14.2607H61.2104C61.644 14.2607 61.9663 14.3604 62.1772 14.5596C62.394 14.7529 62.5024 15.0078 62.5024 15.3242C62.5024 15.6348 62.397 15.8896 62.186 16.0889C61.9751 16.2822 61.6499 16.3789 61.2104 16.3789ZM73.8799 9.12793H68V12.292H73.414C73.8125 12.292 74.1084 12.3828 74.3017 12.5645C74.501 12.7402 74.6006 12.9746 74.6006 13.2676C74.6006 13.5605 74.5039 13.8008 74.3105 13.9883C74.1172 14.1699 73.8183 14.2607 73.414 14.2607H68V17.9258H74.082C74.4922 17.9258 74.7998 18.0225 75.0049 18.2158C75.2158 18.4033 75.3213 18.6553 75.3213 18.9717C75.3213 19.2764 75.2158 19.5254 75.0049 19.7188C74.7998 19.9062 74.4922 20 74.082 20H66.9892C66.4209 20 66.0107 19.874 65.7588 19.6221C65.5127 19.3701 65.3896 18.9629 65.3896 18.4004V8.71484C65.3896 8.33984 65.4453 8.03516 65.5566 7.80078C65.668 7.56055 65.8408 7.3877 66.0752 7.28223C66.3154 7.1709 66.6201 7.11523 66.9892 7.11523H73.8799C74.2959 7.11523 74.6035 7.20898 74.8027 7.39648C75.0078 7.57813 75.1103 7.81836 75.1103 8.11719C75.1103 8.42188 75.0078 8.66797 74.8027 8.85547C74.6035 9.03711 74.2959 9.12793 73.8799 9.12793ZM86.813 18.541L86.1977 16.9238H80.9595L80.3442 18.5762C80.104 19.2207 79.8989 19.6572 79.729 19.8857C79.5591 20.1084 79.2807 20.2197 78.894 20.2197C78.5659 20.2197 78.2759 20.0996 78.0239 19.8594C77.772 19.6191 77.646 19.3467 77.646 19.042C77.646 18.8662 77.6753 18.6846 77.7339 18.4971C77.7925 18.3096 77.8891 18.0488 78.0239 17.7148L81.3198 9.34766C81.4136 9.10742 81.5249 8.82031 81.6538 8.48633C81.7886 8.14648 81.9292 7.86523 82.0757 7.64258C82.228 7.41992 82.4243 7.24121 82.6645 7.10645C82.9106 6.96582 83.2124 6.89551 83.5698 6.89551C83.9331 6.89551 84.2348 6.96582 84.4751 7.10645C84.7212 7.24121 84.9175 7.41699 85.0639 7.63379C85.2163 7.85059 85.3423 8.08496 85.4419 8.33691C85.5473 8.58301 85.6792 8.91406 85.8374 9.33008L89.2036 17.6445C89.4673 18.2773 89.5991 18.7373 89.5991 19.0244C89.5991 19.3232 89.4731 19.5986 89.2212 19.8506C88.9751 20.0967 88.6762 20.2197 88.3247 20.2197C88.1196 20.2197 87.9438 20.1816 87.7973 20.1055C87.6509 20.0352 87.5278 19.9385 87.4282 19.8154C87.3286 19.6865 87.2202 19.4932 87.103 19.2354C86.9917 18.9717 86.895 18.7402 86.813 18.541ZM81.645 14.9639H85.4946L83.5522 9.64648L81.645 14.9639ZM95.6855 16.3789H92.9082C92.4863 16.3789 92.164 16.2822 91.9414 16.0889C91.7246 15.8896 91.6162 15.6348 91.6162 15.3242C91.6162 15.0078 91.7217 14.7529 91.9326 14.5596C92.1494 14.3604 92.4746 14.2607 92.9082 14.2607H95.6855C96.1191 14.2607 96.4414 14.3604 96.6523 14.5596C96.8691 14.7529 96.9775 15.0078 96.9775 15.3242C96.9775 15.6348 96.872 15.8896 96.6611 16.0889C96.4502 16.2822 96.125 16.3789 95.6855 16.3789ZM108.232 9.26855H105.384V18.6289C105.384 19.168 105.264 19.5693 105.024 19.833C104.784 20.0908 104.473 20.2197 104.092 20.2197C103.706 20.2197 103.389 20.0879 103.143 19.8242C102.903 19.5605 102.783 19.1621 102.783 18.6289V9.26855H99.935C99.4897 9.26855 99.1587 9.17188 98.9419 8.97852C98.7251 8.7793 98.6167 8.51855 98.6167 8.19629C98.6167 7.8623 98.728 7.59863 98.9506 7.40527C99.1792 7.21191 99.5073 7.11523 99.935 7.11523H108.232C108.683 7.11523 109.017 7.21484 109.234 7.41406C109.457 7.61328 109.568 7.87402 109.568 8.19629C109.568 8.51855 109.457 8.7793 109.234 8.97852C109.011 9.17188 108.677 9.26855 108.232 9.26855ZM56.1729 32.835H52.5225C52.527 33.2588 52.6113 33.6325 52.7754 33.9561C52.944 34.2796 53.165 34.5234 53.4385 34.6875C53.7165 34.8516 54.0218 34.9336 54.3545 34.9336C54.5778 34.9336 54.7806 34.9085 54.9629 34.8584C55.1497 34.8037 55.3298 34.7217 55.5029 34.6123C55.6761 34.4984 55.8356 34.3776 55.9814 34.25C56.1273 34.1224 56.3164 33.9492 56.5488 33.7305C56.6445 33.6484 56.7812 33.6074 56.959 33.6074C57.1504 33.6074 57.3053 33.6598 57.4238 33.7646C57.5423 33.8695 57.6016 34.0176 57.6016 34.209C57.6016 34.3776 57.5355 34.5758 57.4033 34.8037C57.2712 35.027 57.0706 35.2435 56.8018 35.4531C56.5374 35.6582 56.2025 35.8291 55.7969 35.9658C55.3958 36.1025 54.9333 36.1709 54.4092 36.1709C53.2106 36.1709 52.2786 35.8291 51.6133 35.1455C50.9479 34.4619 50.6152 33.5345 50.6152 32.3633C50.6152 31.8118 50.6973 31.3014 50.8613 30.832C51.0254 30.3581 51.2646 29.9525 51.5791 29.6152C51.8936 29.278 52.2809 29.0205 52.7412 28.8428C53.2015 28.6605 53.7119 28.5693 54.2725 28.5693C55.0016 28.5693 55.626 28.7243 56.1455 29.0342C56.6696 29.3395 57.0615 29.736 57.3213 30.2236C57.5811 30.7113 57.7109 31.208 57.7109 31.7139C57.7109 32.1833 57.5765 32.4886 57.3076 32.6299C57.0387 32.7666 56.6605 32.835 56.1729 32.835ZM52.5225 31.7754H55.9062C55.8607 31.1374 55.6875 30.6611 55.3867 30.3467C55.0905 30.0277 54.6986 29.8682 54.2109 29.8682C53.7461 29.8682 53.3633 30.0299 53.0625 30.3535C52.7663 30.6725 52.5863 31.1465 52.5225 31.7754ZM62.5825 27.0381V34.332H66.6977C67.0259 34.332 67.2765 34.4118 67.4497 34.5713C67.6274 34.7308 67.7163 34.9313 67.7163 35.1729C67.7163 35.4189 67.6297 35.6195 67.4565 35.7744C67.2834 35.9248 67.0304 36 66.6977 36H61.7964C61.3543 36 61.0353 35.902 60.8393 35.7061C60.6479 35.5101 60.5522 35.1934 60.5522 34.7559V27.0381C60.5522 26.6279 60.6434 26.3203 60.8257 26.1152C61.0125 25.9102 61.2563 25.8076 61.5571 25.8076C61.8625 25.8076 62.1086 25.9102 62.2954 26.1152C62.4868 26.3158 62.5825 26.6234 62.5825 27.0381ZM71.9658 29.6426V35.0361C71.9658 35.4098 71.8769 35.6924 71.6992 35.8838C71.5215 36.0752 71.2959 36.1709 71.0224 36.1709C70.749 36.1709 70.5257 36.0729 70.3525 35.877C70.1839 35.681 70.0996 35.4007 70.0996 35.0361V29.6973C70.0996 29.3281 70.1839 29.0501 70.3525 28.8633C70.5257 28.6764 70.749 28.583 71.0224 28.583C71.2959 28.583 71.5215 28.6764 71.6992 28.8633C71.8769 29.0501 71.9658 29.3099 71.9658 29.6426ZM71.043 27.7148C70.7832 27.7148 70.5599 27.6351 70.373 27.4756C70.1907 27.3161 70.0996 27.0905 70.0996 26.7988C70.0996 26.5345 70.193 26.318 70.3799 26.1494C70.5713 25.9762 70.7923 25.8896 71.043 25.8896C71.2845 25.8896 71.4987 25.9671 71.6855 26.1221C71.8724 26.277 71.9658 26.5026 71.9658 26.7988C71.9658 27.0859 71.8747 27.3115 71.6924 27.4756C71.5101 27.6351 71.2936 27.7148 71.043 27.7148ZM76.7964 26.874V29.7246C77.1473 29.36 77.505 29.082 77.8696 28.8906C78.2342 28.6947 78.6854 28.5967 79.2231 28.5967C79.8429 28.5967 80.3852 28.7448 80.8501 29.041C81.3195 29.3327 81.6818 29.7588 81.937 30.3193C82.1968 30.8753 82.3266 31.5361 82.3266 32.3018C82.3266 32.8669 82.2537 33.3864 82.1079 33.8604C81.9666 34.3298 81.7593 34.7376 81.4858 35.084C81.2124 35.4303 80.8797 35.6992 80.4878 35.8906C80.1004 36.0775 79.672 36.1709 79.2026 36.1709C78.9155 36.1709 78.6443 36.1367 78.3891 36.0684C78.1385 36 77.9243 35.9111 77.7466 35.8018C77.5688 35.6878 77.4162 35.5716 77.2886 35.4531C77.1655 35.3346 77.0014 35.1569 76.7964 34.9199V35.1045C76.7964 35.4554 76.7121 35.722 76.5434 35.9043C76.3748 36.082 76.1606 36.1709 75.9009 36.1709C75.6365 36.1709 75.4246 36.082 75.2651 35.9043C75.1102 35.722 75.0327 35.4554 75.0327 35.1045V26.9561C75.0327 26.5778 75.1079 26.293 75.2583 26.1016C75.4132 25.9056 75.6274 25.8076 75.9009 25.8076C76.188 25.8076 76.409 25.901 76.5639 26.0879C76.7189 26.2702 76.7964 26.5322 76.7964 26.874ZM76.8852 32.418C76.8852 33.1608 77.0539 33.7327 77.3911 34.1338C77.7329 34.5303 78.1795 34.7285 78.7309 34.7285C79.2003 34.7285 79.6037 34.5257 79.9409 34.1201C80.2827 33.71 80.4536 33.1243 80.4536 32.3633C80.4536 31.8711 80.383 31.4473 80.2417 31.0918C80.1004 30.7363 79.8999 30.4629 79.6401 30.2715C79.3804 30.0755 79.0773 29.9775 78.7309 29.9775C78.3755 29.9775 78.0587 30.0755 77.7807 30.2715C77.5027 30.4629 77.284 30.7432 77.1245 31.1123C76.965 31.4769 76.8852 31.9121 76.8852 32.418ZM86.8496 33.4775V35.0361C86.8496 35.4144 86.7607 35.6992 86.583 35.8906C86.4052 36.0775 86.1797 36.1709 85.9062 36.1709C85.6373 36.1709 85.4163 36.0752 85.2431 35.8838C85.07 35.6924 84.9834 35.4098 84.9834 35.0361V29.8408C84.9834 29.0023 85.2864 28.583 85.8926 28.583C86.2024 28.583 86.4258 28.681 86.5625 28.877C86.6992 29.0729 86.7744 29.3623 86.7881 29.7451C87.0114 29.3623 87.2392 29.0729 87.4717 28.877C87.7086 28.681 88.0231 28.583 88.415 28.583C88.8069 28.583 89.1875 28.681 89.5566 28.877C89.9258 29.0729 90.1103 29.3327 90.1103 29.6562C90.1103 29.8841 90.0306 30.0732 89.8711 30.2236C89.7161 30.3695 89.5475 30.4424 89.3652 30.4424C89.2968 30.4424 89.1305 30.4014 88.8662 30.3193C88.6064 30.2327 88.3763 30.1895 88.1758 30.1895C87.9023 30.1895 87.679 30.2624 87.5058 30.4082C87.3327 30.5495 87.1982 30.7614 87.1025 31.0439C87.0068 31.3265 86.9407 31.6637 86.9043 32.0557C86.8678 32.443 86.8496 32.917 86.8496 33.4775ZM96.6704 35.1182C96.2192 35.4691 95.7817 35.7334 95.3579 35.9111C94.9386 36.0843 94.4669 36.1709 93.9428 36.1709C93.4643 36.1709 93.0428 36.0775 92.6782 35.8906C92.3182 35.6992 92.0402 35.4417 91.8442 35.1182C91.6482 34.7946 91.5503 34.4437 91.5503 34.0654C91.5503 33.555 91.712 33.1198 92.0356 32.7598C92.3592 32.3997 92.8035 32.1582 93.3686 32.0352C93.4871 32.0078 93.7811 31.9463 94.2505 31.8506C94.7199 31.7549 95.1209 31.6683 95.4536 31.5908C95.7908 31.5088 96.1554 31.4108 96.5473 31.2969C96.5245 30.8047 96.4243 30.4447 96.2465 30.2168C96.0734 29.9844 95.7111 29.8682 95.1596 29.8682C94.6857 29.8682 94.3279 29.9342 94.0864 30.0664C93.8494 30.1986 93.6443 30.3968 93.4712 30.6611C93.3025 30.9255 93.1818 31.1009 93.1089 31.1875C93.0405 31.2695 92.8901 31.3105 92.6577 31.3105C92.448 31.3105 92.2658 31.2445 92.1108 31.1123C91.9604 30.9756 91.8852 30.8024 91.8852 30.5928C91.8852 30.2646 92.0014 29.9456 92.2339 29.6357C92.4663 29.3258 92.8286 29.0706 93.3208 28.8701C93.813 28.6696 94.4259 28.5693 95.1596 28.5693C95.9799 28.5693 96.6248 28.6673 97.0942 28.8633C97.5636 29.0547 97.894 29.36 98.0854 29.7793C98.2814 30.1986 98.3794 30.7546 98.3794 31.4473C98.3794 31.8848 98.3771 32.2562 98.3725 32.5615C98.3725 32.8669 98.3702 33.2064 98.3657 33.5801C98.3657 33.931 98.4227 34.2979 98.5366 34.6807C98.6551 35.0589 98.7143 35.3027 98.7143 35.4121C98.7143 35.6035 98.6232 35.779 98.4409 35.9385C98.2631 36.0934 98.0603 36.1709 97.8325 36.1709C97.6411 36.1709 97.452 36.082 97.2651 35.9043C97.0783 35.722 96.88 35.46 96.6704 35.1182ZM96.5473 32.418C96.2739 32.5182 95.8751 32.6253 95.351 32.7393C94.8315 32.8486 94.4715 32.9307 94.271 32.9854C94.0704 33.0355 93.879 33.138 93.6967 33.293C93.5145 33.4434 93.4233 33.6553 93.4233 33.9287C93.4233 34.2113 93.5304 34.4528 93.7446 34.6533C93.9588 34.8493 94.2391 34.9473 94.5854 34.9473C94.9546 34.9473 95.2941 34.8675 95.604 34.708C95.9184 34.5439 96.1486 34.3343 96.2944 34.0791C96.463 33.7965 96.5473 33.3317 96.5473 32.6846V32.418ZM103.306 33.4775V35.0361C103.306 35.4144 103.217 35.6992 103.039 35.8906C102.861 36.0775 102.636 36.1709 102.362 36.1709C102.093 36.1709 101.872 36.0752 101.699 35.8838C101.526 35.6924 101.439 35.4098 101.439 35.0361V29.8408C101.439 29.0023 101.742 28.583 102.349 28.583C102.658 28.583 102.882 28.681 103.019 28.877C103.155 29.0729 103.23 29.3623 103.244 29.7451C103.467 29.3623 103.695 29.0729 103.928 28.877C104.165 28.681 104.479 28.583 104.871 28.583C105.263 28.583 105.644 28.681 106.013 28.877C106.382 29.0729 106.566 29.3327 106.566 29.6562C106.566 29.8841 106.487 30.0732 106.327 30.2236C106.172 30.3695 106.004 30.4424 105.821 30.4424C105.753 30.4424 105.587 30.4014 105.322 30.3193C105.062 30.2327 104.832 30.1895 104.632 30.1895C104.358 30.1895 104.135 30.2624 103.962 30.4082C103.789 30.5495 103.654 30.7614 103.559 31.0439C103.463 31.3265 103.397 31.6637 103.36 32.0557C103.324 32.443 103.306 32.917 103.306 33.4775ZM110.488 36.4033L110.659 35.9863L108.362 30.2031C108.22 29.8704 108.15 29.6289 108.15 29.4785C108.15 29.319 108.191 29.1709 108.273 29.0342C108.355 28.8975 108.467 28.7881 108.608 28.7061C108.754 28.624 108.904 28.583 109.059 28.583C109.328 28.583 109.531 28.6696 109.667 28.8428C109.804 29.0114 109.925 29.2552 110.03 29.5742L111.609 34.168L113.106 29.8955C113.224 29.5492 113.331 29.278 113.427 29.082C113.523 28.8861 113.623 28.7539 113.728 28.6855C113.837 28.6172 113.99 28.583 114.186 28.583C114.327 28.583 114.462 28.6217 114.589 28.6992C114.721 28.7721 114.822 28.8724 114.89 29C114.963 29.1276 114.999 29.262 114.999 29.4033C114.981 29.4899 114.952 29.613 114.911 29.7725C114.87 29.932 114.819 30.0938 114.76 30.2578L112.327 36.6289C112.117 37.1895 111.912 37.6292 111.711 37.9482C111.511 38.2673 111.244 38.5111 110.912 38.6797C110.583 38.8529 110.139 38.9395 109.579 38.9395C109.032 38.9395 108.622 38.8802 108.348 38.7617C108.075 38.6432 107.938 38.4268 107.938 38.1123C107.938 37.8981 108.002 37.7318 108.129 37.6133C108.262 37.4993 108.455 37.4424 108.71 37.4424C108.811 37.4424 108.909 37.4561 109.004 37.4834C109.123 37.5107 109.225 37.5244 109.312 37.5244C109.526 37.5244 109.695 37.4925 109.818 37.4287C109.941 37.3649 110.05 37.2533 110.146 37.0938C110.246 36.9388 110.36 36.7087 110.488 36.4033Z" fill="white"/>
<defs>
<filter id="filter0_d_881_125" x="0" y="4" width="48" height="39" filterUnits="userSpaceOnUse" color-interpolation-filters="sRGB">
<feFlood flood-opacity="0" result="BackgroundImageFix"/>
<feColorMatrix in="SourceAlpha" type="matrix" values="0 0 0 0 0 0 0 0 0 0 0 0 0 0 0 0 0 0 127 0" result="hardAlpha"/>
<feOffset dy="2"/>
<feGaussianBlur stdDeviation="2"/>
<feColorMatrix type="matrix" values="0 0 0 0 0 0 0 0 0 0 0 0 0 0 0 0 0 0 0.138191 0"/>
<feBlend mode="normal" in2="BackgroundImageFix" result="effect1_dropShadow_881_125"/>
<feBlend mode="normal" in="SourceGraphic" in2="effect1_dropShadow_881_125" result="shape"/>
</filter>
<filter id="filter1_d_881_125" x="3" y="1.03979" width="41.9682" height="41.9448" filterUnits="userSpaceOnUse" color-interpolation-filters="sRGB">
<feFlood flood-opacity="0" result="BackgroundImageFix"/>
<feColorMatrix in="SourceAlpha" type="matrix" values="0 0 0 0 0 0 0 0 0 0 0 0 0 0 0 0 0 0 127 0" result="hardAlpha"/>
<feOffset dy="2"/>
<feGaussianBlur stdDeviation="2"/>
<feColorMatrix type="matrix" values="0 0 0 0 0 0 0 0 0 0 0 0 0 0 0 0 0 0 0.177649 0"/>
<feBlend mode="normal" in2="BackgroundImageFix" result="effect1_dropShadow_881_125"/>
<feBlend mode="normal" in="SourceGraphic" in2="effect1_dropShadow_881_125" result="shape"/>
</filter>
<filter id="filter2_d_881_125" x="28" y="1" width="12" height="15" filterUnits="userSpaceOnUse" color-interpolation-filters="sRGB">
<feFlood flood-opacity="0" result="BackgroundImageFix"/>
<feColorMatrix in="SourceAlpha" type="matrix" values="0 0 0 0 0 0 0 0 0 0 0 0 0 0 0 0 0 0 127 0" result="hardAlpha"/>
<feOffset dy="2"/>
<feGaussianBlur stdDeviation="2"/>
<feColorMatrix type="matrix" values="0 0 0 0 0 0 0 0 0 0 0 0 0 0 0 0 0 0 0.171394 0"/>
<feBlend mode="normal" in2="BackgroundImageFix" result="effect1_dropShadow_881_125"/>
<feBlend mode="normal" in="SourceGraphic" in2="effect1_dropShadow_881_125" result="shape"/>
</filter>
</defs>
</svg>
