<svg width="10" height="14" viewBox="0 0 10 14" fill="none" xmlns="http://www.w3.org/2000/svg">
<path d="M1.46875 1.4375C2.44792 0.479167 3.625 0 5 0C6.375 0 7.55208 0.479167 8.53125 1.4375C9.51042 2.39583 10 3.55208 10 4.90625C10 5.98958 9.58333 7.29167 8.75 8.8125C7.91667 10.3333 7.08333 11.5833 6.25 12.5625L5 14C4.85417 13.8542 4.66667 13.6458 4.4375 13.375C4.22917 13.125 3.83333 12.625 3.25 11.875C2.6875 11.125 2.1875 10.3958 1.75 9.6875C1.3125 8.97917 0.90625 8.17708 0.53125 7.28125C0.177083 6.38542 0 5.59375 0 4.90625C0 3.55208 0.489583 2.39583 1.46875 1.4375ZM3.71875 6.15625C4.07292 6.48958 4.5 6.65625 5 6.65625C5.5 6.65625 5.91667 6.48958 6.25 6.15625C6.60417 5.80208 6.78125 5.38542 6.78125 4.90625C6.78125 4.42708 6.60417 4.02083 6.25 3.6875C5.91667 3.33333 5.5 3.15625 5 3.15625C4.5 3.15625 4.07292 3.33333 3.71875 3.6875C3.38542 4.02083 3.21875 4.42708 3.21875 4.90625C3.21875 5.38542 3.38542 5.80208 3.71875 6.15625Z" fill="#3564E7"/>
</svg>
