<svg width="48" height="81" viewBox="0 0 48 81" fill="none" xmlns="http://www.w3.org/2000/svg">
<path fill-rule="evenodd" clip-rule="evenodd" d="M11.1447 41.6881V67.8295C11.1447 68.9753 12.0735 69.9041 13.2192 69.9041H35.2598C36.4056 69.9041 37.3344 68.9753 37.3344 67.8295V41.6881C37.3344 41.6881 30.5594 39.6142 23.9609 44.0834C17.3624 48.5527 11.1447 41.6881 11.1447 41.6881Z" fill="#6CC2C3"/>
<g filter="url(#filter0_d_701_2758)">
<path d="M23.9291 75.8114C27.4076 75.8114 30.3876 75.2201 32.8693 74.0375C35.3509 72.8549 37.3765 71.2394 38.9461 69.1909C40.5156 67.1425 41.661 64.7562 42.3821 62.032C43.1033 59.3078 43.4639 56.4041 43.4639 53.3209V30.5137H36.2735V53.3209C36.2735 55.3482 36.072 57.3227 35.669 59.2445C35.266 61.1662 34.5873 62.8767 33.6328 64.3761C32.6784 65.8754 31.4163 67.0897 29.8468 68.0189C28.2772 68.9481 26.3046 69.4127 23.9291 69.4127C21.5959 69.4127 19.634 68.9586 18.0432 68.0506C16.4524 67.1425 15.1798 65.9388 14.2253 64.4394C13.2708 62.9401 12.5921 61.2295 12.1891 59.3078C11.7861 57.3861 11.5846 55.3905 11.5846 53.3209V30.5137H4.45789V53.3209C4.45789 56.2352 4.79725 59.0438 5.47599 61.7469C6.15472 64.45 7.25766 66.8469 8.78481 68.9375C10.312 71.0282 12.3164 72.6965 14.798 73.9424C17.2796 75.1884 20.3233 75.8114 23.9291 75.8114Z" fill="white"/>
</g>
<path fill-rule="evenodd" clip-rule="evenodd" d="M17.8315 55.4794C19.0624 55.4794 20.0604 54.4859 20.0604 53.2603C20.0604 52.0347 19.0624 51.0411 17.8315 51.0411C16.6005 51.0411 15.6025 52.0347 15.6025 53.2603C15.6025 54.4859 16.6005 55.4794 17.8315 55.4794Z" fill="#F1C352"/>
<path fill-rule="evenodd" clip-rule="evenodd" d="M28.976 48.8219C29.5915 48.8219 30.0905 48.3251 30.0905 47.7123C30.0905 47.0995 29.5915 46.6027 28.976 46.6027C28.3605 46.6027 27.8616 47.0995 27.8616 47.7123C27.8616 48.3251 28.3605 48.8219 28.976 48.8219Z" fill="#CAED1F"/>
<path fill-rule="evenodd" clip-rule="evenodd" d="M28.1401 63.2466C29.8327 63.2466 31.2048 61.8804 31.2048 60.1952C31.2048 58.51 29.8327 57.1438 28.1401 57.1438C26.4475 57.1438 25.0753 58.51 25.0753 60.1952C25.0753 61.8804 26.4475 63.2466 28.1401 63.2466Z" fill="#E66680"/>
<path d="M32.3955 19.6451C32.3955 24.359 28.719 25.0911 28.719 29.4843C28.719 31.7524 26.4226 31.9434 24.6748 31.9434C23.1652 31.9434 19.8321 31.3731 19.8321 29.4829C19.8321 25.0918 16.2189 24.3597 16.2189 19.6451C16.2189 15.2299 20.1049 11.6507 24.3682 11.6507C28.6329 11.6507 32.3955 15.2299 32.3955 19.6451Z" fill="#F6C23F"/>
<path d="M27.3708 35.341C27.3708 35.9472 25.7281 37.1712 24.3068 37.1712C22.8855 37.1712 21.2428 35.9472 21.2428 35.341C21.2428 34.7349 22.8847 34.975 24.3068 34.975C25.7281 34.975 27.3708 34.7349 27.3708 35.341Z" fill="#CCD6DD"/>
<path d="M27.7676 19.0836C27.6993 19.0156 27.6183 18.9616 27.5291 18.9247C27.4399 18.8879 27.3443 18.869 27.2477 18.869C27.1511 18.869 27.0555 18.8879 26.9663 18.9247C26.8771 18.9616 26.7961 19.0156 26.7278 19.0836L24.3065 21.4944L21.8852 19.0836C21.8169 19.0156 21.7359 18.9617 21.6467 18.9249C21.5575 18.8881 21.4619 18.8692 21.3653 18.8692C21.2688 18.8692 21.1732 18.8881 21.084 18.9249C20.9948 18.9617 20.9137 19.0156 20.8455 19.0836C20.7772 19.1516 20.723 19.2323 20.6861 19.3211C20.6491 19.4099 20.6301 19.5051 20.6301 19.6012C20.6301 19.6973 20.6491 19.7925 20.6861 19.8813C20.723 19.9701 20.7772 20.0508 20.8455 20.1188L23.5712 22.8326V30.5825C23.5712 30.7767 23.6487 30.9629 23.7866 31.1002C23.9245 31.2375 24.1115 31.3146 24.3065 31.3146C24.5015 31.3146 24.6886 31.2375 24.8264 31.1002C24.9643 30.9629 25.0418 30.7767 25.0418 30.5825V22.8326L27.7676 20.1188C27.8359 20.0508 27.8901 19.9702 27.9271 19.8814C27.9641 19.7925 27.9832 19.6973 27.9832 19.6012C27.9832 19.505 27.9641 19.4098 27.9271 19.321C27.8901 19.2322 27.8359 19.1515 27.7676 19.0836Z" fill="white"/>
<path d="M28.7197 34.243C28.7197 34.6313 28.5648 35.0037 28.289 35.2783C28.0132 35.5529 27.6391 35.7072 27.2491 35.7072H21.3667C20.9767 35.7072 20.6026 35.5529 20.3268 35.2783C20.0511 35.0037 19.8961 34.6313 19.8961 34.243V29.8505H28.7197V34.243Z" fill="#99AAB5"/>
<path d="M19.8947 34.9751C19.7106 34.9744 19.5334 34.905 19.3982 34.7805C19.263 34.656 19.1796 34.4856 19.1646 34.3029C19.1495 34.1202 19.2039 33.9385 19.3168 33.7937C19.4298 33.649 19.5933 33.5517 19.7748 33.5212L28.5984 32.057C28.6937 32.0407 28.7913 32.0433 28.8855 32.0648C28.9797 32.0863 29.0687 32.1262 29.1474 32.1821C29.226 32.2381 29.2927 32.309 29.3437 32.3909C29.3946 32.4727 29.4287 32.5637 29.444 32.6588C29.4599 32.7536 29.4569 32.8506 29.4351 32.9442C29.4133 33.0378 29.3732 33.1263 29.3171 33.2044C29.2609 33.2826 29.1899 33.349 29.1079 33.3999C29.026 33.4507 28.9348 33.4849 28.8396 33.5007L20.016 34.9648C19.976 34.9719 19.9354 34.9753 19.8947 34.9751ZM19.8947 32.0467C19.7106 32.0461 19.5334 31.9766 19.3982 31.8522C19.263 31.7277 19.1796 31.5573 19.1646 31.3745C19.1495 31.1918 19.2039 31.0101 19.3168 30.8654C19.4298 30.7206 19.5933 30.6234 19.7748 30.5928L28.5984 29.1286C28.6937 29.1124 28.7912 29.1151 28.8854 29.1367C28.9796 29.1582 29.0686 29.1981 29.1472 29.254C29.2258 29.31 29.2925 29.3809 29.3435 29.4627C29.3944 29.5444 29.4286 29.6354 29.444 29.7304C29.4599 29.8252 29.4569 29.9222 29.4351 30.0158C29.4133 30.1095 29.3732 30.1979 29.3171 30.2761C29.2609 30.3543 29.1899 30.4207 29.1079 30.4715C29.026 30.5223 28.9348 30.5566 28.8396 30.5723L20.016 32.0365C19.976 32.0435 19.9354 32.0469 19.8947 32.0467Z" fill="#CCD6DD"/>
<path d="M22.8463 4.43836C22.8463 3.51914 23.5948 2.77397 24.518 2.77397C25.4412 2.77397 26.1897 3.51914 26.1897 4.43836V7.76712C26.1897 8.68634 25.4412 9.43151 24.518 9.43151C23.5948 9.43151 22.8463 8.68634 22.8463 7.76712V4.43836Z" fill="white" fill-opacity="0.6"/>
<path d="M40.1204 18.3082C41.0437 18.3082 41.7921 19.0534 41.7921 19.9726C41.7921 20.8918 41.0437 21.637 40.1204 21.637L36.7771 21.637C35.8538 21.637 35.1054 20.8918 35.1054 19.9726C35.1054 19.0534 35.8538 18.3082 36.7771 18.3082L40.1204 18.3082Z" fill="white" fill-opacity="0.6"/>
<path d="M35.4932 7.27964C36.1461 6.62966 37.2045 6.62966 37.8574 7.27964C38.5102 7.92962 38.5102 8.98345 37.8574 9.63344L35.4932 11.9872C34.8404 12.6372 33.7819 12.6372 33.1291 11.9872C32.4763 11.3372 32.4763 10.2834 33.1291 9.63344L35.4932 7.27964Z" fill="white" fill-opacity="0.6"/>
<path d="M11.7017 18.3082C12.625 18.3082 13.3734 19.0534 13.3734 19.9726C13.3734 20.8918 12.625 21.637 11.7017 21.637L8.35836 21.637C7.43511 21.637 6.68667 20.8918 6.68667 19.9726C6.68667 19.0534 7.43511 18.3082 8.35836 18.3082L11.7017 18.3082Z" fill="white" fill-opacity="0.6"/>
<path d="M15.9401 9.63344C16.593 10.2834 16.593 11.3372 15.9401 11.9872C15.2873 12.6372 14.2288 12.6372 13.576 11.9872L11.2119 9.63344C10.5591 8.98345 10.5591 7.92962 11.2119 7.27964C11.8647 6.62966 12.9232 6.62966 13.576 7.27964L15.9401 9.63344Z" fill="white" fill-opacity="0.6"/>
<defs>
<filter id="filter0_d_701_2758" x="4.04297" y="30.3062" width="39.8358" height="46.1275" filterUnits="userSpaceOnUse" color-interpolation-filters="sRGB">
<feFlood flood-opacity="0" result="BackgroundImageFix"/>
<feColorMatrix in="SourceAlpha" type="matrix" values="0 0 0 0 0 0 0 0 0 0 0 0 0 0 0 0 0 0 127 0" result="hardAlpha"/>
<feOffset dy="0.207458"/>
<feGaussianBlur stdDeviation="0.207458"/>
<feColorMatrix type="matrix" values="0 0 0 0 0 0 0 0 0 0 0 0 0 0 0 0 0 0 0.216701 0"/>
<feBlend mode="normal" in2="BackgroundImageFix" result="effect1_dropShadow_701_2758"/>
<feBlend mode="normal" in="SourceGraphic" in2="effect1_dropShadow_701_2758" result="shape"/>
</filter>
</defs>
</svg>
