<svg width="15" height="13" viewBox="0 0 15 13" fill="none" xmlns="http://www.w3.org/2000/svg">
<path d="M13.8438 0H2.07812C1.76562 0 1.5 0.109375 1.28125 0.328125C1.0625 0.546875 0.953125 0.8125 0.953125 1.125V10.9062C0.953125 11.2188 1.0625 11.4844 1.28125 11.7031C1.5 11.9219 1.76562 12.0312 2.07812 12.0312H13.8438C14.1562 12.0312 14.4219 11.9219 14.6406 11.7031C14.8594 11.4844 14.9688 11.2188 14.9688 10.9062V1.125C14.9688 0.8125 14.8594 0.546875 14.6406 0.328125C14.4219 0.109375 14.1562 0 13.8438 0ZM12.6406 1.125L8.45312 4.625L8.42188 4.64062L8.40625 4.67188C8.29167 4.78646 8.15625 4.84375 8 4.84375H7.98438C7.82812 4.84375 7.69792 4.78646 7.59375 4.67188L7.5625 4.65625L3.28125 1.125H12.6406ZM13.8438 10.9062H2.07812V1.57812L6.8125 5.48438C7.13542 5.80729 7.53125 5.96875 8 5.96875C8.46875 5.96875 8.86458 5.80208 9.1875 5.46875L13.8438 1.57812V10.9062Z" fill="#3564E7"/>
</svg>
