<svg width="166" height="172" viewBox="0 0 166 172" fill="none" xmlns="http://www.w3.org/2000/svg">
<path d="M130.064 64.0405L133.256 58.4139C131.28 55.2075 130.575 51.3777 131.279 47.6776C131.983 43.9775 134.046 40.6745 137.062 38.4181C140.078 36.1617 143.828 35.115 147.577 35.4838C151.325 35.8525 154.8 37.6101 157.319 40.4109C159.837 43.2118 161.217 46.8533 161.186 50.6198C161.156 54.3862 159.718 58.0051 157.155 60.765C154.592 63.5249 151.089 65.2263 147.335 65.5346C143.581 65.8429 139.847 64.736 136.868 62.4313L130.064 64.0405Z" fill="white"/>
<path d="M130.063 64.0404L136.86 62.3891L136.833 62.4694C136.828 62.4651 136.824 62.4598 136.821 62.4538C136.819 62.4479 136.817 62.4415 136.817 62.435C136.817 62.4285 136.819 62.422 136.821 62.4161C136.824 62.4102 136.828 62.4049 136.833 62.4006C136.841 62.393 136.852 62.3889 136.864 62.3889C136.875 62.3889 136.886 62.393 136.894 62.4006C137.848 63.1297 138.883 63.7454 139.979 64.2353C141.283 64.8107 142.663 65.1969 144.076 65.382C144.859 65.4886 145.649 65.5257 146.439 65.4929C146.848 65.47 147.26 65.4585 147.677 65.4203L148.935 65.2291C152.681 64.4836 156.003 62.3408 158.227 59.2356C159.463 57.5185 160.318 55.5572 160.734 53.4829C161.161 51.2923 161.1 49.0345 160.555 46.8702C159.993 44.6073 158.9 42.5109 157.367 40.7544L156.759 40.0855C156.56 39.8599 156.323 39.6765 156.105 39.47C155.891 39.2627 155.667 39.0663 155.433 38.8814L154.718 38.3463C154.484 38.1674 154.237 38.0052 153.98 37.8608L153.216 37.4021L152.424 37.0199C152.168 36.8847 151.902 36.7672 151.629 36.6682C149.513 35.8286 147.235 35.4758 144.963 35.6362C142.817 35.7822 140.73 36.3967 138.847 37.4365C135.46 39.3183 132.923 42.4261 131.757 46.121C131.292 47.6951 131.068 49.3305 131.092 50.9716C131.161 53.5954 131.917 56.1551 133.286 58.3947C133.29 58.4015 133.293 58.4095 133.293 58.4176C133.293 58.4258 133.29 58.4337 133.286 58.4406L130.052 64.0442L133.205 58.3947V58.4444C131.809 56.1973 131.032 53.6202 130.954 50.9754C130.922 49.3183 131.143 47.666 131.608 46.0751C132.776 42.3374 135.335 39.1906 138.756 37.2836C140.663 36.2246 142.779 35.5982 144.955 35.4489C147.255 35.2837 149.562 35.6391 151.706 36.4886C151.983 36.5894 152.252 36.7095 152.512 36.8479L153.315 37.2301L154.08 37.6965C154.339 37.8434 154.588 38.0081 154.825 38.1895L155.547 38.7323C155.796 38.9043 156.002 39.1146 156.232 39.3248C156.461 39.535 156.69 39.707 156.893 39.9517L157.508 40.6282C159.062 42.4059 160.17 44.5288 160.738 46.8205C161.29 49.0138 161.35 51.3019 160.914 53.5212C160.502 55.6169 159.644 57.5996 158.399 59.335C156.147 62.4752 152.781 64.6369 148.988 65.3782L147.715 65.5693C147.295 65.6037 146.878 65.6152 146.465 65.6381C145.668 65.6693 144.87 65.6283 144.08 65.5158C142.655 65.3212 141.265 64.9248 139.952 64.3385C138.851 63.8383 137.812 63.211 136.856 62.4694L136.925 62.4006C136.934 62.4098 136.938 62.4221 136.938 62.435C136.938 62.4478 136.934 62.4601 136.925 62.4694H136.906L130.063 64.0404Z" fill="#263238"/>
<path d="M143.109 43.4224H141.504C141.321 43.4224 141.141 43.4584 140.972 43.5284C140.804 43.5984 140.65 43.7009 140.522 43.8302C140.393 43.9594 140.29 44.1128 140.221 44.2816C140.151 44.4504 140.116 44.6312 140.116 44.8138C140.116 48.4756 140.116 53.6741 140.116 53.6741L149.772 53.5326V44.7985C149.775 44.4364 149.919 44.0898 150.174 43.8327C150.429 43.5756 150.774 43.4284 151.136 43.4224H143.109Z" fill="#6CC2C3"/>
<g opacity="0.3">
<path opacity="0.3" d="M143.109 43.4224H141.504C141.321 43.4224 141.141 43.4584 140.972 43.5284C140.804 43.5984 140.65 43.7009 140.522 43.8302C140.393 43.9594 140.29 44.1128 140.221 44.2816C140.151 44.4504 140.116 44.6312 140.116 44.8138C140.116 48.4756 140.116 53.6741 140.116 53.6741L149.772 53.5326V44.7985C149.775 44.4364 149.919 44.0898 150.174 43.8327C150.429 43.5756 150.774 43.4284 151.136 43.4224H143.109Z" fill="black"/>
</g>
<path d="M152.283 44.7985C152.284 44.6163 152.249 44.4357 152.18 44.2672C152.111 44.0986 152.009 43.9454 151.88 43.8165C151.752 43.6875 151.599 43.5852 151.431 43.5156C151.262 43.446 151.082 43.4104 150.9 43.411H141.244C141.426 43.4105 141.607 43.446 141.776 43.5155C141.944 43.5851 142.097 43.6873 142.226 43.8162C142.355 43.9452 142.458 44.0983 142.527 44.2669C142.597 44.4355 142.632 44.6161 142.632 44.7985V57.6608C142.629 57.7304 142.645 57.7995 142.678 57.8606C142.712 57.9217 142.761 57.9725 142.821 58.0075C142.882 58.0425 142.95 58.0604 143.02 58.0593C143.089 58.0581 143.157 58.038 143.216 58.001L147.463 55.6158L151.717 57.7946C151.777 57.828 151.844 57.845 151.912 57.8437C151.98 57.8425 152.046 57.8232 152.104 57.7878C152.162 57.7523 152.21 57.702 152.242 57.6421C152.274 57.5822 152.29 57.5147 152.287 57.4468C152.283 55.2336 152.26 47.887 152.283 44.7985Z" fill="#6CC2C3"/>
<path d="M147.455 48.3648L147.807 49.0796C147.822 49.1089 147.843 49.1342 147.87 49.1535C147.897 49.1728 147.927 49.1855 147.96 49.1904L148.751 49.3051C148.788 49.311 148.823 49.327 148.851 49.3513C148.88 49.3757 148.901 49.4074 148.912 49.4431C148.924 49.4787 148.925 49.5168 148.916 49.5532C148.907 49.5896 148.889 49.6228 148.862 49.6491L148.292 50.2072C148.268 50.2297 148.25 50.2579 148.239 50.2892C148.228 50.3206 148.226 50.3542 148.231 50.3868L148.369 51.1743C148.375 51.2116 148.371 51.25 148.357 51.2852C148.343 51.3203 148.319 51.3508 148.288 51.3731C148.258 51.3954 148.221 51.4087 148.184 51.4113C148.146 51.414 148.108 51.406 148.075 51.3883L147.367 51.0061C147.338 50.991 147.306 50.9831 147.274 50.9831C147.241 50.9831 147.209 50.991 147.18 51.0061L146.473 51.3883C146.439 51.406 146.402 51.414 146.364 51.4113C146.326 51.4087 146.29 51.3954 146.259 51.3731C146.228 51.3508 146.205 51.3203 146.19 51.2852C146.176 51.25 146.172 51.2116 146.179 51.1743L146.312 50.3868C146.318 50.3545 146.316 50.3211 146.306 50.2898C146.296 50.2584 146.279 50.23 146.255 50.2072L145.682 49.6491C145.655 49.6225 145.636 49.589 145.628 49.5524C145.619 49.5157 145.621 49.4774 145.633 49.4416C145.644 49.4059 145.666 49.3742 145.695 49.3501C145.724 49.326 145.759 49.3104 145.796 49.3051L146.588 49.1904C146.62 49.1858 146.65 49.1733 146.676 49.1539C146.702 49.1346 146.723 49.109 146.737 49.0796L147.092 48.3648C147.109 48.331 147.135 48.3025 147.167 48.2826C147.199 48.2626 147.236 48.2521 147.274 48.2521C147.311 48.2521 147.349 48.2626 147.381 48.2826C147.413 48.3025 147.439 48.331 147.455 48.3648Z" fill="white"/>
<path d="M63.9859 6.10352e-05H76.7106V20.2855H62.4569V1.55577C62.4568 1.14777 62.6171 0.756068 62.9031 0.465072C63.1891 0.174076 63.5779 0.00707834 63.9859 6.10352e-05Z" fill="#6CC2C3"/>
<g opacity="0.3">
<path opacity="0.3" d="M63.9859 6.10531e-05H76.7259V20.2855H62.4569V1.55577C62.4533 1.35275 62.4903 1.15105 62.5655 0.962448C62.6408 0.773847 62.7528 0.602123 62.8951 0.4573C63.0375 0.312477 63.2072 0.197457 63.3945 0.118952C63.5818 0.0404466 63.7828 2.99576e-05 63.9859 6.10531e-05Z" fill="black"/>
</g>
<path d="M82.1154 2.52285L72.2536 2.47698L43.4481 2.34319H39.9812L31.3502 2.30497C30.3321 2.29842 29.3227 2.49261 28.3796 2.87642C27.4366 3.26024 26.5785 3.82615 25.8543 4.54182C25.1301 5.25749 24.5541 6.10887 24.1591 7.04729C23.7642 7.98572 23.558 8.99278 23.5525 10.0109L23.025 134.116C23.02 136.171 23.8308 138.143 25.2793 139.601C26.7278 141.058 28.6955 141.88 30.7501 141.887L81.5191 142.124C83.5744 142.135 85.5499 141.33 87.0115 139.885C88.473 138.44 89.3008 136.474 89.313 134.418L89.8404 10.2899C89.8445 8.23602 89.0333 6.26443 87.5849 4.80815C86.1365 3.35186 84.1693 2.52993 82.1154 2.52285Z" fill="#FAFAFA"/>
<path d="M82.1155 2.52284H82.3754H82.6965C82.8453 2.52678 82.9935 2.54211 83.1399 2.5687L83.7056 2.65662L84.3822 2.83245C84.6192 2.9089 84.8753 3.00828 85.1467 3.11148C85.418 3.21469 85.7009 3.35612 85.9838 3.53577C86.6275 3.9073 87.2145 4.36944 87.7268 4.90801C88.3558 5.56128 88.8598 6.32436 89.2137 7.1594C89.6367 8.12382 89.8591 9.16422 89.8673 10.2173C89.8673 11.3334 89.8673 12.5107 89.8673 13.7836C89.8329 23.8671 89.7794 38.4571 89.7182 56.4835C89.6571 74.5099 89.5615 95.9765 89.4698 119.809C89.4698 122.788 89.4583 125.804 89.4354 128.857C89.4354 130.386 89.429 131.915 89.4163 133.444C89.4163 133.826 89.4163 134.208 89.4163 134.59L89.3819 135.179L89.294 135.76C89.1567 136.537 88.8987 137.287 88.5295 137.985C88.1601 138.686 87.6901 139.33 87.1343 139.896C86.5664 140.452 85.923 140.926 85.2231 141.302C84.5127 141.669 83.7511 141.927 82.9641 142.067L82.3678 142.155L81.7677 142.185C81.3854 142.204 80.9688 142.185 80.5713 142.185L70.935 142.139L30.7999 141.956C29.0475 141.946 27.348 141.355 25.9684 140.274C24.5978 139.201 23.6251 137.701 23.2048 136.012C23.0084 135.179 22.9286 134.322 22.9678 133.466V130.928C22.9678 129.244 22.9755 127.563 22.9908 125.887C23.0163 119.19 23.0443 112.595 23.0749 106.102C23.1322 93.1326 23.1857 80.6219 23.2392 68.6999C23.2927 56.7779 23.3424 45.4559 23.3921 34.8564C23.4151 29.5586 23.438 24.4455 23.4609 19.5172C23.4609 17.0581 23.4724 14.6487 23.4953 12.289C23.4953 11.7004 23.4953 11.1156 23.4953 10.5307C23.4953 10.2402 23.4953 9.94974 23.4953 9.65542L23.5221 9.21966C23.5221 9.07441 23.5641 8.92916 23.5832 8.78773C23.8469 7.11375 24.6507 5.57191 25.8722 4.39733C27.0937 3.22276 28.6659 2.47989 30.3489 2.28202C30.8809 2.22752 31.4158 2.20709 31.9505 2.22087H33.5291H36.6176L48.0848 2.28202L66.4514 2.38523L78.06 2.45786L81.0796 2.48079H82.1079H78.0676L66.459 2.44639L48.0924 2.37758L36.6252 2.33172H33.5367H31.9619C31.4324 2.31575 30.9024 2.33618 30.3756 2.39287C28.7186 2.59103 27.172 3.32594 25.9717 4.48543C24.7715 5.64493 23.9837 7.16531 23.7285 8.81449C23.7285 8.95592 23.6788 9.09735 23.6673 9.23878L23.6444 9.67071C23.6444 9.95356 23.6444 10.2479 23.6444 10.5384C23.6444 11.1232 23.6444 11.708 23.6444 12.2967C23.6444 14.6538 23.6355 17.0645 23.6176 19.5287C23.5998 24.4493 23.5794 29.5612 23.5565 34.8641C23.5144 45.4636 23.4686 56.7893 23.4227 68.7114C23.3768 80.6334 23.3233 93.1403 23.2698 106.113C23.2443 112.596 23.2163 119.191 23.1857 125.898C23.1857 127.572 23.1857 129.253 23.1857 130.94C23.1857 131.781 23.1857 132.626 23.1857 133.474C23.1459 134.313 23.2244 135.153 23.4189 135.97C23.8216 137.615 24.7635 139.078 26.0946 140.125C27.4392 141.178 29.0957 141.755 30.8037 141.765L70.9388 141.952L80.5751 141.998C80.9573 141.998 81.374 141.998 81.7638 141.998L82.3525 141.967L82.9335 141.883C83.7026 141.739 84.4459 141.482 85.139 141.119C85.8234 140.752 86.4527 140.29 87.0082 139.747C87.5503 139.195 88.0099 138.568 88.3727 137.885C88.7334 137.205 88.985 136.472 89.1181 135.714L89.206 135.148L89.2366 134.575C89.2596 134.193 89.2366 133.811 89.2366 133.428L89.2596 128.822C89.2596 125.764 89.2723 122.75 89.2978 119.779C89.4086 95.9421 89.5042 74.4793 89.5883 56.4529C89.6724 38.4266 89.7488 23.8365 89.8023 13.753C89.8023 12.4955 89.8023 11.3029 89.8023 10.1867C89.7959 9.14366 89.5787 8.11266 89.164 7.15557C88.8051 6.34221 88.3042 5.59926 87.6847 4.96152C87.1762 4.42362 86.593 3.9615 85.9532 3.58928C85.6741 3.40963 85.3836 3.29878 85.1237 3.16117C84.8638 3.02357 84.6001 2.95859 84.3592 2.87832L83.6903 2.70249L83.1284 2.60693C82.9821 2.57944 82.8339 2.56283 82.685 2.55724L82.364 2.53813L82.1155 2.52284Z" fill="#263238"/>
<path d="M81.286 86.9786H31.0521V90.3384H81.286V86.9786Z" fill="#6CC2C3"/>
<path d="M79.4932 100.208C79.4932 100.33 68.7905 100.43 55.5459 100.43C42.3013 100.43 31.5986 100.33 31.5986 100.208C31.5986 100.086 42.3204 99.99 55.5459 99.99C68.7714 99.99 79.4932 100.086 79.4932 100.208Z" fill="#263238"/>
<path d="M79.4932 20.4881C79.4932 20.6104 68.7905 20.7098 55.5459 20.7098C42.3013 20.7098 31.5986 20.6104 31.5986 20.4881C31.5986 20.3658 42.3204 20.2702 55.5459 20.2702C68.7714 20.2702 79.4932 20.3811 79.4932 20.4881Z" fill="#263238"/>
<path d="M79.4932 106.324C79.4932 106.446 68.7905 106.545 55.5459 106.545C42.3013 106.545 31.5986 106.446 31.5986 106.324C31.5986 106.201 42.3204 106.106 55.5459 106.106C68.7714 106.106 79.4932 106.205 79.4932 106.324Z" fill="#263238"/>
<path d="M79.4932 112.443C79.4932 112.562 68.7905 112.661 55.5459 112.661C42.3013 112.661 31.5986 112.562 31.5986 112.443C31.5986 112.325 42.3204 112.222 55.5459 112.222C68.7714 112.222 79.4932 112.321 79.4932 112.443Z" fill="#263238"/>
<path d="M79.4932 118.559C79.4932 118.681 68.7905 118.777 55.5459 118.777C42.3013 118.777 31.5986 118.681 31.5986 118.559C31.5986 118.437 42.3204 118.337 55.5459 118.337C68.7714 118.337 79.4932 118.437 79.4932 118.559Z" fill="#263238"/>
<path d="M79.4932 124.675C79.4932 124.797 68.7905 124.897 55.5459 124.897C42.3013 124.897 31.5986 124.797 31.5986 124.675C31.5986 124.553 42.3204 124.457 55.5459 124.457C68.7714 124.457 79.4932 124.553 79.4932 124.675Z" fill="#263238"/>
<path d="M80.1775 131.613C80.1775 131.731 69.4557 131.831 56.234 131.831C43.0124 131.831 32.2867 131.731 32.2867 131.613C32.2867 131.494 42.9894 131.391 56.234 131.391C69.4786 131.391 80.1775 131.49 80.1775 131.613Z" fill="#263238"/>
<path d="M81.9586 27.4792H31.5986V76.1994H81.9586V27.4792Z" fill="#455A64"/>
<g opacity="0.3">
<path opacity="0.3" d="M65.683 42.0808C65.6823 42.7979 65.4687 43.4987 65.0694 44.0945C64.6701 44.6902 64.103 45.154 63.4399 45.4273C62.7768 45.7005 62.0476 45.7708 61.3445 45.6293C60.6414 45.4878 59.9961 45.1409 59.4904 44.6324C58.9846 44.124 58.6411 43.4769 58.5033 42.773C58.3655 42.0692 58.4397 41.3404 58.7164 40.6787C58.9931 40.0171 59.46 39.4524 60.0578 39.0563C60.6556 38.6601 61.3575 38.4503 62.0747 38.4533C63.0338 38.4574 63.9521 38.8414 64.6285 39.5214C65.3048 40.2013 65.6841 41.1217 65.683 42.0808Z" fill="black"/>
</g>
<g opacity="0.3">
<path opacity="0.3" d="M78.0676 31.294L35.5205 31.2596C35.5702 31.206 35.0618 31.7182 35.2759 31.508V37.0199C35.2759 38.847 35.2759 40.6563 35.2759 42.4477C35.2759 46.0255 35.2759 49.5306 35.2759 52.944C35.2759 59.767 35.295 66.2191 35.2988 72.1553V72.3656H35.5091L66.4093 72.2623L75.0402 72.205L77.2993 72.1821H77.8726C77.9349 72.1878 77.9976 72.1878 78.0599 72.1821L67.7395 54.4997L60.8133 63.0122L49.4187 46.9849L35.7116 71.9604C35.7116 66.0854 35.7116 59.7287 35.7346 52.9707C35.7346 49.5573 35.7346 46.0522 35.7346 42.4745C35.7346 40.6907 35.7346 38.8814 35.7346 37.0467V31.7412L77.8382 31.7068C77.8841 43.7817 77.9185 53.8422 77.9452 60.9213C77.9682 64.4685 77.9835 67.2627 77.9988 69.193C77.9988 70.1371 77.9987 70.8672 78.0217 71.387C78.0217 71.624 78.0217 71.8075 78.0217 71.9527C78.0172 72.0202 78.0172 72.0879 78.0217 72.1553C78.0272 72.0956 78.0272 72.0354 78.0217 71.9757C78.0217 71.8381 78.0217 71.6584 78.0217 71.4329C78.0217 70.9207 78.0217 70.2059 78.0446 69.2771C78.0446 67.3659 78.0752 64.5793 78.0981 61.0513C78.1249 53.9034 78.1593 43.7244 78.2052 31.5004V31.294H78.0676Z" fill="black"/>
</g>
<path d="M81.5268 2.09473C81.5279 1.82033 81.4747 1.54844 81.3705 1.29459C81.2664 1.04075 81.1131 0.809943 80.9196 0.615385C80.7261 0.420826 80.4962 0.266334 80.2429 0.160748C79.9896 0.0551628 79.718 0.000556853 79.4436 5.61407e-05H64.9453C65.2205 -0.00196403 65.4933 0.050555 65.7481 0.15458C66.0029 0.258606 66.2345 0.412075 66.4296 0.606126C66.6247 0.800176 66.7795 1.03096 66.8849 1.28515C66.9903 1.53934 67.0443 1.8119 67.0438 2.08708V22.4375L74.3063 18.3552L81.5689 22.0744C81.5689 22.0744 81.5077 7.60279 81.5268 2.09473Z" fill="#6CC2C3"/>
<path d="M74.7535 7.61427L75.2581 8.63867C75.2784 8.6813 75.3089 8.71826 75.3469 8.74627C75.3849 8.77427 75.4292 8.79246 75.476 8.79921L76.6227 8.96357C76.6758 8.97177 76.7256 8.99454 76.7665 9.02935C76.8075 9.06415 76.838 9.10964 76.8546 9.16074C76.8712 9.21184 76.8734 9.26656 76.8608 9.3188C76.8482 9.37104 76.8213 9.41876 76.7832 9.45666L75.9652 10.2555C75.9313 10.2881 75.9059 10.3284 75.8912 10.3731C75.8765 10.4177 75.8731 10.4653 75.8811 10.5116L76.0723 11.6354C76.0822 11.6885 76.077 11.7433 76.0571 11.7936C76.0373 11.8438 76.0037 11.8874 75.9601 11.9194C75.9166 11.9513 75.8649 11.9703 75.811 11.9742C75.7571 11.9781 75.7033 11.9666 75.6556 11.9412L74.6427 11.4099C74.601 11.3875 74.5543 11.3758 74.507 11.3758C74.4596 11.3758 74.413 11.3875 74.3713 11.4099L73.3622 11.9412C73.3143 11.9661 73.2604 11.9772 73.2065 11.9731C73.1527 11.9691 73.101 11.9501 73.0574 11.9184C73.0137 11.8866 72.9797 11.8433 72.9593 11.7933C72.9389 11.7434 72.9328 11.6887 72.9417 11.6354L73.1367 10.5116C73.1447 10.4653 73.1413 10.4177 73.1266 10.3731C73.1119 10.3284 73.0865 10.2881 73.0526 10.2555L72.2346 9.45666C72.1965 9.41876 72.1696 9.37104 72.157 9.3188C72.1444 9.26656 72.1466 9.21184 72.1632 9.16074C72.1798 9.10964 72.2103 9.06415 72.2513 9.02935C72.2922 8.99454 72.342 8.97177 72.3951 8.96357L73.5418 8.79921C73.5883 8.79183 73.6324 8.7734 73.6703 8.74547C73.7082 8.71753 73.7389 8.68091 73.7597 8.63867L74.2643 7.61427C74.2905 7.57323 74.3267 7.53947 74.3695 7.51608C74.4122 7.4927 74.4602 7.48044 74.5089 7.48044C74.5576 7.48044 74.6056 7.4927 74.6483 7.51608C74.6911 7.53947 74.7273 7.57323 74.7535 7.61427Z" fill="white"/>
<path d="M108.635 171.897L58.7338 171.855C55.852 171.853 53.0889 170.706 51.0519 168.668C49.0149 166.63 47.8706 163.866 47.8706 160.984L47.8974 35.877C47.8974 34.4493 48.1787 33.0355 48.7253 31.7166C49.2719 30.3976 50.073 29.1993 51.083 28.1901C52.0929 27.1809 53.2917 26.3806 54.6111 25.835C55.9304 25.2893 57.3443 25.0089 58.7721 25.01L108.673 25.0405C110.1 25.041 111.513 25.3226 112.832 25.8692C114.15 26.4158 115.348 27.2167 116.356 28.2261C117.365 29.2356 118.165 30.4338 118.711 31.7525C119.257 33.0711 119.537 34.4843 119.537 35.9114L119.514 161.018C119.515 162.447 119.234 163.862 118.688 165.182C118.141 166.503 117.34 167.702 116.33 168.713C115.319 169.723 114.12 170.524 112.799 171.071C111.479 171.617 110.064 171.898 108.635 171.897Z" fill="#263238"/>
<path d="M108.62 29.4745H98.9454C98.6301 29.4815 98.3193 29.5504 98.0308 29.6775C97.7422 29.8046 97.4815 29.9874 97.2635 30.2153C97.0456 30.4431 96.8747 30.7117 96.7606 31.0057C96.6464 31.2997 96.5914 31.6132 96.5985 31.9285V33.683C96.6056 33.9982 96.5505 34.3118 96.4364 34.6057C96.3223 34.8997 96.1513 35.1683 95.9334 35.3962C95.7154 35.6241 95.4547 35.8068 95.1662 35.9339C94.8776 36.061 94.5668 36.13 94.2515 36.1369H75.3918C74.7548 36.1209 74.15 35.8534 73.7095 35.3929C73.2691 34.9324 73.0288 34.3163 73.0411 33.6791V31.9247C73.0487 31.6091 72.994 31.2951 72.8801 31.0007C72.7662 30.7063 72.5954 30.4373 72.3774 30.209C72.1594 29.9807 71.8985 29.7976 71.6097 29.6703C71.3208 29.5429 71.0097 29.4738 70.6941 29.4669H58.818C57.8182 29.4664 56.8282 29.6628 55.9044 30.0451C54.9806 30.4273 54.1412 30.9878 53.4341 31.6945C52.727 32.4013 52.1661 33.2404 51.7834 34.164C51.4007 35.0876 51.2038 36.0775 51.2038 37.0772L51.177 159.187C51.1765 160.187 51.373 161.177 51.7552 162.101C52.1374 163.025 52.6979 163.864 53.4047 164.571C54.1114 165.278 54.9505 165.839 55.8741 166.222C56.7977 166.605 57.7876 166.802 58.7874 166.802L108.589 166.832C109.589 166.833 110.579 166.636 111.503 166.254C112.427 165.872 113.267 165.311 113.974 164.605C114.682 163.898 115.243 163.059 115.626 162.135C116.009 161.212 116.207 160.222 116.207 159.222L116.23 37.1078C116.232 36.1068 116.037 35.1151 115.655 34.1896C115.274 33.2641 114.714 32.4228 114.007 31.7139C113.3 31.005 112.461 30.4423 111.536 30.058C110.612 29.6738 109.621 29.4755 108.62 29.4745Z" fill="#FAFAFA"/>
<path d="M80.0397 156.565C80.042 156.755 79.9878 156.942 79.8839 157.101C79.78 157.26 79.6312 157.385 79.4564 157.459C79.2815 157.534 79.0884 157.555 78.9017 157.519C78.7149 157.484 78.5429 157.394 78.4074 157.26C78.272 157.127 78.1791 156.957 78.1407 156.77C78.1024 156.584 78.1201 156.391 78.1918 156.215C78.2635 156.039 78.3858 155.888 78.5433 155.782C78.7009 155.675 78.8864 155.618 79.0765 155.617C79.202 155.616 79.3265 155.64 79.4428 155.687C79.5591 155.734 79.665 155.804 79.7545 155.892C79.8439 155.98 79.9151 156.084 79.9641 156.2C80.013 156.316 80.0387 156.44 80.0397 156.565Z" fill="#263238"/>
<path d="M85.3913 156.523C85.3928 156.712 85.3382 156.897 85.2345 157.055C85.1307 157.213 84.9825 157.337 84.8084 157.411C84.6344 157.484 84.4424 157.505 84.2568 157.469C84.0711 157.434 83.9001 157.344 83.7654 157.212C83.6307 157.079 83.5383 156.91 83.5 156.725C83.4616 156.54 83.479 156.347 83.5499 156.172C83.6209 155.997 83.7421 155.847 83.8984 155.74C84.0547 155.634 84.239 155.577 84.428 155.575C84.6809 155.575 84.9236 155.675 85.1038 155.852C85.284 156.029 85.3873 156.27 85.3913 156.523Z" fill="#263238"/>
<path d="M90.478 157.148C90.8467 156.77 90.8394 156.165 90.4617 155.797C90.0841 155.428 89.4791 155.435 89.1104 155.813C88.7417 156.19 88.749 156.796 89.1267 157.164C89.5043 157.533 90.1093 157.526 90.478 157.148Z" fill="#263238"/>
<path d="M106.716 110.662H60.4463V113.686H106.716V110.662Z" fill="#6CC2C3"/>
<path d="M106.055 120.604C106.055 120.711 95.6659 120.803 82.8571 120.803C70.0482 120.803 59.6552 120.711 59.6552 120.604C59.6552 120.497 70.0406 120.405 82.8571 120.405C95.6735 120.405 106.055 120.493 106.055 120.604Z" fill="#263238"/>
<path d="M106.055 126.108C106.055 126.215 95.6659 126.303 82.8571 126.303C70.0482 126.303 59.6552 126.215 59.6552 126.108C59.6552 126.001 70.0406 125.91 82.8571 125.91C95.6735 125.91 106.055 125.986 106.055 126.108Z" fill="#263238"/>
<path d="M106.055 131.609C106.055 131.72 95.6659 131.808 82.8571 131.808C70.0482 131.808 59.6552 131.72 59.6552 131.609C59.6552 131.498 70.0406 131.414 82.8571 131.414C95.6735 131.414 106.055 131.502 106.055 131.609Z" fill="#263238"/>
<path d="M106.055 137.113C106.055 137.22 95.6659 137.312 82.8571 137.312C70.0482 137.312 59.6552 137.22 59.6552 137.113C59.6552 137.006 70.0406 136.914 82.8571 136.914C95.6735 136.914 106.055 137.002 106.055 137.113Z" fill="#263238"/>
<path d="M106.055 142.613C106.055 142.724 95.6659 142.812 82.8571 142.812C70.0482 142.812 59.6552 142.724 59.6552 142.613C59.6552 142.503 70.0406 142.419 82.8571 142.419C95.6735 142.419 106.055 142.506 106.055 142.613Z" fill="#263238"/>
<path d="M106.716 148.855C106.716 148.962 96.3309 149.05 83.5221 149.05C70.7133 149.05 60.3202 148.962 60.3202 148.855C60.3202 148.748 70.7056 148.657 83.5221 148.657C96.3386 148.657 106.716 148.745 106.716 148.855Z" fill="#263238"/>
<path d="M81.1026 58.0966H59.9801V78.5311H81.1026V58.0966Z" fill="#455A64"/>
<g opacity="0.3">
<path opacity="0.3" d="M74.2758 64.2239C74.2758 64.5263 74.1861 64.8219 74.0181 65.0733C73.8501 65.3247 73.6113 65.5207 73.332 65.6364C73.0526 65.7522 72.7452 65.7824 72.4486 65.7234C72.152 65.6644 71.8795 65.5188 71.6657 65.305C71.4519 65.0912 71.3063 64.8187 71.2473 64.5221C71.1883 64.2256 71.2186 63.9181 71.3343 63.6388C71.45 63.3594 71.646 63.1206 71.8974 62.9526C72.1488 62.7846 72.4445 62.6949 72.7469 62.6949C73.1524 62.6949 73.5413 62.856 73.828 63.1427C74.1147 63.4295 74.2758 63.8184 74.2758 64.2239Z" fill="black"/>
</g>
<g opacity="0.3">
<path opacity="0.3" d="M79.4704 59.6982H61.6237L61.5205 59.8052V62.0986C61.5205 62.8631 61.5205 63.6276 61.5205 64.392V68.7954C61.5205 71.6584 61.5205 74.3647 61.5205 76.853V76.941H61.6084L74.5663 76.8951L78.1861 76.8721H79.1379H79.4552L75.1435 69.4147L72.2385 72.981L67.4605 66.2612L61.7269 76.7384C61.7269 74.2729 61.7269 71.6011 61.7269 68.7725C61.7269 67.3391 61.7269 65.8713 61.7269 64.3691V59.8854H79.3864C79.4055 64.9501 79.4208 69.1739 79.4322 72.14C79.4322 73.6269 79.4322 74.8157 79.4552 75.6108C79.4552 75.993 79.4552 76.3141 79.4552 76.532C79.4552 76.6313 79.4552 76.7078 79.4552 76.7689C79.4552 76.8301 79.4552 76.8492 79.4552 76.853C79.457 76.8276 79.457 76.802 79.4552 76.7766C79.4552 76.7193 79.4552 76.6428 79.4552 76.5511C79.4552 76.337 79.4552 76.035 79.4552 75.6452C79.4552 74.8386 79.4552 73.6766 79.4781 72.205C79.4781 69.2083 79.5049 64.9425 79.524 59.8128V59.7249L79.4704 59.6982Z" fill="black"/>
</g>
<path d="M107.301 58.0966H86.1787V78.5311H107.301V58.0966Z" fill="#455A64"/>
<g opacity="0.3">
<path opacity="0.3" d="M100.474 64.2239C100.474 64.5263 100.385 64.8219 100.217 65.0733C100.049 65.3247 99.8098 65.5207 99.5304 65.6364C99.2511 65.7522 98.9436 65.7824 98.647 65.7234C98.3505 65.6644 98.078 65.5188 97.8642 65.305C97.6504 65.0912 97.5048 64.8187 97.4458 64.5221C97.3868 64.2256 97.417 63.9181 97.5328 63.6388C97.6485 63.3594 97.8445 63.1206 98.0959 62.9526C98.3473 62.7846 98.6429 62.6949 98.9453 62.6949C99.3508 62.6949 99.7397 62.856 100.026 63.1427C100.313 63.4295 100.474 63.8184 100.474 64.2239Z" fill="black"/>
</g>
<g opacity="0.3">
<path opacity="0.3" d="M105.669 59.6982H87.8223C87.8452 59.6982 87.6312 59.8931 87.7229 59.8052V68.7916C87.7229 71.6546 87.7229 74.3608 87.7229 76.8492V76.9371H87.8108L100.773 76.8913L104.392 76.8683H105.34H105.658L101.342 69.4147L98.4409 72.981L93.6591 66.2612L87.9255 76.7384C87.9255 74.2729 87.9255 71.6011 87.9255 68.7725C87.9255 67.3404 87.9255 65.8726 87.9255 64.3691V59.8854H105.589C105.589 64.9501 105.619 69.1739 105.631 72.14C105.631 73.6269 105.65 74.8157 105.654 75.6108C105.654 75.993 105.654 76.3141 105.654 76.532C105.654 76.6313 105.654 76.7078 105.654 76.7689C105.654 76.8301 105.654 76.8492 105.654 76.853C105.654 76.8569 105.654 76.8301 105.654 76.7766C105.654 76.7231 105.654 76.6428 105.654 76.5511C105.654 76.337 105.654 76.035 105.654 75.6452C105.654 74.8386 105.654 73.6766 105.677 72.205C105.677 69.2083 105.703 64.9425 105.723 59.8128V59.7249L105.669 59.6982Z" fill="black"/>
</g>
<path d="M81.1026 82.3229H59.9801V102.757H81.1026V82.3229Z" fill="#455A64"/>
<g opacity="0.3">
<path opacity="0.3" d="M74.2758 88.4501C74.2758 88.7525 74.1861 89.0482 74.0181 89.2996C73.8501 89.551 73.6113 89.747 73.332 89.8627C73.0526 89.9784 72.7452 90.0087 72.4486 89.9497C72.152 89.8907 71.8795 89.7451 71.6657 89.5313C71.4519 89.3175 71.3063 89.045 71.2473 88.7484C71.1883 88.4518 71.2186 88.1444 71.3343 87.865C71.45 87.5857 71.646 87.3469 71.8974 87.1789C72.1488 87.0109 72.4445 86.9212 72.7469 86.9212C73.1524 86.9212 73.5413 87.0823 73.828 87.369C74.1147 87.6557 74.2758 88.0446 74.2758 88.4501Z" fill="black"/>
</g>
<g opacity="0.3">
<path opacity="0.3" d="M79.4705 83.9397H61.6237L61.5205 84.0429V86.3364C61.5205 87.1009 61.5205 87.8653 61.5205 88.6298V93.0332C61.5205 95.8924 61.5205 98.5986 61.5205 101.091V101.141H61.6084L74.5663 101.098L78.1861 101.076H79.1379H79.4552L75.1282 93.6563L72.2232 97.2264L67.4452 90.5066L61.7116 100.98C61.7116 98.5183 61.7116 95.8427 61.7116 93.0179C61.7116 91.5845 61.7116 90.1129 61.7116 88.6145V84.1117H79.3711C79.3902 89.1764 79.4055 93.3963 79.4169 96.3663C79.4169 97.8532 79.4169 99.042 79.4399 99.8371C79.4399 100.219 79.4399 100.537 79.4399 100.754C79.4399 100.854 79.4399 100.934 79.4399 100.995C79.4399 101.056 79.4399 101.076 79.4399 101.079C79.4415 101.054 79.4415 101.028 79.4399 101.003C79.4399 100.946 79.4399 100.869 79.4399 100.774C79.4399 100.56 79.4399 100.261 79.4399 99.8715C79.4399 99.0649 79.4399 97.8991 79.4628 96.4313C79.4628 93.4346 79.4896 89.1688 79.5087 84.0391V83.9397H79.4705Z" fill="black"/>
</g>
<path d="M107.29 82.3229H86.1672V102.757H107.29V82.3229Z" fill="#455A64"/>
<g opacity="0.3">
<path opacity="0.3" d="M100.463 88.4501C100.463 88.7525 100.373 89.0482 100.205 89.2996C100.037 89.551 99.7985 89.747 99.5191 89.8627C99.2397 89.9784 98.9323 90.0087 98.6357 89.9497C98.3391 89.8907 98.0667 89.7451 97.8528 89.5313C97.639 89.3175 97.4934 89.045 97.4344 88.7484C97.3754 88.4518 97.4057 88.1444 97.5214 87.865C97.6371 87.5857 97.8331 87.3469 98.0845 87.1789C98.336 87.0109 98.6316 86.9212 98.934 86.9212C99.3395 86.9212 99.7284 87.0823 100.015 87.369C100.302 87.6557 100.463 88.0446 100.463 88.4501Z" fill="black"/>
</g>
<g opacity="0.3">
<path opacity="0.3" d="M105.65 83.9397H87.8032L87.7 84.0429V88.6298C87.7 90.1282 87.7 91.5998 87.7 93.0332C87.7 95.8924 87.7 98.5986 87.7 101.091V101.141H87.7879L100.746 101.098L104.366 101.076H105.314H105.65L101.331 93.6448L98.4256 97.2149L93.6476 90.4951L87.914 100.968C87.914 98.5069 87.914 95.8312 87.914 93.0065C87.914 91.5731 87.914 90.1014 87.914 88.6031V84.1117H105.573C105.573 89.1764 105.608 93.3963 105.619 96.3663C105.619 97.8532 105.619 99.042 105.642 99.8371C105.642 100.219 105.642 100.537 105.642 100.754C105.642 100.854 105.642 100.934 105.642 100.995C105.638 101.023 105.638 101.051 105.642 101.079C105.644 101.054 105.644 101.028 105.642 101.003C105.642 100.946 105.642 100.869 105.642 100.774C105.642 100.56 105.642 100.261 105.642 99.8715C105.642 99.0649 105.642 97.8991 105.665 96.4313C105.665 93.4346 105.692 89.1688 105.707 84.0391V83.9397H105.65Z" fill="black"/>
</g>
<path d="M107.534 45.7617C107.23 45.7724 106.929 45.6919 106.671 45.5305C106.412 45.3691 106.208 45.1342 106.084 44.8559C105.96 44.5776 105.922 44.2687 105.975 43.9686C106.028 43.6686 106.169 43.3912 106.381 43.172C106.592 42.9528 106.864 42.8018 107.162 42.7383C107.46 42.6748 107.77 42.7018 108.053 42.8158C108.335 42.9298 108.577 43.1256 108.748 43.378C108.918 43.6305 109.01 43.9281 109.01 44.2328C109.012 44.5316 108.928 44.8247 108.769 45.0775L109.006 45.6394C109.013 45.6515 109.017 45.6654 109.017 45.6795C109.017 45.6937 109.013 45.7076 109.006 45.7197C108.995 45.7272 108.981 45.7313 108.968 45.7313C108.954 45.7313 108.941 45.7272 108.93 45.7197L108.402 45.475C108.152 45.6637 107.847 45.7645 107.534 45.7617ZM107.534 42.8223C107.163 42.8223 106.807 42.9697 106.545 43.2321C106.283 43.4944 106.135 43.8503 106.135 44.2213C106.135 44.5923 106.283 44.9482 106.545 45.2105C106.807 45.4729 107.163 45.6203 107.534 45.6203C107.823 45.616 108.101 45.5151 108.326 45.3336C108.336 45.3272 108.348 45.3238 108.36 45.3238C108.372 45.3238 108.384 45.3272 108.394 45.3336L108.8 45.5209L108.62 45.0852C108.614 45.0746 108.611 45.0628 108.611 45.0508C108.611 45.0387 108.614 45.0269 108.62 45.0164C108.778 44.7812 108.861 44.5044 108.861 44.2213C108.868 43.8606 108.733 43.5115 108.485 43.2497C108.236 42.9878 107.895 42.8343 107.534 42.8223Z" fill="#263238"/>
<path d="M112.832 45.8152C112.826 45.8178 112.82 45.8191 112.813 45.8191C112.806 45.8191 112.8 45.8178 112.794 45.8152L111.716 45.0508L110.642 45.8152C110.631 45.8216 110.618 45.825 110.606 45.825C110.593 45.825 110.58 45.8216 110.569 45.8152C110.559 45.8085 110.551 45.7995 110.545 45.7888C110.539 45.7782 110.535 45.7663 110.535 45.7541V42.8988C110.535 42.8805 110.542 42.863 110.555 42.8501C110.568 42.8372 110.585 42.83 110.604 42.83H112.832C112.85 42.83 112.868 42.8372 112.881 42.8501C112.894 42.863 112.901 42.8805 112.901 42.8988V45.7541C112.9 45.7667 112.897 45.779 112.89 45.7897C112.883 45.8005 112.874 45.8093 112.863 45.8152H112.832ZM111.716 44.8826C111.73 44.8787 111.744 44.8787 111.758 44.8826L112.763 45.6012V42.9484H110.669V45.6012L111.678 44.8826C111.69 44.8792 111.704 44.8792 111.716 44.8826Z" fill="#6CC2C3"/>
<path d="M54.4872 46.0063H54.579H54.8427L55.806 45.9796L55.7716 46.014C55.7716 45.7999 55.7716 45.5667 55.7716 45.3145C55.7716 45.1845 55.7716 45.066 55.7716 44.9093C55.788 44.8303 55.8291 44.7585 55.8888 44.7043C55.9485 44.6501 56.0239 44.6161 56.1041 44.6073C56.2608 44.6073 56.3946 44.6073 56.5666 44.6073C56.6578 44.6211 56.7409 44.6674 56.8006 44.7377C56.8603 44.8079 56.8926 44.8974 56.8915 44.9896C56.8915 45.3157 56.8915 45.6559 56.8915 46.0101L56.838 45.9528H58.0535L57.9962 46.0101C57.9962 45.5209 57.9962 45.0163 57.9962 44.4812C57.9962 44.3512 57.9962 44.2213 57.9962 44.0989C57.9905 44.0429 57.9724 43.9889 57.9433 43.9406C57.9143 43.8924 57.8749 43.8512 57.828 43.8199L57.2967 43.2924L56.7845 42.7879L56.536 42.5432C56.4481 42.4591 56.387 42.3751 56.2914 42.3559C56.245 42.3443 56.1967 42.3431 56.1497 42.3524C56.1028 42.3616 56.0585 42.3811 56.02 42.4095C55.9474 42.4668 55.8671 42.5585 55.7945 42.6273L55.3396 43.0401C55.0644 43.323 54.7739 43.5867 54.5752 43.8276C54.5127 43.9691 54.4915 44.1255 54.514 44.2786V44.7067C54.514 44.9628 54.514 45.196 54.514 45.3947C54.514 45.5935 54.514 45.712 54.514 45.8381C54.514 45.9643 54.514 45.9949 54.514 45.9987C54.5084 45.9504 54.5084 45.9017 54.514 45.8534C54.514 45.7311 54.514 45.5897 54.514 45.4215C54.514 45.2533 54.514 44.9857 54.4949 44.722C54.4949 44.5844 54.4949 44.4391 54.4949 44.2862C54.4684 44.1165 54.491 43.9428 54.5599 43.7855C54.7854 43.5065 55.053 43.2657 55.3243 42.9675L55.7563 42.5241C55.8366 42.4477 55.8977 42.3712 55.9933 42.291C56.0447 42.2529 56.104 42.2267 56.1667 42.2142C56.2295 42.2016 56.2942 42.203 56.3564 42.2183C56.4738 42.2605 56.5771 42.3346 56.6545 42.4324L56.903 42.677L57.419 43.1816C57.5949 43.3498 57.7707 43.5256 57.9503 43.7014C58.0085 43.7435 58.0568 43.7979 58.0918 43.8606C58.1268 43.9233 58.1476 43.9929 58.1529 44.0645C58.1529 44.1907 58.1529 44.3206 58.1529 44.4468C58.1529 44.9666 58.1529 45.475 58.1529 45.9757V46.0331H56.8227V45.9757C56.8227 45.6241 56.8227 45.2801 56.8227 44.9552C56.823 44.8872 56.7994 44.8213 56.7561 44.7689C56.7128 44.7165 56.6525 44.681 56.5857 44.6685C56.4481 44.6685 56.28 44.6685 56.1462 44.6685C56.0848 44.675 56.0271 44.7007 55.9811 44.7419C55.9352 44.783 55.9033 44.8376 55.8901 44.8978C55.8901 45.0163 55.8901 45.1616 55.8901 45.2801V46.014H55.8557H54.8733H54.6172C54.5102 46.0101 54.4834 46.0101 54.4872 46.0063Z" fill="#263238"/>
<path d="M102.867 41.5915H62.3612C61.2804 41.5915 60.4042 42.4677 60.4042 43.5486V44.7335C60.4042 45.8143 61.2804 46.6906 62.3612 46.6906H102.867C103.948 46.6906 104.824 45.8143 104.824 44.7335V43.5486C104.824 42.4677 103.948 41.5915 102.867 41.5915Z" fill="#E0E0E0"/>
<path d="M65.6753 44.0646V44.9514H65.2281V44.1372C65.2281 43.8849 65.1134 43.755 64.9147 43.755C64.7159 43.755 64.5324 43.8887 64.5324 44.1716V44.9361H64.0852V42.807H64.5324V43.5715C64.6648 43.448 64.8408 43.382 65.0217 43.388C65.1114 43.3806 65.2016 43.3932 65.2859 43.4249C65.3701 43.4567 65.4463 43.5067 65.5088 43.5714C65.5713 43.6362 65.6187 43.714 65.6475 43.7993C65.6763 43.8846 65.6858 43.9752 65.6753 44.0646Z" fill="#263238"/>
<path d="M67.0743 44.8711C66.9612 44.9453 66.8269 44.9802 66.692 44.9705C66.6157 44.9813 66.5379 44.9746 66.4645 44.9509C66.3912 44.9273 66.3242 44.8872 66.2686 44.8338C66.213 44.7804 66.1702 44.7151 66.1436 44.6427C66.117 44.5704 66.1071 44.4929 66.1149 44.4162V43.7817H65.897V43.4224H66.134V43.0402H66.5812V43.4224H66.9634V43.7664H66.5812V44.3971C66.5777 44.4235 66.5802 44.4504 66.5884 44.4758C66.5966 44.5012 66.6103 44.5244 66.6286 44.5438C66.6469 44.5632 66.6693 44.5783 66.6942 44.5879C66.719 44.5976 66.7457 44.6016 66.7723 44.5997C66.8381 44.6014 66.9026 44.5812 66.9558 44.5424L67.0743 44.8711Z" fill="#263238"/>
<path d="M68.2899 44.8711C68.1768 44.945 68.0425 44.98 67.9077 44.9705C67.8316 44.9807 67.7543 44.9735 67.6814 44.9495C67.6085 44.9256 67.542 44.8854 67.4869 44.8321C67.4317 44.7788 67.3893 44.7137 67.3629 44.6417C67.3365 44.5696 67.3267 44.4926 67.3343 44.4162V43.7817H67.0935V43.4224H67.3343V43.0402H67.8083V43.4224H68.1905V43.7664H67.8083V44.3971C67.8048 44.4235 67.8073 44.4504 67.8155 44.4758C67.8237 44.5012 67.8374 44.5244 67.8557 44.5438C67.874 44.5632 67.8964 44.5783 67.9213 44.5879C67.9461 44.5976 67.9728 44.6016 67.9994 44.5997C68.064 44.6014 68.1274 44.5812 68.1791 44.5424L68.2899 44.8711Z" fill="#263238"/>
<path d="M70.2241 44.1868C70.2282 44.2898 70.2114 44.3925 70.1749 44.4888C70.1383 44.5851 70.0826 44.673 70.0112 44.7473C69.9398 44.8215 69.8542 44.8806 69.7594 44.9209C69.6646 44.9612 69.5626 44.982 69.4596 44.9819C69.3729 44.9862 69.2864 44.9718 69.2059 44.9394C69.1254 44.9071 69.0528 44.8577 68.9932 44.7946V45.517H68.546V43.4224H68.955V43.602C69.0149 43.5331 69.0898 43.479 69.174 43.4439C69.2582 43.4088 69.3494 43.3935 69.4405 43.3994C69.5444 43.3968 69.6478 43.4154 69.7443 43.4541C69.8408 43.4927 69.9285 43.5507 70.0018 43.6244C70.0752 43.6981 70.1327 43.786 70.1709 43.8827C70.2091 43.9794 70.2272 44.0829 70.2241 44.1868ZM69.7692 44.1868C69.7604 44.1138 69.7307 44.0449 69.6837 43.9884C69.6367 43.9319 69.5744 43.8901 69.5042 43.868C69.4341 43.846 69.3591 43.8447 69.2882 43.8642C69.2173 43.8837 69.1536 43.9233 69.1046 43.9781C69.0556 44.033 69.0235 44.1008 69.0121 44.1734C69.0007 44.2461 69.0105 44.3204 69.0403 44.3877C69.0701 44.4549 69.1186 44.5121 69.1801 44.5524C69.2416 44.5927 69.3134 44.6144 69.387 44.6149C69.4413 44.6153 69.495 44.6042 69.5447 44.5822C69.5943 44.5601 69.6387 44.5278 69.6748 44.4873C69.711 44.4468 69.7381 44.399 69.7544 44.3472C69.7707 44.2954 69.7757 44.2408 69.7692 44.1868Z" fill="#263238"/>
<path d="M70.4113 43.6594C70.4113 43.5854 70.4407 43.5144 70.493 43.4621C70.5453 43.4098 70.6163 43.3804 70.6903 43.3804C70.7643 43.3804 70.8353 43.4098 70.8876 43.4621C70.9399 43.5144 70.9693 43.5854 70.9693 43.6594C70.9693 43.7334 70.9399 43.8044 70.8876 43.8567C70.8353 43.909 70.7643 43.9384 70.6903 43.9384C70.6163 43.9384 70.5453 43.909 70.493 43.8567C70.4407 43.8044 70.4113 43.7334 70.4113 43.6594ZM70.4113 44.6876C70.4113 44.6136 70.4407 44.5426 70.493 44.4903C70.5453 44.438 70.6163 44.4086 70.6903 44.4086C70.7643 44.4086 70.8353 44.438 70.8876 44.4903C70.9399 44.5426 70.9693 44.6136 70.9693 44.6876C70.9693 44.7616 70.9399 44.8326 70.8876 44.8849C70.8353 44.9373 70.7643 44.9667 70.6903 44.9667C70.6163 44.9667 70.5453 44.9373 70.493 44.8849C70.4407 44.8326 70.4113 44.7616 70.4113 44.6876Z" fill="#263238"/>
<path d="M72.0703 42.5318H72.4525L71.5046 45.2342H71.1223L72.0703 42.5318Z" fill="#263238"/>
<path d="M72.9875 42.5318H73.3698L72.4256 45.2342H72.0243L72.9875 42.5318Z" fill="#263238"/>
<path d="M54.3993 136.012C53.3577 135.011 52.081 134.288 50.6867 133.909C49.2924 133.531 47.8253 133.509 46.4205 133.847C45.0156 134.184 43.7183 134.869 42.6478 135.84C41.5773 136.81 40.7681 138.034 40.2947 139.399L41.3153 143.347C41.6975 142.002 42.5346 140.702 43.8189 140.148C45.1032 139.594 46.7048 139.9 48.0732 140.397C49.4417 140.893 50.7833 141.562 52.2358 141.65C53.6883 141.738 55.332 141.05 55.7639 139.663C56.1729 138.355 55.3855 136.964 54.3993 136.012Z" fill="#6CC2C3"/>
<g opacity="0.4">
<path opacity="0.4" d="M54.3993 136.012C53.3577 135.011 52.081 134.288 50.6867 133.909C49.2924 133.531 47.8253 133.509 46.4205 133.847C45.0156 134.184 43.7183 134.869 42.6478 135.84C41.5773 136.81 40.7681 138.034 40.2947 139.399L41.3153 143.347C41.6975 142.002 42.5346 140.702 43.8189 140.148C45.1032 139.594 46.7048 139.9 48.0732 140.397C49.4417 140.893 50.7833 141.562 52.2358 141.65C53.6883 141.738 55.332 141.05 55.7639 139.663C56.1729 138.355 55.3855 136.964 54.3993 136.012Z" fill="black"/>
</g>
<path d="M29.8022 149.184C27.6732 147.158 27.7764 143.634 28.8428 140.893C29.9093 138.153 32.2256 136.047 34.8172 134.659C37.3483 133.33 40.1474 132.592 43.0046 132.499C45.8617 132.407 48.7027 132.962 51.3146 134.124C50.0366 134.178 48.7914 134.545 47.6879 135.192C46.5844 135.839 45.6563 136.747 44.9848 137.835C43.8151 139.773 43.5552 142.128 42.5919 144.177C41.5029 146.487 39.5707 148.292 37.1921 149.222C34.8135 150.152 32.1692 150.136 29.8022 149.177" fill="#6CC2C3"/>
<path d="M28.7779 137.017C26.4194 134.231 26.1022 129.755 26.45 126.124C26.7979 122.492 27.6426 118.831 27.0692 115.226C26.7291 113.089 25.8996 111.052 25.6206 108.904C25.3415 106.756 25.7352 104.336 27.398 102.949C29.3092 101.358 32.3174 101.733 34.305 103.228C36.2927 104.722 37.4432 107.069 38.2841 109.408C40.1342 114.549 40.8107 120.249 39.2932 125.497C37.7758 130.745 34.2095 135.435 28.9728 137.017" fill="#6CC2C3"/>
<path d="M27.6464 159.875C27.6364 159.769 27.6364 159.661 27.6464 159.554C27.6464 159.344 27.6464 159.034 27.6464 158.633C27.677 157.834 27.7534 156.68 27.9331 155.262C28.1419 153.599 28.4443 151.949 28.839 150.319C29.3287 148.315 30.0873 146.387 31.0942 144.586C32.1054 142.793 33.3439 141.138 34.779 139.663C35.9476 138.455 37.2433 137.377 38.6434 136.448C39.232 136.043 39.7901 135.733 40.2908 135.446C40.7916 135.16 41.235 134.965 41.5943 134.789L42.4428 134.434C42.5395 134.386 42.6406 134.349 42.7448 134.323C42.6523 134.377 42.5565 134.425 42.4581 134.468C42.2555 134.567 41.9765 134.693 41.6287 134.85C41.2808 135.007 40.8413 135.259 40.3444 135.534C39.8474 135.81 39.3008 136.142 38.7198 136.555C35.645 138.653 33.0945 141.431 31.2662 144.674C29.0951 148.469 28.4988 152.464 28.0707 155.258C27.8719 156.672 27.7763 157.823 27.7228 158.618C27.6999 159 27.6808 159.31 27.6693 159.535C27.6707 159.649 27.663 159.763 27.6464 159.875Z" fill="#263238"/>
<path d="M7.28833 126.028C2.92316 128.662 2.93463 131.058 3.66471 133.325C4.39478 135.592 7.07428 137.147 9.29509 136.31C10.5527 135.833 11.4624 134.743 12.2383 133.635C13.0143 132.526 13.7444 131.341 14.8337 130.577C15.5941 130.013 16.5374 129.754 17.4788 129.85L7.28833 126.028Z" fill="#6CC2C3"/>
<path d="M17.4789 129.858L18.5988 130.279C18.2661 130.048 17.8813 129.903 17.4789 129.858Z" fill="#6CC2C3"/>
<g opacity="0.4">
<path opacity="0.4" d="M7.28833 126.028C2.92316 128.662 2.93463 131.058 3.66471 133.325C4.39478 135.592 7.07428 137.147 9.29509 136.31C10.5527 135.833 11.4624 134.743 12.2383 133.635C13.0143 132.526 13.7444 131.341 14.8337 130.577C15.5941 130.013 16.5374 129.754 17.4788 129.85L7.28833 126.028Z" fill="black"/>
</g>
<path d="M19.8946 130.955L15.8467 129.426L17.5056 129.648C17.9384 129.698 18.3521 129.854 18.7097 130.103L19.8946 130.955Z" fill="black"/>
<path d="M4.02022 128.918C5.16694 127.339 7.98022 126.88 9.75381 127.668C11.5274 128.455 12.8423 130.019 14.0081 131.574C15.174 133.13 16.3016 134.781 17.9299 135.863C19.5582 136.945 21.8096 137.342 23.4189 136.245C23.933 135.862 24.3636 135.378 24.6843 134.823C25.0051 134.267 25.2092 133.652 25.2842 133.015C25.4302 131.736 25.3434 130.441 25.0281 129.193C24.6458 127.362 24.0151 125.451 22.5473 124.285C20.9152 122.989 18.6485 122.928 16.5653 122.997C14.1725 123.073 11.7453 123.253 9.50153 124.083C7.25778 124.912 4.96435 126.701 4.01257 128.899" fill="#6CC2C3"/>
<path d="M24.0152 156.378C24.0101 156.346 24.0101 156.314 24.0152 156.282V155.999C24.0152 155.74 24.0152 155.376 23.9808 154.918C23.9502 153.958 23.912 152.601 23.8661 150.931C23.8202 149.261 23.7438 147.246 23.6215 145.025C23.4991 142.805 23.331 140.362 22.9946 137.82C22.8519 136.582 22.6103 135.358 22.2722 134.158C21.9154 133.051 21.4587 131.979 20.9076 130.955C20.4204 130.025 19.8552 129.137 19.2181 128.302C18.6585 127.581 18.0424 126.905 17.3757 126.28C16.3992 125.39 15.2983 124.647 14.1075 124.075C13.8935 123.975 13.7062 123.88 13.5418 123.815L13.1137 123.647L12.8538 123.544L12.7659 123.501L12.8576 123.524L13.129 123.612L13.5609 123.761C13.7329 123.823 13.9202 123.914 14.1381 124.006C15.3532 124.564 16.4759 125.303 17.4674 126.2C18.1478 126.824 18.7767 127.501 19.348 128.226C19.9966 129.066 20.5709 129.962 21.0643 130.902C21.6185 131.934 22.0754 133.015 22.4289 134.132C22.7738 135.339 23.0193 136.573 23.1628 137.82C23.4991 140.374 23.6597 142.816 23.7744 145.041C23.889 147.265 23.9387 149.272 23.9769 150.954C24.0152 152.636 24.0228 154.012 24.0266 154.944C24.0266 155.403 24.0266 155.762 24.0266 156.026C24.0266 156.141 24.0266 156.233 24.0266 156.309C24.026 156.332 24.0221 156.356 24.0152 156.378Z" fill="#263238"/>
<path d="M25.5861 158.354C25.3786 157.742 25.2189 157.114 25.1083 156.477C24.8072 154.738 24.7403 152.967 24.9096 151.21C25.1777 148.608 25.7354 146.044 26.5723 143.565C27.4706 140.756 28.6861 137.751 29.7258 134.521C30.2379 132.952 30.6565 131.354 30.9795 129.736C31.269 128.227 31.4757 126.703 31.5987 125.172C31.7976 122.575 31.8436 119.969 31.7363 117.367C31.6637 115.142 31.5452 113.342 31.4688 112.099C31.4344 111.488 31.4076 111.01 31.3847 110.67C31.3847 110.513 31.3847 110.391 31.3847 110.287C31.3796 110.246 31.3796 110.203 31.3847 110.161C31.3904 110.203 31.3904 110.246 31.3847 110.287C31.3847 110.379 31.4076 110.505 31.4229 110.67C31.4497 111.01 31.4917 111.488 31.5414 112.099C31.6408 113.342 31.7784 115.138 31.8701 117.363C31.999 119.972 31.9671 122.586 31.7746 125.191C31.6538 126.73 31.4496 128.261 31.163 129.778C30.8423 131.405 30.4237 133.01 29.9092 134.586C28.8657 137.824 27.6426 140.825 26.7405 143.623C25.9004 146.084 25.3326 148.629 25.0472 151.214C24.8673 152.959 24.9135 154.721 25.1848 156.454C25.2918 157.066 25.3912 157.54 25.4753 157.857C25.5135 158.006 25.5403 158.129 25.5632 158.239C25.5754 158.277 25.5831 158.315 25.5861 158.354Z" fill="#263238"/>
<path d="M36.4149 160.326H15.9116L15.4414 156.378H36.4149V160.326Z" fill="#455A64"/>
<path d="M18.1096 159.875L20.6744 171.713H31.8167L34.2134 159.875H18.1096Z" fill="#455A64"/>
<path d="M36.4149 160.326C36.4149 160.38 31.9045 160.411 26.3467 160.395C20.789 160.38 16.2786 160.323 16.2786 160.269C16.2786 160.216 20.7852 160.185 26.3467 160.2C31.9083 160.216 36.4149 160.273 36.4149 160.326Z" fill="#455A64"/>
<path d="M32.8944 166.171C32.3385 165.752 31.7324 165.404 31.0902 165.135C30.3895 164.859 29.6454 164.708 28.8924 164.692C27.9704 164.695 27.0564 164.863 26.1938 165.189C25.2573 165.506 24.3858 165.873 23.5372 166.075C22.7834 166.238 22.006 166.262 21.2438 166.144C20.7299 166.07 20.2316 165.912 19.7683 165.678C19.6442 165.612 19.5253 165.537 19.4128 165.452C19.3326 165.391 19.2943 165.361 19.302 165.353C19.3096 165.345 19.474 165.456 19.8027 165.609C20.2676 165.809 20.7598 165.937 21.2629 165.991C22.0087 166.087 22.7657 166.051 23.499 165.884C24.3208 165.678 25.1923 165.307 26.1364 164.99C27.0193 164.656 27.9563 164.489 28.9 164.497C29.6717 164.523 30.4321 164.69 31.1438 164.99C31.6212 165.185 32.071 165.442 32.4816 165.754C32.5924 165.84 32.6984 165.932 32.7988 166.029C32.8638 166.121 32.8982 166.163 32.8944 166.171Z" fill="#263238"/>
<path d="M32.7378 166.958C32.201 166.554 31.6201 166.212 31.0063 165.938C30.3335 165.663 29.6154 165.515 28.8887 165.502C27.9964 165.505 27.1116 165.664 26.2742 165.972C25.3721 166.274 24.5235 166.626 23.717 166.844C22.9997 167.05 22.2526 167.132 21.5077 167.088C21.0049 167.061 20.5131 166.931 20.0628 166.706C19.9411 166.643 19.8247 166.57 19.715 166.488C19.6423 166.431 19.6041 166.4 19.6079 166.396C19.6117 166.393 19.7799 166.492 20.0934 166.637C20.5435 166.83 21.0257 166.938 21.5153 166.954C22.2433 166.978 22.9702 166.882 23.6673 166.672C24.4585 166.45 25.2995 166.094 26.213 165.789C27.0697 165.474 27.9762 165.318 28.8887 165.326C29.6359 165.348 30.3718 165.514 31.056 165.815C31.5147 166.013 31.9453 166.27 32.3365 166.58C32.4436 166.661 32.5446 166.751 32.6385 166.847C32.7111 166.92 32.7417 166.954 32.7378 166.958Z" fill="white"/>
<path d="M33.0972 165.383C32.5212 164.952 31.8995 164.586 31.2433 164.29C30.5289 163.984 29.7676 163.802 28.9919 163.751C28.0401 163.731 27.0935 163.897 26.2054 164.241C25.3079 164.594 24.3902 164.894 23.4571 165.139C22.6715 165.273 21.8689 165.273 21.0834 165.139C20.5522 165.057 20.0366 164.895 19.5544 164.657C19.4202 164.593 19.2923 164.516 19.1722 164.428C19.0919 164.371 19.0537 164.336 19.0575 164.328C19.0613 164.321 19.2372 164.435 19.5735 164.588C20.0624 164.795 20.5766 164.935 21.1025 165.005C21.8721 165.114 22.6542 165.099 23.4189 164.959C24.3418 164.704 25.2514 164.403 26.1442 164.057C27.0549 163.705 28.0274 163.54 29.0034 163.572C29.797 163.631 30.5737 163.832 31.2968 164.164C31.7835 164.383 32.2417 164.66 32.6614 164.99C32.7777 165.076 32.8875 165.17 32.9901 165.273C33.0666 165.357 33.101 165.38 33.0972 165.383Z" fill="white"/>
<path d="M36.5946 160.342C36.5946 160.395 31.981 160.441 26.2933 160.441C20.6056 160.441 15.9919 160.395 15.9919 160.342C15.9919 160.288 20.6056 160.246 26.3124 160.246C32.0192 160.246 36.5946 160.288 36.5946 160.342Z" fill="#263238"/>
<path d="M128.038 71.4138L127.155 54.7329C127.14 53.3737 126.95 52.0221 126.589 50.7117C126.218 49.3891 125.348 48.2625 124.162 47.5697C122.954 46.9428 121.325 47.0537 120.397 48.0437L121.054 48.9458C120.514 59.1566 120.284 69.3777 120.366 79.609C120.366 80.3735 120.397 81.1953 120.844 81.8145C121.608 82.858 123.137 82.8465 124.406 82.728C125.503 82.6287 126.749 82.4452 127.361 81.5316C127.593 81.1388 127.744 80.7034 127.804 80.2511C128.347 77.3461 128.202 74.3838 128.038 71.4138Z" fill="#263238"/>
<path d="M122.744 49.9204C122.585 49.5303 122.349 49.1765 122.049 48.8808C121.75 48.585 121.393 48.3535 121.001 48.2004C120.202 47.9404 119.196 48.2501 118.849 49.0145L120.733 51.1398C120.919 51.4528 121.191 51.7062 121.517 51.8699C121.681 51.9489 121.862 51.9851 122.044 51.9751C122.226 51.965 122.402 51.9091 122.556 51.8125C122.694 51.7083 122.806 51.5731 122.883 51.4177C122.959 51.2623 122.998 51.0912 122.996 50.9181C122.988 50.5707 122.902 50.2296 122.744 49.9204Z" fill="#6CC2C3"/>
<path d="M125.909 58.7922C125.584 55.1916 123.68 51.6864 120.63 49.7446C117.58 47.8029 113.417 47.627 110.367 49.5382C108.444 50.8275 106.992 52.7051 106.227 54.8896C105.424 57.0454 105.772 58.8305 105.791 61.1277C105.791 62.3203 105.952 65.5197 106.98 66.1198L123.034 68.998C125.075 66.0433 126.237 62.3929 125.909 58.7922Z" fill="#263238"/>
<path d="M125.35 56.0363C124.968 53.8958 122.897 51.8317 121.268 50.383C119.41 48.747 119.147 48.8196 116.681 48.7585C114.071 48.6897 111.219 48.7011 109.182 50.3371C108.035 51.243 107.32 52.5503 106.732 53.869C105.371 56.9269 105.585 60.4168 105.994 63.7346C106.403 67.0524 107.114 70.1868 109.816 72.1439L121.234 70.3779C123.753 69.4414 124.594 66.5555 125.305 63.9754C126.016 61.3953 125.794 58.6776 125.35 56.0363Z" fill="#263238"/>
<path d="M106.376 58.1577C106.537 55.0195 109.877 51.8469 113.008 52.1374L123.172 53.9454V55.6349L123.286 76.7192C119.425 77.6062 115.509 78.2307 111.563 78.5884L111.475 74.3608C111.475 74.3608 107.458 73.7416 106.563 68.524C106.12 65.9133 106.196 61.6475 106.376 58.1577Z" fill="#FFBE9D"/>
<path d="M108.28 62.3165C108.281 62.491 108.349 62.6583 108.471 62.7831C108.593 62.9079 108.759 62.9805 108.933 62.9854C109.019 62.9911 109.105 62.9796 109.186 62.9515C109.267 62.9235 109.342 62.8795 109.405 62.8221C109.469 62.7647 109.521 62.6952 109.557 62.6175C109.594 62.5399 109.614 62.4557 109.618 62.37C109.618 62.1952 109.549 62.0273 109.427 61.9023C109.305 61.7773 109.139 61.7051 108.964 61.7011C108.878 61.6954 108.793 61.7069 108.711 61.735C108.63 61.763 108.556 61.807 108.492 61.8644C108.428 61.9217 108.377 61.9913 108.34 62.069C108.304 62.1466 108.283 62.2308 108.28 62.3165Z" fill="#263238"/>
<path d="M107.508 60.3671C107.592 60.455 108.096 60.0727 108.819 60.0651C109.541 60.0575 110.072 60.4129 110.153 60.325C110.233 60.2371 110.103 60.1263 109.87 59.9619C109.555 59.7501 109.183 59.6407 108.803 59.6485C108.427 59.6512 108.062 59.7729 107.76 59.9963C107.561 60.1721 107.466 60.3288 107.508 60.3671Z" fill="#263238"/>
<path d="M114.701 62.3165C114.702 62.4916 114.772 62.6595 114.894 62.7844C115.017 62.9093 115.184 62.9814 115.359 62.9854C115.444 62.9911 115.53 62.9796 115.611 62.9515C115.692 62.9235 115.767 62.8795 115.831 62.8221C115.895 62.7647 115.946 62.6952 115.983 62.6175C116.019 62.5399 116.04 62.4557 116.043 62.37C116.042 62.1955 115.973 62.0282 115.852 61.9034C115.73 61.7786 115.564 61.706 115.389 61.7011C115.304 61.6954 115.218 61.7069 115.136 61.7349C115.055 61.7629 114.98 61.8069 114.916 61.8642C114.852 61.9215 114.8 61.991 114.763 62.0687C114.726 62.1464 114.705 62.2306 114.701 62.3165Z" fill="#263238"/>
<path d="M114.606 60.4168C114.69 60.5047 115.194 60.1224 115.917 60.1148C116.639 60.1071 117.171 60.4626 117.247 60.3747C117.323 60.2868 117.201 60.1759 116.968 60.0116C116.652 59.7993 116.278 59.6898 115.898 59.6982C115.523 59.7009 115.159 59.8227 114.858 60.046C114.636 60.218 114.564 60.3785 114.606 60.4168Z" fill="#263238"/>
<path d="M112.049 65.8025C111.668 65.6858 111.273 65.619 110.875 65.6037C110.692 65.6037 110.516 65.554 110.493 65.4279C110.473 65.2382 110.513 65.047 110.608 64.8813L111.135 63.4708C111.869 61.4641 112.396 59.8128 112.316 59.7822C112.236 59.7516 111.575 61.357 110.841 63.3676L110.336 64.7857C110.225 65.0092 110.194 65.2644 110.248 65.5082C110.277 65.573 110.319 65.6308 110.373 65.6771C110.426 65.7234 110.49 65.7571 110.558 65.7757C110.66 65.8019 110.766 65.8148 110.871 65.8139C111.263 65.8601 111.658 65.8562 112.049 65.8025Z" fill="#263238"/>
<path d="M111.475 74.3609C114 74.3713 116.479 73.6919 118.646 72.3961C118.646 72.3961 116.922 76.0809 111.502 75.6643L111.475 74.3609Z" fill="#EB996E"/>
<path d="M112.377 67.5379C112.511 67.3654 112.687 67.2294 112.887 67.1425C113.088 67.0557 113.307 67.0207 113.524 67.041C113.683 67.053 113.839 67.0971 113.981 67.1706C114.123 67.2442 114.248 67.3457 114.35 67.4691C114.446 67.5888 114.505 67.735 114.517 67.8885C114.529 68.0419 114.495 68.1955 114.419 68.3291C114.304 68.4607 114.153 68.5551 113.985 68.6C113.817 68.645 113.639 68.6385 113.474 68.5814C113.133 68.4639 112.817 68.2808 112.546 68.0424C112.463 67.9863 112.391 67.915 112.335 67.8322C112.308 67.7922 112.293 67.7449 112.293 67.6965C112.293 67.6481 112.308 67.6008 112.335 67.5608" fill="#EB996E"/>
<path d="M114.181 66.2765C114.063 66.2765 114.071 67.041 113.417 67.6182C112.763 68.1953 111.919 68.1074 111.915 68.2144C111.915 68.2641 112.102 68.3635 112.454 68.3712C112.913 68.3719 113.359 68.2109 113.711 67.9163C114.048 67.6332 114.262 67.2303 114.308 66.7925C114.323 66.4638 114.235 66.2688 114.181 66.2765Z" fill="#263238"/>
<path d="M114.419 58.3794C114.491 58.5744 115.214 58.475 116.058 58.5667C116.903 58.6584 117.587 58.8801 117.706 58.7043C117.755 58.6202 117.633 58.4367 117.354 58.2494C116.985 58.0157 116.566 57.8741 116.131 57.8366C115.697 57.7906 115.259 57.8469 114.85 58.001C114.541 58.131 114.388 58.2877 114.419 58.3794Z" fill="#263238"/>
<path d="M107.5 57.894C107.63 58.0545 108.123 57.894 108.723 57.8634C109.323 57.8328 109.828 57.959 109.942 57.787C109.992 57.7029 109.912 57.5385 109.686 57.3856C109.389 57.2009 109.042 57.1115 108.692 57.1295C108.341 57.1398 108.001 57.2601 107.722 57.4735C107.511 57.6417 107.443 57.8137 107.5 57.894Z" fill="#263238"/>
<path d="M109.889 50.6849C107.978 51.9884 106.632 54.1251 105.982 56.4911L106.304 58.4291C106.751 57.4926 106.808 56.4873 107.733 55.5279C108.577 54.7584 109.605 54.2199 110.718 53.9645C114.204 53.0777 115.378 51.8125 116.918 49.5344C114.659 48.9648 111.815 49.3777 109.889 50.6849Z" fill="#263238"/>
<path d="M124.934 55.7917C124.42 54.0469 123.419 52.4845 122.05 51.2871C120.681 50.0897 118.999 49.3068 117.201 49.0298L116.918 49.5306L114.269 52.6267C114.026 52.8641 113.854 53.1646 113.772 53.4944C113.759 53.7211 113.803 53.9475 113.902 54.1522C114 54.3568 114.149 54.533 114.334 54.6641C115.175 55.3521 116.349 55.3941 117.434 55.4285C118.52 55.4629 119.705 55.547 120.492 56.2886C121.475 57.2136 121.452 58.7846 121.123 60.111C120.78 61.6738 120.67 63.2788 120.798 64.8737C120.92 66.0777 122.51 63.1536 123.558 63.7613C123.848 63.9295 123.061 68.654 123.367 68.5088C123.672 68.3635 123.638 66.6664 123.749 66.3491C124.326 64.6496 124.78 62.9111 125.11 61.1468C125.439 59.3701 125.379 57.543 124.934 55.7917Z" fill="#263238"/>
<path d="M121.964 64.8775C121.979 64.6139 122.06 64.3585 122.201 64.135C122.341 63.9115 122.536 63.7274 122.767 63.5998C122.998 63.4723 123.258 63.4054 123.522 63.4056C123.786 63.4058 124.045 63.4729 124.276 63.6008C124.812 63.9219 125.213 64.564 125.136 65.7719C124.934 68.9904 121.742 68.1227 121.746 68.0309C121.75 67.9392 121.868 66.2115 121.964 64.8775Z" fill="#FFBE9D"/>
<path d="M122.801 66.8689C122.801 66.8689 122.854 66.9148 122.946 66.9645C123.075 67.0291 123.225 67.0415 123.363 66.9989C123.711 66.8957 124.036 66.3759 124.089 65.7987C124.115 65.523 124.08 65.245 123.986 64.9845C123.963 64.8831 123.917 64.7885 123.851 64.7087C123.784 64.6289 123.699 64.5662 123.604 64.5258C123.541 64.504 123.472 64.505 123.41 64.5288C123.348 64.5525 123.296 64.5975 123.263 64.6558C123.214 64.7437 123.229 64.8087 123.214 64.8125C123.198 64.8163 123.145 64.7552 123.183 64.6252C123.204 64.5456 123.253 64.4762 123.321 64.4303C123.415 64.37 123.528 64.3481 123.638 64.3691C123.768 64.4043 123.887 64.4723 123.984 64.5667C124.08 64.661 124.151 64.7786 124.188 64.9081C124.308 65.1956 124.355 65.5079 124.326 65.8178C124.261 66.4638 123.886 67.0486 123.413 67.1518C123.325 67.1722 123.234 67.1721 123.146 67.1515C123.059 67.131 122.977 67.0905 122.908 67.0333C122.801 66.9492 122.789 66.8766 122.801 66.8689Z" fill="#EB996E"/>
<path d="M122.778 51.5641C123.211 52.0683 123.595 52.6122 123.925 53.1886C124.292 53.8103 124.608 54.461 124.869 55.1342C125.19 55.9575 125.431 56.8101 125.588 57.6799C125.88 59.2634 125.863 60.8884 125.538 62.4655C125.511 62.61 125.477 62.7529 125.435 62.8937C125.396 63.0236 125.362 63.1498 125.331 63.2759C125.279 63.479 125.213 63.6783 125.133 63.8722L124.995 64.2544L124.942 64.3806C124.948 64.3348 124.959 64.2899 124.976 64.2468C125.007 64.1512 125.049 64.0289 125.098 63.8645C125.168 63.669 125.228 63.4699 125.278 63.2682L125.373 62.886C125.413 62.7451 125.445 62.6022 125.469 62.4579C125.774 60.8895 125.781 59.2779 125.492 57.7067C125.334 56.842 125.098 55.9937 124.785 55.1724C124.527 54.5035 124.221 53.8545 123.867 53.2306L123.65 52.8484L123.436 52.5235L123.252 52.2368C123.195 52.1489 123.137 52.0763 123.088 52.0075L122.855 51.6864L122.778 51.5641Z" fill="#455A64"/>
<path d="M123.091 52.5464C123.087 52.5787 123.081 52.6106 123.072 52.642C123.046 52.7362 123.002 52.8244 122.942 52.9019C122.714 53.1771 122.407 53.3758 122.063 53.4715C121.635 53.6129 121.123 53.739 120.534 53.8537C119.905 53.9911 119.266 54.083 118.623 54.1289C117.986 54.1772 117.345 54.1593 116.712 54.0754C116.19 54.0034 115.677 53.8752 115.183 53.6932C114.853 53.5719 114.534 53.421 114.231 53.2421C114.148 53.1951 114.067 53.1428 113.99 53.0854C113.937 53.051 113.906 53.0281 113.91 53.0242C113.914 53.0204 114.028 53.0931 114.25 53.2077C114.557 53.3736 114.876 53.5142 115.206 53.6282C115.695 53.7957 116.199 53.9136 116.712 53.9798C117.346 54.0598 117.986 54.0765 118.623 54.0295C119.772 53.9319 120.908 53.7181 122.013 53.3912C122.349 53.3033 122.652 53.1201 122.885 52.8637C122.968 52.7678 123.037 52.6611 123.091 52.5464Z" fill="#455A64"/>
<path d="M122.51 51.4495C122.51 51.4495 122.51 51.4724 122.457 51.5144C122.403 51.5565 122.365 51.6176 122.289 51.6864C122.07 51.8856 121.831 52.06 121.574 52.2063C120.713 52.6786 119.746 52.9221 118.764 52.9134C117.79 52.9066 116.821 52.7782 115.879 52.5312C115.519 52.4395 115.229 52.3592 115.026 52.3019C114.922 52.2761 114.82 52.2429 114.72 52.2025C114.828 52.2137 114.934 52.2342 115.038 52.2636L115.894 52.4624C116.832 52.6973 117.794 52.8255 118.761 52.8446C119.727 52.8492 120.681 52.6197 121.539 52.1757C121.887 51.9676 122.213 51.7242 122.51 51.4495Z" fill="#455A64"/>
<path d="M121.849 51.0672C121.777 51.1007 121.701 51.1263 121.624 51.1436C121.475 51.1895 121.241 51.2468 120.985 51.3042C119.562 51.5989 118.093 51.5898 116.674 51.2774C116.402 51.2201 116.184 51.1589 116.035 51.113C115.958 51.0936 115.882 51.0668 115.81 51.0328C115.89 51.0372 115.97 51.0513 116.047 51.0748C116.196 51.113 116.429 51.1589 116.685 51.2086C117.392 51.345 118.11 51.4154 118.83 51.4188C119.547 51.4204 120.263 51.359 120.97 51.2354C121.245 51.1857 121.463 51.1436 121.612 51.1092C121.689 51.0857 121.769 51.0716 121.849 51.0672Z" fill="#455A64"/>
<path d="M117.553 48.3342C117.534 48.4127 117.509 48.4895 117.476 48.5635C117.419 48.7088 117.327 48.9152 117.205 49.1636C116.541 50.4686 115.569 51.5918 114.373 52.4356C114.143 52.5961 113.952 52.7146 113.818 52.7911C113.749 52.8342 113.676 52.8713 113.6 52.9019C113.66 52.8475 113.725 52.8 113.795 52.7605C113.925 52.6726 114.113 52.5464 114.334 52.3783C114.912 51.9459 115.441 51.4525 115.913 50.9066C116.385 50.3617 116.797 49.767 117.14 49.133C117.274 48.8884 117.373 48.6858 117.442 48.5482C117.47 48.4724 117.507 48.4005 117.553 48.3342Z" fill="#455A64"/>
<path d="M106.112 55.2489C106.112 55.2489 106.112 55.2145 106.166 55.1648C106.219 55.1151 106.261 55.0348 106.342 54.9393C106.563 54.665 106.797 54.4022 107.045 54.1519C107.412 53.7792 107.812 53.4414 108.241 53.1427C108.496 52.9686 108.762 52.8103 109.036 52.6688C109.334 52.52 109.642 52.3923 109.958 52.2865C111.067 51.9278 112.237 51.7978 113.398 51.9043C113.748 51.9364 114.095 51.9926 114.437 52.0725C114.56 52.0992 114.652 52.1298 114.713 52.1451C114.746 52.1518 114.778 52.1634 114.808 52.1795C114.808 52.1795 114.674 52.1566 114.426 52.1107C114.082 52.0462 113.735 52.0003 113.386 51.9731C112.237 51.8795 111.081 52.0093 109.981 52.3553C108.888 52.7277 107.898 53.3494 107.087 54.171C106.77 54.4806 106.529 54.7443 106.365 54.9354L106.173 55.1495C106.156 55.1843 106.135 55.2175 106.112 55.2489Z" fill="#455A64"/>
<path d="M108.528 51.7858C108.606 51.7267 108.688 51.6731 108.773 51.6252C108.875 51.5608 108.981 51.5021 109.09 51.4494C109.212 51.3882 109.346 51.3118 109.503 51.2468C109.659 51.1818 109.828 51.1016 110.019 51.0366C110.218 50.9601 110.421 50.8938 110.627 50.8378C111.569 50.5722 112.551 50.4751 113.528 50.5511C113.749 50.5741 113.964 50.5932 114.162 50.6314C114.361 50.6696 114.545 50.7002 114.709 50.7384C114.859 50.77 115.007 50.8096 115.152 50.8569C115.264 50.8869 115.373 50.9226 115.481 50.964C115.574 50.994 115.665 51.0311 115.752 51.0748C115.655 51.0602 115.559 51.0359 115.466 51.0022C115.358 50.9644 115.248 50.9337 115.137 50.9104C115.007 50.876 114.858 50.834 114.694 50.8034C114.529 50.7728 114.346 50.7346 114.151 50.7117C113.956 50.6887 113.742 50.662 113.52 50.6429C113.038 50.607 112.554 50.607 112.071 50.6429C111.591 50.6939 111.116 50.782 110.649 50.9066C110.435 50.9678 110.229 51.0213 110.046 51.0939C109.862 51.1665 109.686 51.2277 109.53 51.2927C109.373 51.3577 109.239 51.4226 109.117 51.48C108.994 51.5373 108.891 51.587 108.807 51.6329C108.721 51.6957 108.627 51.7471 108.528 51.7858Z" fill="#455A64"/>
<path d="M124.513 67.6793C124.575 67.6487 124.67 67.6793 124.777 67.7978C124.929 67.9679 125.029 68.1772 125.068 68.4017C125.097 68.5686 125.097 68.7393 125.068 68.9063C125.033 69.1147 124.951 69.3123 124.827 69.4834C124.684 69.6797 124.493 69.8362 124.273 69.9383C124.012 70.0606 123.718 70.0877 123.439 70.0148C123.167 69.9407 122.928 69.7779 122.759 69.5522C122.614 69.3619 122.518 69.1387 122.48 68.9024C122.452 68.7156 122.462 68.5251 122.509 68.342C122.555 68.1589 122.638 67.9869 122.751 67.836C122.883 67.6511 123.061 67.5047 123.267 67.4117C123.413 67.3544 123.512 67.362 123.554 67.4117C123.596 67.4614 123.466 67.794 123.363 68.1571C123.309 68.3366 123.309 68.5279 123.363 68.7075C123.388 68.7876 123.43 68.8612 123.487 68.9227C123.544 68.9843 123.614 69.0322 123.692 69.063C123.758 69.0812 123.828 69.0812 123.894 69.063C123.979 69.0313 124.057 68.9833 124.124 68.9216C124.253 68.7908 124.338 68.622 124.364 68.4399C124.445 68.0577 124.38 67.7404 124.513 67.6793Z" fill="#6CC2C3"/>
<path d="M103.819 93.0714L106.235 103.87L105.092 111.117H131.623L129.891 77.285L123.275 76.7231L107.114 79.4484L103.819 93.0714Z" fill="#6CC2C3"/>
<path d="M110.569 79.2535C110.569 79.2535 103.658 78.619 100.367 83.3243C98.353 86.1988 95.5244 92.8077 95.5244 92.8077L104.725 94.394L110.569 79.2535Z" fill="#6CC2C3"/>
<g opacity="0.3">
<path opacity="0.3" d="M119.82 89.4746C121.761 91.8712 122.675 94.9138 123.944 97.7271C125.58 101.351 127.847 104.649 130.098 107.925C130.266 108.17 130.48 108.445 130.794 108.411C131.107 108.376 131.256 108.028 131.336 107.726C131.776 105.853 131.643 103.89 130.954 102.092C130.265 100.305 129.339 98.6186 128.202 97.0773C126.475 94.6017 124.558 92.2642 122.468 90.0861C122.124 89.6667 121.682 89.3385 121.18 89.1306C120.927 89.032 120.647 89.0267 120.39 89.1157C120.133 89.2046 119.916 89.3819 119.777 89.616" fill="black"/>
</g>
<g opacity="0.3">
<path opacity="0.3" d="M106.143 101.993C106.589 100.227 107.037 98.461 107.488 96.6951C107.56 96.3381 107.683 95.9932 107.852 95.6707C108.104 95.288 108.421 94.9518 108.788 94.6768C109.199 94.2852 109.683 93.9798 110.214 93.7786C110.668 93.7053 111.116 93.594 111.552 93.446C112.117 93.1632 112.419 92.5478 112.653 91.9591C112.828 91.5081 112.977 90.9729 112.721 90.5639C112.573 90.3876 112.384 90.2492 112.172 90.1601C111.959 90.0711 111.728 90.0339 111.498 90.0518C110.435 90.0376 109.389 90.3257 108.483 90.8826C107.577 91.4395 106.848 92.2423 106.38 93.1976C105.692 94.673 105.692 96.3663 105.703 97.9947L105.742 102.348" fill="black"/>
</g>
<path d="M114.629 102.199C114.629 102.176 114.269 102.238 113.688 102.283C112.933 102.34 112.174 102.32 111.422 102.226C110.672 102.125 109.934 101.949 109.22 101.699C108.67 101.507 108.341 101.355 108.329 101.378C108.318 101.4 108.402 101.439 108.547 101.515C108.752 101.624 108.962 101.721 109.178 101.806C109.893 102.09 110.64 102.285 111.403 102.387C112.164 102.482 112.935 102.482 113.696 102.387C113.926 102.362 114.155 102.323 114.38 102.268C114.545 102.238 114.633 102.211 114.629 102.199Z" fill="#263238"/>
<path d="M126.207 102.669C126.207 102.624 122.438 103.694 117.82 105.058C113.203 106.423 109.472 107.566 109.472 107.608C109.472 107.65 113.241 106.584 117.859 105.219C122.476 103.854 126.218 102.719 126.207 102.669Z" fill="#263238"/>
<g opacity="0.3">
<path opacity="0.3" d="M108.708 101.561C108.919 102.119 109.281 102.607 109.753 102.971C110.226 103.335 110.79 103.56 111.384 103.621C111.985 103.686 112.592 103.585 113.141 103.329C113.689 103.074 114.157 102.674 114.495 102.173C112.545 102.463 110.554 102.252 108.708 101.561Z" fill="black"/>
</g>
<g opacity="0.3">
<path opacity="0.3" d="M110.493 107.279L110.588 107.317C112.958 107.742 115.175 107.317 117.446 106.511C119.716 105.704 121.834 104.539 123.944 103.357L110.493 107.279Z" fill="black"/>
</g>
<path d="M124.597 107.016C124.649 107.242 124.649 107.477 124.597 107.704C124.503 108.255 124.296 108.78 123.988 109.247C123.68 109.713 123.278 110.111 122.809 110.414C122.623 110.552 122.409 110.647 122.182 110.693C122.355 110.553 122.538 110.426 122.728 110.31C123.153 109.991 123.523 109.604 123.821 109.164C124.116 108.715 124.331 108.22 124.46 107.7C124.489 107.469 124.535 107.24 124.597 107.016Z" fill="#263238"/>
<path d="M125.97 108.652C125.916 108.853 125.815 109.039 125.675 109.194C125.371 109.593 124.988 109.926 124.551 110.173C124.115 110.42 123.632 110.576 123.133 110.632C122.929 110.67 122.718 110.66 122.518 110.601C123.192 110.51 123.845 110.307 124.452 110.001C125.029 109.638 125.542 109.182 125.97 108.652Z" fill="#263238"/>
<path d="M139.776 139.334C139.287 137.331 135.748 124.377 135.067 122.427L131.879 113.3L131.665 110.284L104.629 111.117C104.629 111.117 100.78 115.857 99.3545 121.231C98.1275 125.837 97.5083 132.828 100.41 151.007C102.321 161.095 104.53 171.828 104.53 171.828H120.726L118.558 134.693L124.567 155.487L130.045 171.82L147.368 171.729L139.776 139.334Z" fill="#455A64"/>
<path d="M103.188 115.52C103.176 115.568 103.16 115.616 103.142 115.662C103.108 115.761 103.058 115.895 102.997 116.063C102.936 116.231 102.848 116.445 102.749 116.721C102.649 116.996 102.538 117.275 102.435 117.619C101.795 119.543 101.323 121.519 101.025 123.524C100.592 126.5 100.423 129.509 100.52 132.515C100.6 135.905 100.937 139.628 101.361 143.527C102.21 151.321 103.739 158.27 104.885 163.281C105.459 165.781 105.925 167.803 106.246 169.217C106.407 169.909 106.529 170.448 106.628 170.83L106.72 171.251C106.733 171.298 106.741 171.347 106.743 171.396C106.723 171.351 106.708 171.303 106.697 171.255L106.59 170.838C106.495 170.456 106.357 169.921 106.185 169.233C105.837 167.837 105.344 165.819 104.759 163.316C103.613 158.308 102.053 151.359 101.189 143.546C100.765 139.647 100.425 135.92 100.36 132.519C100.271 129.503 100.453 126.485 100.906 123.501C101.219 121.492 101.714 119.515 102.386 117.596C102.493 117.252 102.611 116.954 102.718 116.698L102.974 116.048L103.139 115.666C103.148 115.615 103.164 115.566 103.188 115.52Z" fill="#263238"/>
<path d="M107.97 170.425C108.024 170.425 108.115 170.612 108.18 170.869C108.245 171.125 108.245 171.343 108.18 171.354C108.115 171.365 108.035 171.171 107.974 170.914C107.913 170.658 107.917 170.44 107.97 170.425Z" fill="#263238"/>
<path d="M107.091 166.74C107.363 167.319 107.511 167.948 107.527 168.587C107.256 168.008 107.108 167.379 107.091 166.74Z" fill="#263238"/>
<path d="M106.231 163.063C106.394 163.339 106.499 163.644 106.541 163.962C106.644 164.266 106.683 164.589 106.655 164.909C106.492 164.633 106.386 164.326 106.346 164.007C106.242 163.704 106.203 163.383 106.231 163.063Z" fill="#263238"/>
<path d="M105.409 159.352C105.569 159.629 105.67 159.936 105.707 160.254C105.809 160.559 105.845 160.882 105.814 161.202C105.654 160.923 105.551 160.615 105.512 160.296C105.413 159.992 105.378 159.67 105.409 159.352Z" fill="#263238"/>
<path d="M104.641 155.64C104.798 155.92 104.895 156.23 104.927 156.55C105.024 156.856 105.054 157.179 105.015 157.498C104.762 156.911 104.632 156.279 104.633 155.64H104.641Z" fill="#263238"/>
<path d="M103.945 151.917C104.098 152.199 104.189 152.511 104.212 152.831C104.3 153.14 104.324 153.464 104.285 153.783C104.043 153.191 103.927 152.556 103.945 151.917Z" fill="#263238"/>
<path d="M103.357 148.179C103.585 148.776 103.684 149.414 103.647 150.052C103.419 149.455 103.32 148.817 103.357 148.179Z" fill="#263238"/>
<path d="M102.84 144.429C103.051 145.031 103.132 145.671 103.077 146.306C102.942 146.016 102.867 145.701 102.859 145.381C102.788 145.068 102.782 144.744 102.84 144.429Z" fill="#263238"/>
<path d="M102.443 140.664C102.639 141.27 102.704 141.911 102.634 142.545C102.506 142.252 102.44 141.936 102.439 141.616C102.377 141.301 102.379 140.978 102.443 140.664Z" fill="#263238"/>
<path d="M102.118 136.891C102.302 137.503 102.353 138.147 102.267 138.78C102.148 138.482 102.09 138.164 102.095 137.843C102.036 137.528 102.044 137.204 102.118 136.891Z" fill="#263238"/>
<path d="M101.915 133.111C102.077 133.729 102.104 134.374 101.996 135.003C101.888 134.701 101.841 134.38 101.858 134.059C101.812 133.742 101.832 133.42 101.915 133.111Z" fill="#263238"/>
<path d="M101.904 129.323C101.999 129.629 102.029 129.952 101.992 130.271C102.023 130.59 101.985 130.912 101.881 131.215C101.789 130.909 101.759 130.588 101.793 130.271C101.767 129.951 101.804 129.628 101.904 129.323Z" fill="#263238"/>
<path d="M102.149 125.546C102.223 125.859 102.231 126.183 102.172 126.498C102.175 126.818 102.114 127.135 101.992 127.431C101.918 127.119 101.911 126.794 101.973 126.479C101.967 126.159 102.026 125.842 102.149 125.546Z" fill="#263238"/>
<path d="M102.722 121.804C102.764 122.122 102.74 122.444 102.653 122.752C102.63 123.072 102.54 123.383 102.389 123.666C102.347 123.348 102.371 123.026 102.458 122.718C102.482 122.398 102.572 122.087 102.722 121.804Z" fill="#263238"/>
<path d="M103.674 118.139C103.628 118.776 103.448 119.396 103.146 119.958C103.138 119.638 103.195 119.319 103.314 119.022C103.371 118.705 103.493 118.405 103.674 118.139Z" fill="#263238"/>
<path d="M104.66 115.482C104.709 115.501 104.66 115.715 104.572 115.96C104.484 116.205 104.354 116.384 104.3 116.365C104.247 116.346 104.3 116.132 104.388 115.887C104.476 115.643 104.61 115.459 104.66 115.482Z" fill="#263238"/>
<path d="M120.316 136.708C120.267 136.735 119.995 136.402 119.709 135.963C119.507 135.709 119.359 135.418 119.273 135.106C119.315 135.072 119.586 135.408 119.877 135.852C120.079 136.105 120.229 136.396 120.316 136.708Z" fill="#263238"/>
<path d="M121.956 140.156C121.746 139.91 121.587 139.626 121.486 139.319C121.33 139.035 121.234 138.723 121.203 138.401C121.413 138.646 121.572 138.931 121.669 139.238C121.828 139.521 121.926 139.833 121.956 140.156Z" fill="#263238"/>
<path d="M123.191 143.772C123.003 143.509 122.873 143.209 122.809 142.892C122.679 142.596 122.613 142.276 122.614 141.952C122.799 142.216 122.929 142.515 122.996 142.831C123.125 143.128 123.191 143.448 123.191 143.772Z" fill="#263238"/>
<path d="M124.269 147.441C123.965 146.873 123.783 146.248 123.734 145.606C123.916 145.875 124.039 146.178 124.097 146.497C124.214 146.798 124.273 147.118 124.269 147.441Z" fill="#263238"/>
<path d="M125.331 151.114C125.152 150.845 125.029 150.542 124.968 150.224C124.848 149.923 124.791 149.6 124.8 149.276C124.979 149.545 125.101 149.848 125.159 150.166C125.282 150.467 125.34 150.79 125.331 151.114Z" fill="#263238"/>
<path d="M126.398 154.784C126.216 154.516 126.092 154.212 126.035 153.893C125.917 153.593 125.858 153.272 125.863 152.949C126.045 153.217 126.168 153.521 126.226 153.84C126.344 154.14 126.402 154.461 126.398 154.784Z" fill="#263238"/>
<path d="M127.46 158.476C127.281 158.207 127.158 157.904 127.097 157.586C126.977 157.284 126.92 156.962 126.929 156.638C127.108 156.907 127.232 157.21 127.292 157.528C127.412 157.83 127.469 158.152 127.46 158.476Z" fill="#263238"/>
<path d="M128.527 162.127C128.338 161.86 128.208 161.557 128.145 161.236C128.027 160.936 127.968 160.615 127.973 160.292C128.155 160.56 128.278 160.864 128.336 161.183C128.46 161.482 128.525 161.803 128.527 162.127Z" fill="#263238"/>
<path d="M129.59 165.796C129.288 165.228 129.107 164.603 129.058 163.962C129.363 164.529 129.544 165.154 129.59 165.796Z" fill="#263238"/>
<path d="M130.656 169.47C130.474 169.201 130.35 168.898 130.293 168.579C130.175 168.284 130.114 167.968 130.113 167.65C130.302 167.916 130.432 168.218 130.496 168.537C130.61 168.834 130.664 169.151 130.656 169.47Z" fill="#263238"/>
<path d="M131.39 172C131.336 172 131.248 171.87 131.191 171.679C131.134 171.488 131.134 171.32 131.191 171.297C131.248 171.274 131.332 171.423 131.386 171.618C131.44 171.813 131.44 171.985 131.39 172Z" fill="#263238"/>
<path d="M121.283 110.792C121.301 110.865 121.31 110.939 121.31 111.014C121.31 111.182 121.31 111.396 121.345 111.652C121.371 112.206 121.398 113.005 121.406 113.999C121.432 115.979 121.383 118.72 121.173 121.736C120.939 125.222 120.504 128.318 120.175 130.263V130.313H120.125L118.378 130.351H117.92C117.866 130.358 117.812 130.358 117.759 130.351C117.811 130.336 117.865 130.328 117.92 130.328L118.382 130.294L120.125 130.198L120.064 130.252C120.335 128.302 120.729 125.218 120.974 121.732C121.184 118.72 121.257 115.998 121.264 114.007C121.264 113.036 121.264 112.241 121.264 111.66V111.021C121.261 110.944 121.267 110.867 121.283 110.792Z" fill="#263238"/>
<path d="M118.084 111.969C118.084 111.969 118.031 112.038 117.954 112.157C117.846 112.327 117.789 112.525 117.79 112.726C117.788 112.869 117.817 113.012 117.873 113.143C117.93 113.275 118.013 113.393 118.119 113.491C118.26 113.59 118.427 113.648 118.599 113.66C118.772 113.672 118.945 113.637 119.099 113.559C119.253 113.48 119.383 113.361 119.475 113.215C119.567 113.068 119.617 112.899 119.621 112.726C119.59 112.481 119.476 112.254 119.297 112.084C119.117 111.914 118.885 111.811 118.638 111.794C118.497 111.794 118.413 111.794 118.409 111.794C118.405 111.794 118.482 111.74 118.638 111.721C118.863 111.708 119.086 111.768 119.273 111.893C119.417 111.983 119.539 112.103 119.631 112.246C119.723 112.389 119.782 112.55 119.804 112.719C119.806 112.929 119.748 113.135 119.639 113.314C119.529 113.493 119.372 113.638 119.184 113.733C118.997 113.828 118.786 113.868 118.577 113.849C118.368 113.831 118.168 113.754 118 113.628C117.877 113.511 117.782 113.368 117.721 113.209C117.66 113.05 117.635 112.88 117.648 112.711C117.661 112.487 117.746 112.272 117.889 112.099C117.996 111.992 118.08 111.962 118.084 111.969Z" fill="#263238"/>
<path d="M112.675 111.805C112.681 111.954 112.665 112.103 112.63 112.248C112.555 112.648 112.445 113.041 112.301 113.422C111.829 114.687 111.035 115.808 109.996 116.671C108.957 117.534 107.711 118.11 106.38 118.341C105.98 118.417 105.575 118.454 105.168 118.452C105.02 118.462 104.871 118.452 104.725 118.422C104.725 118.383 105.363 118.422 106.353 118.204C107.646 117.941 108.854 117.362 109.869 116.519C110.884 115.676 111.675 114.595 112.171 113.372C112.553 112.432 112.637 111.797 112.675 111.805Z" fill="#263238"/>
<path d="M133.809 119.022C133.668 118.987 133.531 118.933 133.404 118.861C133.053 118.679 132.715 118.471 132.395 118.238C131.366 117.441 130.44 116.519 129.639 115.494C128.784 114.516 127.997 113.48 127.285 112.394C127.077 112.059 126.889 111.711 126.723 111.354C126.654 111.226 126.603 111.09 126.57 110.949C126.6 110.949 126.853 111.495 127.403 112.317C128.145 113.378 128.942 114.399 129.792 115.375C130.583 116.387 131.48 117.313 132.468 118.135C133.259 118.724 133.825 118.991 133.809 119.022Z" fill="#263238"/>
<path d="M117.66 161.378C117.534 161.399 117.406 161.407 117.278 161.4C116.93 161.399 116.583 161.38 116.238 161.343C115.093 161.229 113.967 160.973 112.886 160.579C111.806 160.185 110.778 159.658 109.828 159.011C109.539 158.816 109.261 158.605 108.995 158.381C108.807 158.22 108.712 158.129 108.719 158.117C108.727 158.106 109.167 158.427 109.904 158.882C111.832 160.098 113.999 160.887 116.257 161.198C117.117 161.324 117.66 161.343 117.66 161.378Z" fill="#263238"/>
<path d="M139.543 158.798C139.386 159.173 139.194 159.532 138.97 159.872C138.587 160.518 138.025 161.401 137.353 162.318C136.68 163.235 136.023 164.049 135.526 164.611C135.275 164.929 134.993 165.221 134.685 165.483C134.906 165.144 135.151 164.822 135.419 164.52C135.885 163.935 136.523 163.124 137.192 162.199C137.861 161.274 138.438 160.422 138.851 159.795C139.057 159.446 139.288 159.113 139.543 158.798Z" fill="#263238"/>
<path d="M125.565 84.9794C125.45 83.5728 127.059 81.9215 127.518 80.5837C128.443 77.8889 128.347 76.7192 128.038 71.4099L123.336 70.4085C123.191 72.1782 123.447 71.4864 123.279 73.4014C123.159 75.328 122.584 77.1987 121.601 78.8598C120.867 80.0256 119.839 81.1035 119.69 82.4719C119.487 84.4481 121.218 86.1529 121.337 88.1367C121.49 90.8927 118.508 93.167 118.872 95.9C118.892 96.2051 118.984 96.5009 119.141 96.7634C119.298 97.0258 119.515 97.2474 119.774 97.4098C120.182 97.5806 120.625 97.6476 121.066 97.6048L123.963 97.5666C124.275 97.6017 124.59 97.517 124.842 97.3296C125.201 96.9779 125.01 96.3854 124.938 95.8847C124.613 93.7365 126.914 91.9706 126.971 89.7956C127.025 88.1138 125.706 86.6613 125.565 84.9794Z" fill="#263238"/>
<path d="M122.537 91.6686C122.537 91.6686 130.641 109.71 135.35 110.265C137.724 110.544 139.172 109.244 139.681 106.782C140.189 104.321 138.492 88.1864 138.492 88.1864L130.339 90.4378L130.958 93.5645L126.077 88.7177L122.537 91.6686Z" fill="#FFBE9D"/>
<path d="M129.891 77.285C129.891 77.285 134.452 77.7207 136.149 81.459C137.846 85.1973 140.2 89.4096 140.2 89.4096L130.17 91.6686C130.17 91.6686 128.768 84.1232 128.661 81.459C128.542 78.5425 128.24 77.2009 129.891 77.285Z" fill="#6CC2C3"/>
<path d="M137.907 100.441C137.873 100.396 137.834 100.353 137.792 100.315L137.448 99.9747L136.168 98.7286C135.086 97.6774 133.599 96.2211 131.963 94.6004C130.327 92.9797 128.886 91.5157 127.82 90.4378L126.562 89.1726L126.218 88.8324C126.138 88.756 126.092 88.7139 126.088 88.7216C126.116 88.7697 126.151 88.8134 126.191 88.8515L126.516 89.2338C126.799 89.5472 127.216 89.9982 127.736 90.5372C128.775 91.6304 130.232 93.1211 131.868 94.7418C133.504 96.3625 134.998 97.7997 136.099 98.8394C136.649 99.3555 137.1 99.7683 137.414 100.047L137.796 100.365C137.831 100.394 137.868 100.419 137.907 100.441Z" fill="#EB996E"/>
<path d="M115.374 77.6557L118.543 78.8904C118.543 78.8904 120.286 78.8904 120.511 79.4675L120.962 80.5913C120.962 80.5913 122.029 80.8627 122.254 81.459C122.48 82.0553 124.334 86.1032 124.334 86.1032L126.077 88.7177L122.537 91.6686C122.113 91.121 121.621 90.6291 121.073 90.2046C120.343 89.7001 117.308 87.1467 117.251 86.4587C117.194 85.7707 115.554 81.8718 115.535 81.459C115.516 81.0462 115.474 80.1441 115.886 80.3696C116.299 80.5952 116.857 81.7189 116.857 81.7189L116.475 80.19C116.197 79.9934 115.96 79.7435 115.779 79.4548C115.598 79.1661 115.476 78.8443 115.42 78.5081L115.374 77.6557Z" fill="#FFBE9D"/>
<path d="M122.033 86.8104C121.939 86.6454 121.83 86.4893 121.708 86.344L120.775 85.1323L120.756 85.1094H120.725H119.518H119.472L119.449 85.1514C119.331 85.4082 119.13 85.6181 118.879 85.7477C118.737 85.7901 118.588 85.8095 118.44 85.8051C118.282 85.8147 118.123 85.8147 117.966 85.8051L118.027 85.9197L118.241 85.4878L119.005 83.9359L118.937 83.978L121.073 83.9588H121.046L122.228 84.5093C122.372 84.5819 122.521 84.6432 122.675 84.6927C122.543 84.6004 122.404 84.5198 122.258 84.4519L121.111 83.8518H118.975H118.929L118.906 83.8939L118.141 85.4228L117.927 85.8548L117.874 85.958H117.989C118.155 85.9711 118.323 85.9711 118.489 85.958H118.734C118.821 85.9539 118.906 85.9345 118.986 85.9006C119.272 85.7542 119.499 85.514 119.628 85.2202L119.563 85.2623H120.771L120.722 85.2393L121.696 86.4205C121.799 86.5584 121.911 86.6887 122.033 86.8104Z" fill="#EB996E"/>
<path d="M120.962 81.9674C120.789 81.9417 120.614 81.9301 120.439 81.933L119.02 81.9062H118.776L118.994 82.0247C119.327 82.1906 119.638 82.3987 119.919 82.644C119.987 82.7128 120.037 82.793 120.01 82.8427C119.96 82.921 119.889 82.9833 119.804 83.0224C119.611 83.1283 119.405 83.2105 119.192 83.267H119.215C118.794 83.2281 118.385 83.0977 118.019 82.8848C117.874 82.7722 117.757 82.6271 117.678 82.4612C117.599 82.2952 117.56 82.1129 117.564 81.9292C117.534 81.5708 117.548 81.21 117.606 80.8551L117.537 80.9162L120.007 80.7213L120.71 80.6525C120.796 80.651 120.881 80.6368 120.962 80.6104C120.877 80.6014 120.791 80.6014 120.706 80.6104L120.003 80.6372L117.53 80.771H117.469V80.8283C117.403 81.1952 117.383 81.5689 117.411 81.9406C117.427 82.1419 117.471 82.34 117.541 82.5293C117.614 82.7373 117.757 82.9131 117.946 83.0262C118.336 83.2577 118.772 83.3988 119.223 83.439H119.246C119.47 83.3761 119.686 83.2862 119.888 83.1714C120.002 83.1178 120.095 83.0277 120.152 82.9153C120.169 82.8823 120.178 82.8456 120.178 82.8083C120.178 82.7711 120.169 82.7344 120.152 82.7013C120.122 82.6509 120.086 82.6046 120.045 82.5637C119.75 82.3107 119.422 82.0998 119.07 81.9368L119.043 82.0515L120.461 82.0247C120.63 82.0188 120.797 81.9996 120.962 81.9674Z" fill="#EB996E"/>
<path d="M126.077 88.7177L126.054 88.668L125.97 88.5343L125.641 88.0183L124.38 86.0765C124.039 85.312 123.638 84.4023 123.187 83.374C122.958 82.8644 122.717 82.3216 122.465 81.7457C122.396 81.6004 122.342 81.4705 122.262 81.3061C122.173 81.1553 122.053 81.025 121.91 80.9239C121.627 80.7314 121.313 80.588 120.982 80.4996L121.031 80.5416L120.737 79.8039L120.588 79.4217C120.517 79.2809 120.402 79.1678 120.259 79.1006C119.995 78.9789 119.714 78.8977 119.426 78.8598C119.136 78.8168 118.844 78.7912 118.551 78.7833H118.577L115.405 77.5449L115.29 77.499V77.6252C115.29 77.9195 115.313 78.2138 115.336 78.5349C115.387 78.8561 115.501 79.1641 115.672 79.4408C115.873 79.7528 116.133 80.0228 116.437 80.2359L116.399 80.1862C116.532 80.7022 116.662 81.2106 116.781 81.7151L116.93 81.6578C116.803 81.4085 116.662 81.1661 116.509 80.9315C116.364 80.6863 116.175 80.47 115.951 80.2932C115.914 80.2661 115.872 80.2479 115.827 80.2399C115.782 80.232 115.735 80.2345 115.691 80.2473C115.651 80.2661 115.615 80.2931 115.586 80.3267C115.557 80.3603 115.536 80.3997 115.523 80.4423C115.479 80.5783 115.455 80.7199 115.451 80.8627C115.451 80.9978 115.451 81.1316 115.451 81.2641C115.451 81.3329 115.451 81.394 115.451 81.4667C115.462 81.5353 115.479 81.603 115.5 81.6693C115.825 82.6707 116.211 83.5804 116.536 84.4825C116.701 84.9298 116.861 85.3617 117.002 85.786C117.073 85.9894 117.129 86.1976 117.171 86.409C117.221 86.629 117.327 86.8327 117.476 87.0015C117.979 87.5949 118.529 88.147 119.12 88.6528C119.651 89.1229 120.144 89.5319 120.584 89.8759C120.806 90.0479 121.024 90.197 121.211 90.3384C121.383 90.4694 121.546 90.6112 121.7 90.7627C121.979 91.0341 122.182 91.2596 122.316 91.4125L122.468 91.5884L122.526 91.6457C122.513 91.6213 122.497 91.5983 122.48 91.5769C122.446 91.5272 122.396 91.4699 122.339 91.3934C122.153 91.1581 121.953 90.9335 121.742 90.7207C121.588 90.5651 121.424 90.4183 121.253 90.2811C121.062 90.132 120.871 89.9868 120.638 89.8109C120.202 89.4593 119.716 89.0465 119.193 88.5763C118.613 88.0669 118.073 87.515 117.576 86.925C117.444 86.7733 117.35 86.5926 117.301 86.3975C117.259 86.1758 117.202 85.9574 117.129 85.7439C116.991 85.3158 116.834 84.8801 116.67 84.4328C116.353 83.5575 115.97 82.6325 115.661 81.6463C115.64 81.5894 115.626 81.5304 115.619 81.4705C115.615 81.4068 115.615 81.343 115.619 81.2794C115.619 81.1494 115.619 81.0194 115.619 80.8971C115.619 80.6601 115.684 80.2932 115.879 80.4537C116.083 80.6186 116.255 80.8194 116.387 81.0462C116.537 81.2748 116.674 81.5122 116.796 81.7572L117.117 82.4108L116.934 81.7037C116.808 81.2106 116.678 80.7022 116.551 80.1747V80.1479L116.521 80.125C116.244 79.9246 116.008 79.6728 115.825 79.3835C115.666 79.1268 115.559 78.8409 115.512 78.5425C115.493 78.2482 115.481 77.9386 115.47 77.6481L115.359 77.7245L118.531 78.9592H118.558C119.12 78.9502 119.678 79.0502 120.202 79.2535C120.312 79.3032 120.404 79.3878 120.462 79.4943C120.511 79.6243 120.565 79.7504 120.615 79.8766L120.909 80.6104V80.6449H120.943C121.257 80.722 121.555 80.8512 121.826 81.0271C121.953 81.1132 122.061 81.2236 122.144 81.352C122.205 81.4743 122.274 81.6349 122.335 81.7725L123.072 83.397C123.535 84.4214 123.948 85.3273 124.292 86.0918L125.595 88.003C125.744 88.217 125.863 88.3852 125.947 88.5075L126.039 88.6336L126.077 88.7177Z" fill="#EB996E"/>
<path d="M130.878 93.4957C130.82 92.6629 130.712 91.8344 130.553 91.015C130.444 90.1865 130.283 89.3656 130.071 88.5572C130.123 89.3915 130.231 90.2215 130.392 91.0417C130.501 91.8693 130.663 92.689 130.878 93.4957Z" fill="#263238"/>
<path d="M108.15 77.392L109.14 89.8721C109.146 89.9791 109.173 90.0838 109.22 90.1802C109.267 90.2765 109.333 90.3627 109.413 90.4337C109.493 90.5048 109.587 90.5592 109.688 90.5941C109.789 90.6289 109.897 90.6433 110.004 90.6366L116.96 90.1855C117.069 90.1788 117.176 90.1504 117.273 90.1019C117.371 90.0534 117.458 89.9858 117.529 89.9032C117.601 89.8206 117.655 89.7245 117.688 89.6207C117.722 89.5169 117.734 89.4074 117.725 89.2987L116.578 76.8301C116.56 76.6181 116.459 76.4218 116.297 76.2832C116.136 76.1446 115.927 76.0748 115.714 76.0886L108.907 76.532C108.693 76.5477 108.494 76.6465 108.352 76.8074C108.211 76.9682 108.138 77.1781 108.15 77.392Z" fill="#263238"/>
<path d="M98.1962 93.2817C98.1962 93.2817 96.1206 107.321 96.2009 109.206C96.2811 111.09 98.414 115.276 101.285 115.685C104.155 116.094 106.862 113.472 106.946 110.028C107.03 106.584 107.454 95.686 107.454 95.686L105.31 94.5048L98.1962 93.2817Z" fill="#FFBE9D"/>
<path d="M103.311 94.1073C103.279 94.1524 103.253 94.2011 103.234 94.2526C103.184 94.3672 103.127 94.5048 103.051 94.673C102.898 95.0552 102.668 95.5713 102.366 96.2211C101.778 97.5245 100.891 99.279 99.9774 101.274C99.1861 102.96 98.5267 104.704 98.005 106.492C97.9018 106.836 97.8369 107.153 97.7681 107.428C97.6992 107.704 97.6534 107.948 97.619 108.143C97.5846 108.338 97.5616 108.476 97.5425 108.598C97.5234 108.72 97.5196 108.759 97.5425 108.759C97.5627 108.709 97.578 108.658 97.5884 108.606C97.619 108.483 97.6534 108.338 97.6954 108.158C97.7375 107.979 97.791 107.723 97.8713 107.451C97.9515 107.18 98.0203 106.863 98.1312 106.522C98.6874 104.748 99.3643 103.014 100.157 101.332C101.071 99.3516 101.938 97.5742 102.504 96.2593C102.787 95.6019 103.005 95.0629 103.142 94.6883L103.295 94.2526C103.305 94.2048 103.31 94.1561 103.311 94.1073Z" fill="#EB996E"/>
<path d="M110.027 81.6807C110.027 81.6807 107.875 83.0033 107.24 83.3473C106.606 83.6913 106.686 86.2561 106.686 86.2561L103.07 94.6654L107.431 96.2287C107.431 96.2287 108.983 93.2855 109.43 92.9147C109.741 92.6749 110.095 92.4983 110.474 92.3949C110.474 92.3949 110.695 93.2129 111.368 92.8421C111.898 92.4906 112.374 92.0645 112.783 91.5769C112.783 91.5769 113.375 91.9591 113.601 91.5004C113.826 91.0417 114.197 90.0861 114.197 90.0861C114.197 90.0861 112.928 88.4502 112.408 88.4502C111.888 88.4502 109.209 88.5992 109.209 88.5992C109.457 88.3512 109.765 88.1709 110.103 88.0756C110.845 87.7774 115.279 86.474 115.485 86.3937C115.798 86.2752 116.15 85.4611 115.183 85.3846C114.216 85.3082 108.761 86.2829 108.761 86.2829C108.761 86.2829 108.463 84.8762 108.689 84.5781C108.914 84.2799 110.845 83.0185 110.027 81.6807Z" fill="#FFBE9D"/>
<path d="M112.786 91.5119C112.826 91.3092 112.819 91.1001 112.767 90.9003C112.727 90.6693 112.613 90.4575 112.442 90.2964C112.21 90.1267 111.927 90.0417 111.64 90.0556C111.151 90.0233 110.66 90.0413 110.176 90.1091C109.972 90.12 109.771 90.1666 109.583 90.2467C109.583 90.2964 110.504 90.1435 111.632 90.2161C111.884 90.2044 112.132 90.2726 112.343 90.411C112.496 90.5481 112.605 90.7278 112.656 90.9271C112.689 91.1242 112.732 91.3195 112.786 91.5119Z" fill="#EB996E"/>
<path d="M111.922 91.7795C111.896 91.7451 111.54 91.9744 111.085 92.1617C110.793 92.2598 110.508 92.3746 110.229 92.5057C110.549 92.5286 110.868 92.4597 111.15 92.307C111.453 92.2094 111.721 92.0262 111.922 91.7795Z" fill="#EB996E"/>
<path d="M109.01 86.2561C108.719 86.301 108.45 86.4357 108.239 86.6413C108.029 86.8469 107.888 87.1132 107.836 87.4028C107.878 87.4028 108.027 87.0741 108.356 86.7645C108.685 86.4549 109.025 86.302 109.01 86.2561Z" fill="#EB996E"/>
<path d="M165.057 171.828C165.057 171.885 128.19 171.927 82.7193 171.927C37.2481 171.927 0.373535 171.885 0.373535 171.828C0.373535 171.771 37.2329 171.729 82.7193 171.729C128.206 171.729 165.057 171.774 165.057 171.828Z" fill="#263238"/>
</svg>
