<svg width="16" height="16" viewBox="0 0 16 16" fill="none" xmlns="http://www.w3.org/2000/svg">
<path d="M14.2812 2.54688C13.5938 1.49479 12.9271 0.96875 12.2812 0.96875C11.9062 0.96875 11.5729 1.11458 11.2812 1.40625C10.7812 1.90625 10.3802 2.39062 10.0781 2.85938C9.61979 3.56771 9.46875 4.16667 9.625 4.65625C9.66667 4.8125 9.75521 4.97396 9.89062 5.14062C10.0365 5.30729 10.2708 5.55208 10.5938 5.875C10.9271 6.20833 11.125 6.42188 11.1875 6.51562C11.2917 6.66146 11.1927 6.97396 10.8906 7.45312C10.6094 7.90104 10.0938 8.51562 9.34375 9.29688C8.70833 9.90104 8.19271 10.3438 7.79688 10.625C7.29688 10.9896 6.92708 11.1719 6.6875 11.1719C6.63542 11.1719 6.59375 11.1615 6.5625 11.1406C6.46875 11.0677 6.25521 10.8698 5.92188 10.5469C5.58854 10.2135 5.33854 9.97917 5.17188 9.84375C5.01562 9.70833 4.85938 9.61979 4.70312 9.57812C4.57812 9.53646 4.44792 9.51562 4.3125 9.51562C3.86458 9.51562 3.34375 9.72396 2.75 10.1406C2.33333 10.4219 1.90625 10.7865 1.46875 11.2344C1.125 11.5677 0.979167 11.9479 1.03125 12.375C1.09375 12.9688 1.61458 13.5885 2.59375 14.2344C3.40625 14.7552 4.32292 15.0156 5.34375 15.0156C6.39583 15.0156 7.48958 14.7344 8.625 14.1719C9.77083 13.6198 10.849 12.8333 11.8594 11.8125C12.5677 11.1042 13.1771 10.3542 13.6875 9.5625C14.1875 8.77083 14.5521 7.97396 14.7812 7.17188C15.2917 5.40104 15.125 3.85938 14.2812 2.54688ZM13.7188 6.85938C13.5104 7.55729 13.1823 8.26042 12.7344 8.96875C12.2865 9.6875 11.7344 10.375 11.0781 11.0312C10.6198 11.4896 10.1406 11.9062 9.64062 12.2812C9.15104 12.6354 8.65625 12.9375 8.15625 13.1875C7.66667 13.4167 7.18229 13.5938 6.70312 13.7188C6.23438 13.8438 5.78125 13.9062 5.34375 13.9062C4.54167 13.9062 3.82812 13.7031 3.20312 13.2969C2.83854 13.0573 2.56771 12.849 2.39062 12.6719C2.22396 12.5052 2.13542 12.3646 2.125 12.25C2.11458 12.1771 2.15625 12.099 2.25 12.0156C2.65625 11.6094 3.03125 11.2865 3.375 11.0469C3.78125 10.7656 4.09375 10.625 4.3125 10.625C4.33333 10.625 4.34896 10.6302 4.35938 10.6406C4.41146 10.6615 4.47396 10.7083 4.54688 10.7812C4.66146 10.875 4.85938 11.0573 5.14062 11.3281C5.50521 11.7031 5.76042 11.9427 5.90625 12.0469L5.9375 12.0625C6.15625 12.2083 6.40625 12.2812 6.6875 12.2812C6.9375 12.2812 7.20833 12.2188 7.5 12.0938C7.78125 11.9792 8.09896 11.7917 8.45312 11.5312C8.88021 11.2188 9.43229 10.7448 10.1094 10.1094L10.125 10.0938L10.1562 10.0625C10.9479 9.22917 11.5052 8.55729 11.8281 8.04688C11.9948 7.78646 12.1198 7.54167 12.2031 7.3125C12.276 7.10417 12.3177 6.91146 12.3281 6.73438C12.349 6.41146 12.2708 6.125 12.0938 5.875C11.9896 5.72917 11.7604 5.47917 11.4062 5.125L11.375 5.09375C11.1042 4.82292 10.9219 4.63021 10.8281 4.51562C10.7552 4.42188 10.7083 4.35417 10.6875 4.3125C10.6458 4.14583 10.7552 3.85938 11.0156 3.45312C11.2656 3.06771 11.6146 2.65104 12.0625 2.20312C12.1458 2.11979 12.2188 2.07812 12.2812 2.07812C12.3854 2.07812 12.5208 2.15625 12.6875 2.3125C12.875 2.48958 13.0938 2.77083 13.3438 3.15625C13.6667 3.65625 13.8646 4.20833 13.9375 4.8125C14 5.45833 13.9271 6.14062 13.7188 6.85938Z" fill="#3564E7"/>
</svg>
