<svg width="183" height="180" viewBox="0 0 183 180" fill="none" xmlns="http://www.w3.org/2000/svg">
<path d="M139.885 2.59189H18.2332V132.265H139.885V2.59189Z" fill="#6CC2C3"/>
<path opacity="0.7" d="M139.885 2.59189H18.2332V132.265H139.885V2.59189Z" fill="black"/>
<path d="M136.764 6.73831H21.3657V132.265H136.764V6.73831Z" fill="white"/>
<path d="M139.886 130.437V132.265H78.5776L91.8297 117.851L110.074 97.9775L139.886 130.437Z" fill="#6CC2C3"/>
<path opacity="0.7" d="M139.886 130.437V132.265H78.5776L91.8297 117.851L110.074 97.9775L139.886 130.437Z" fill="black"/>
<path d="M18.2329 132.265V119.801L55.927 78.7666L105.07 132.265H18.2329Z" fill="#6CC2C3"/>
<path opacity="0.7" d="M18.2329 132.265V119.801L55.927 78.7666L105.07 132.265H18.2329Z" fill="black"/>
<path d="M117.509 47.4649C119.158 36.4103 112.262 25.9941 102.107 24.1997C91.9526 22.4053 82.3844 29.9121 80.736 40.9667C79.0877 52.0213 85.9835 62.4375 96.1381 64.2319C106.293 66.0263 115.861 58.5194 117.509 47.4649Z" fill="#6CC2C3"/>
<path opacity="0.7" d="M117.509 47.4649C119.158 36.4103 112.262 25.9941 102.107 24.1997C91.9526 22.4053 82.3844 29.9121 80.736 40.9667C79.0877 52.0213 85.9835 62.4375 96.1381 64.2319C106.293 66.0263 115.861 58.5194 117.509 47.4649Z" fill="black"/>
<path d="M54.3109 0.0409817L42.7285 129.1L163.804 141.977L175.387 12.9182L54.3109 0.0409817Z" fill="#6CC2C3"/>
<path opacity="0.1" d="M54.3111 -3.37616e-06L42.7288 129.059L163.805 141.936L175.387 12.8772L54.3111 -3.37616e-06Z" fill="black"/>
<path d="M57.0592 4.49939L45.8472 129.431L160.698 141.646L171.911 16.7146L57.0592 4.49939Z" fill="white"/>
<path d="M161.881 9.32347L161.826 9.93393L165.853 10.3622L165.908 9.7517L161.881 9.32347Z" fill="#6CC2C3"/>
<path d="M149.056 7.06218L149 7.67252L158.901 8.75024L158.957 8.13991L149.056 7.06218Z" fill="#6CC2C3"/>
<path opacity="0.1" d="M161.881 9.32347L161.826 9.93393L165.853 10.3622L165.908 9.7517L161.881 9.32347Z" fill="black"/>
<path opacity="0.1" d="M149.056 7.06218L149 7.67252L158.901 8.75024L158.957 8.13991L149.056 7.06218Z" fill="black"/>
<path opacity="0.1" d="M163.962 140.147L163.798 141.969L102.783 135.479L117.258 122.537L137.193 104.688L163.962 140.147Z" fill="black"/>
<path d="M163.962 140.147L163.798 141.969L102.783 135.479L117.258 122.537L137.193 104.688L163.962 140.147Z" fill="#6CC2C3"/>
<path opacity="0.1" d="M163.962 140.147L163.798 141.969L102.783 135.479L117.258 122.537L137.193 104.688L163.962 140.147Z" fill="black"/>
<path opacity="0.1" d="M131.096 70.302C141.384 70.302 149.724 61.2232 149.724 50.0239C149.724 38.8247 141.384 29.7458 131.096 29.7458C120.809 29.7458 112.469 38.8247 112.469 50.0239C112.469 61.2232 120.809 70.302 131.096 70.302Z" fill="black"/>
<path d="M131.096 70.302C141.384 70.302 149.724 61.2232 149.724 50.0239C149.724 38.8247 141.384 29.7458 131.096 29.7458C120.809 29.7458 112.469 38.8247 112.469 50.0239C112.469 61.2232 120.809 70.302 131.096 70.302Z" fill="#6CC2C3"/>
<path opacity="0.1" d="M131.096 70.302C141.384 70.302 149.724 61.2232 149.724 50.0239C149.724 38.8247 141.384 29.7458 131.096 29.7458C120.809 29.7458 112.469 38.8247 112.469 50.0239C112.469 61.2232 120.809 70.302 131.096 70.302Z" fill="black"/>
<path d="M121.393 17.1686L0 25.8071L7.76987 155.204L129.163 146.566L121.393 17.1686Z" fill="#6CC2C3"/>
<path d="M118.521 21.5256L3.36816 29.72L10.8896 154.979L126.042 146.785L118.521 21.5256Z" fill="white"/>
<path opacity="0.5" d="M121.393 17.1686L0 25.8071L7.76987 155.204L129.163 146.566L121.393 17.1686Z" fill="white"/>
<path d="M129.04 144.753L129.147 146.575L67.9744 150.924L80.3306 135.602L97.3465 114.477L129.04 144.753Z" fill="#6CC2C3"/>
<path opacity="0.5" d="M129.04 144.753L129.147 146.575L67.9744 150.924L80.3306 135.602L97.3465 114.477L129.04 144.753Z" fill="white"/>
<path d="M7.75326 155.205L7.00952 142.772L42.1682 99.149L94.4047 149.047L7.75326 155.205Z" fill="#6CC2C3"/>
<path opacity="0.5" d="M7.75326 155.205L7.00952 142.772L42.1682 99.149L94.4047 149.047L7.75326 155.205Z" fill="white"/>
<path d="M83.2037 81.8825C93.4913 81.8825 101.831 72.8037 101.831 61.6044C101.831 50.4052 93.4913 41.3264 83.2037 41.3264C72.9162 41.3264 64.5764 50.4052 64.5764 61.6044C64.5764 72.8037 72.9162 81.8825 83.2037 81.8825Z" fill="#6CC2C3"/>
<path opacity="0.5" d="M83.2037 81.8825C93.4913 81.8825 101.831 72.8037 101.831 61.6044C101.831 50.4052 93.4913 41.3264 83.2037 41.3264C72.9162 41.3264 64.5764 50.4052 64.5764 61.6044C64.5764 72.8037 72.9162 81.8825 83.2037 81.8825Z" fill="white"/>
<path d="M176.537 48.3188C176.937 49.1223 177.27 49.8338 177.596 50.6067C177.923 51.3795 178.244 52.1217 178.554 52.8884C179.157 54.4219 179.721 55.9553 180.245 57.5807C180.759 59.1904 181.195 60.8283 181.552 62.4877L181.817 63.7513L182.031 65.0332C182.11 65.4626 182.155 65.9042 182.211 66.3397L182.29 67.0021V67.4376C182.301 67.6419 182.301 67.8467 182.29 68.051C182.246 69.222 181.997 70.3731 181.557 71.4429C181.218 72.3003 180.826 73.1322 180.386 73.9332C179.565 75.398 178.656 76.8016 177.664 78.1348C175.757 80.7147 173.668 83.1285 171.416 85.3542L169.117 83.1093C170.756 80.5331 172.385 77.8711 173.85 75.2336C174.567 73.9502 175.223 72.6277 175.816 71.2712C176.083 70.6614 176.311 70.0322 176.498 69.3881C176.638 68.974 176.707 68.5352 176.701 68.0939V67.959L176.594 67.4315C176.526 67.0757 176.464 66.7261 176.368 66.3704L176.109 65.3031L175.822 64.2297C175.41 62.8005 174.954 61.3714 174.441 59.9361C173.928 58.5008 173.388 57.0962 172.819 55.6915C172.249 54.2869 171.624 52.8516 171.049 51.5574L176.537 48.3188Z" fill="#EEC1BB"/>
<path d="M183 59.0467L175.331 63.4568L173.483 64.5241C173.483 64.5241 173.05 63.144 172.435 61.1383C171.94 59.5374 171.309 57.5439 170.711 55.5259C170.52 54.9126 170.328 54.2562 170.148 53.6306C170.091 53.4527 170.035 53.281 169.984 53.1031C168.328 47.5828 172.926 45.0986 176.053 45.8101C181.405 47.0307 183 59.0467 183 59.0467Z" fill="#6CC2C3"/>
<path opacity="0.7" d="M183 59.0467L175.331 63.4568L173.483 64.5241C173.483 64.5241 173.05 63.144 172.435 61.1383C171.94 59.5374 171.309 57.5439 170.711 55.5259C170.52 54.9126 170.328 54.2562 170.148 53.6306C170.091 53.4527 170.035 53.281 169.984 53.1031C168.328 47.5828 172.926 45.0986 176.053 45.8101C181.405 47.0307 183 59.0467 183 59.0467Z" fill="white"/>
<path d="M175.332 63.4569L173.484 64.5241C173.484 64.5241 173.05 63.144 172.436 61.1383C171.94 59.5374 171.309 57.5439 170.711 55.526C170.52 54.9126 170.328 54.2563 170.148 53.6306L174.374 52.729C174.374 52.729 174.948 60.022 175.332 63.4569Z" fill="#6CC2C3"/>
<path opacity="0.6" d="M175.332 63.4569L173.484 64.5241C173.484 64.5241 173.05 63.144 172.436 61.1383C171.94 59.5374 171.309 57.5439 170.711 55.526C170.52 54.9126 170.328 54.2563 170.148 53.6306L174.374 52.729C174.374 52.729 174.948 60.022 175.332 63.4569Z" fill="white"/>
<path d="M170.052 82.41L166.108 83.8392L169.686 88.0163C169.686 88.0163 172.802 85.986 172.002 84.0662L170.052 82.41Z" fill="#EEC1BB"/>
<path d="M163.387 87.6851L166.486 90.9298L169.675 88.0163L166.097 83.8392L163.387 87.6851Z" fill="#EEC1BB"/>
<path d="M141.785 170.877L137.694 170.546L137.311 160.137L141.401 160.468L141.785 170.877Z" fill="#EEC1BB"/>
<path d="M167.956 174.851H163.849L160.648 164.498H164.756L167.956 174.851Z" fill="#EEC1BB"/>
<path d="M137.311 160.143L137.508 165.51L141.604 165.841L141.407 160.474L137.311 160.143Z" fill="#DB9792"/>
<path d="M164.756 164.504H160.648L162.299 169.84H166.407L164.756 164.504Z" fill="#DB9792"/>
<path d="M167.889 168.804H160.367C160.367 168.804 153.042 141.374 151.199 127.174C150.805 124.107 151.036 120.059 151.628 115.667C152.636 108.153 154.676 99.6213 156.372 93.2545C157.882 87.593 159.127 83.6368 159.127 83.6368L173.264 84.7838C172.498 95.9533 162.344 114.293 163.049 129.45C163.697 143.441 167.889 168.804 167.889 168.804Z" fill="#6CC2C3"/>
<path opacity="0.7" d="M167.889 168.804H160.367C160.367 168.804 153.042 141.374 151.199 127.174C150.805 124.107 151.036 120.059 151.628 115.667C152.636 108.153 154.676 99.6213 156.372 93.2545C157.882 87.593 159.127 83.6368 159.127 83.6368L173.264 84.7838C172.498 95.9533 162.344 114.293 163.049 129.45C163.697 143.441 167.889 168.804 167.889 168.804Z" fill="black"/>
<path d="M169.945 33.1685C169.066 36.3581 167.934 42.2587 169.827 44.6508C169.827 44.6508 168.7 47.8649 163.156 47.2638C157.048 46.6014 160.541 43.651 160.541 43.651C163.95 43.1419 164.114 40.4431 163.759 37.8486L169.945 33.1685Z" fill="#EEC1BB"/>
<path d="M159.533 28.3412C159.499 28.697 159.296 28.9546 159.082 28.9546C158.868 28.9546 158.722 28.6234 158.75 28.2615C158.778 27.8996 158.986 27.6481 159.201 27.6481C159.415 27.6481 159.567 27.9794 159.533 28.3412Z" fill="#263238"/>
<path d="M159.521 28.5191C159.031 29.5738 158.407 30.5484 157.667 31.4142C157.876 31.6148 158.122 31.7631 158.389 31.849C158.655 31.9348 158.936 31.956 159.211 31.9111L159.521 28.5191Z" fill="#D4827D"/>
<path d="M160.795 27.1575C160.761 27.1581 160.727 27.1487 160.698 27.1304C160.668 27.1121 160.643 27.0854 160.626 27.0532C160.505 26.8234 160.336 26.6281 160.132 26.4831C159.928 26.3382 159.696 26.2477 159.454 26.219C159.402 26.2159 159.354 26.1912 159.318 26.1502C159.282 26.1091 159.262 26.0547 159.263 25.9982C159.261 25.9722 159.264 25.9462 159.272 25.9217C159.281 25.8971 159.293 25.8747 159.31 25.8557C159.326 25.8368 159.346 25.8216 159.368 25.8113C159.39 25.801 159.413 25.7957 159.437 25.7958H159.465C159.773 25.825 160.069 25.9345 160.329 26.115C160.589 26.2955 160.805 26.5416 160.959 26.8324C160.986 26.8805 160.995 26.9383 160.983 26.9935C160.972 27.0486 160.94 27.0965 160.897 27.1268C160.865 27.1454 160.831 27.1559 160.795 27.1575Z" fill="#263238"/>
<path d="M163.302 174.33H168.294C168.376 174.33 168.455 174.36 168.519 174.416C168.583 174.472 168.627 174.55 168.643 174.637L169.455 178.611C169.471 178.696 169.472 178.783 169.458 178.868C169.443 178.953 169.413 179.034 169.37 179.107C169.326 179.179 169.27 179.241 169.204 179.29C169.139 179.339 169.065 179.373 168.987 179.39H168.852C167.246 179.36 166.068 179.262 164.04 179.262C162.795 179.262 160.22 179.403 158.496 179.403C156.772 179.403 156.552 177.562 157.256 177.378C160.417 176.624 161.612 175.587 162.62 174.594C162.811 174.419 163.053 174.325 163.302 174.33Z" fill="#263238"/>
<path d="M137.497 169.546L141.971 169.908C142.052 169.916 142.128 169.954 142.187 170.015C142.246 170.076 142.285 170.157 142.297 170.245L142.833 174.269C142.845 174.353 142.843 174.439 142.825 174.522C142.807 174.605 142.774 174.684 142.727 174.753C142.681 174.822 142.623 174.88 142.556 174.925C142.489 174.969 142.414 174.998 142.337 175.011C142.288 175.017 142.239 175.017 142.19 175.011C140.579 174.845 138.246 174.557 136.229 174.398C133.857 174.207 132.285 174.115 129.502 173.888C127.811 173.753 127.485 171.864 128.194 171.754C131.451 171.251 133.592 171.447 136.488 169.816C136.795 169.626 137.144 169.532 137.497 169.546Z" fill="#263238"/>
<path d="M151.605 47.595C151.233 48.2882 150.788 49.0794 150.377 49.8277C149.966 50.576 149.515 51.3366 149.07 52.0788C148.185 53.5693 147.267 55.0291 146.315 56.4399C145.362 57.8506 144.371 59.2123 143.328 60.482C142.432 61.5869 141.456 62.6124 140.41 63.5489C139.541 63.7675 138.657 63.907 137.767 63.9659C136.636 64.0276 135.503 63.9535 134.387 63.7451C132.643 63.4129 130.954 62.8054 129.372 61.9418C129.107 61.7946 128.848 61.6351 128.594 61.4757L127.884 61.0156L125.738 63.42C126.042 63.8003 126.273 64.0334 126.549 64.3524C126.812 64.6339 127.089 64.9001 127.377 65.1498C127.941 65.6661 128.534 66.1434 129.152 66.5789C130.413 67.4562 131.768 68.1608 133.186 68.6766C134.635 69.1988 136.138 69.5223 137.66 69.6396C139.194 69.7433 140.734 69.6465 142.247 69.3514L142.714 69.2593L143.25 68.8791C144.826 67.7338 146.287 66.4119 147.611 64.9351C148.886 63.5413 150.083 62.0645 151.194 60.5127C152.321 58.9915 153.324 57.4151 154.299 55.8142C154.783 54.9984 155.251 54.1765 155.707 53.3607C156.164 52.545 156.597 51.7292 157.048 50.8091L151.605 47.595Z" fill="#EEC1BB"/>
<path d="M129.749 62.4754L126.684 59.5558L124.346 63.9598C124.346 63.9598 126.526 66.6218 129.09 64.9473L129.749 62.4754Z" fill="#EEC1BB"/>
<path d="M122.419 57.6421L120.791 61.6719L124.324 63.9598L126.684 59.5803L122.419 57.6421Z" fill="#EEC1BB"/>
<path d="M170.751 28.3106C170.097 32.6901 169.923 35.2846 167.675 37.3272C164.294 40.394 159.477 37.8363 158.913 33.3341C158.406 29.2859 159.555 22.8025 163.674 21.4776C164.582 21.1813 165.544 21.1424 166.469 21.3646C167.395 21.5868 168.253 22.0628 168.962 22.7473C169.671 23.4318 170.207 24.3022 170.52 25.2759C170.833 26.2495 170.913 27.2941 170.751 28.3106Z" fill="#EEC1BB"/>
<path d="M175.304 26.0043C178.312 28.2983 171.151 36.7138 168.604 36.6218C166.058 36.5298 161.28 28.8442 162.846 24.753C161.533 24.1765 161.111 23.9863 160.592 22.5265C159.623 19.8829 160.789 15.4727 166.739 16.7117C165.263 17.8035 166.289 18.6684 169.089 18.2451C167.962 19.6743 169.81 20.7293 172.531 20.1159C172.053 22.7412 178.121 23.1153 175.304 26.0043Z" fill="#263238"/>
<path d="M165.089 29.6661C164.898 30.7612 164.319 31.7306 163.477 32.365C162.35 33.193 161.359 32.2116 161.314 30.807C161.274 29.5496 161.809 27.5991 163.111 27.3353C163.566 27.2518 164.033 27.3684 164.409 27.6594C164.785 27.9503 165.04 28.3919 165.117 28.8872C165.155 29.1462 165.146 29.4112 165.089 29.6661Z" fill="#EEC1BB"/>
<path opacity="0.4" d="M160.113 96.4808C160.034 103.915 155.234 112.128 151.628 115.667C152.636 108.153 154.676 99.6213 156.372 93.2545C157.426 93.0214 159.234 95.1989 160.113 96.4808Z" fill="black"/>
<path d="M161.944 175.115C161.664 175.138 161.386 175.056 161.155 174.882C161.08 174.816 161.022 174.73 160.987 174.632C160.951 174.534 160.939 174.428 160.952 174.324C160.952 174.262 160.968 174.202 160.996 174.149C161.025 174.096 161.066 174.053 161.116 174.023C161.578 173.778 162.896 174.637 163.048 174.759C163.063 174.771 163.074 174.787 163.081 174.806C163.088 174.824 163.09 174.844 163.088 174.864C163.086 174.885 163.077 174.904 163.064 174.92C163.051 174.935 163.034 174.946 163.015 174.95C162.666 175.053 162.306 175.109 161.944 175.115ZM161.335 174.189C161.293 174.177 161.248 174.177 161.206 174.189C161.187 174.202 161.171 174.22 161.16 174.241C161.149 174.263 161.144 174.287 161.144 174.312C161.136 174.383 161.144 174.456 161.167 174.523C161.191 174.59 161.229 174.651 161.279 174.698C161.737 174.926 162.257 174.955 162.733 174.778C162.307 174.479 161.833 174.271 161.335 174.164V174.189Z" fill="#6CC2C3"/>
<path d="M162.992 174.956H162.947C162.525 174.704 161.702 173.729 161.787 173.226C161.801 173.148 161.84 173.078 161.896 173.028C161.953 172.977 162.023 172.95 162.096 172.95C162.171 172.937 162.247 172.943 162.319 172.966C162.391 172.99 162.457 173.03 162.513 173.085C162.987 173.508 163.077 174.796 163.077 174.851C163.076 174.87 163.072 174.889 163.064 174.906C163.057 174.923 163.045 174.938 163.032 174.95L162.992 174.956ZM162.164 173.116H162.125C161.995 173.116 161.984 173.195 161.978 173.22C161.927 173.514 162.451 174.256 162.874 174.606C162.843 174.098 162.674 173.611 162.389 173.208C162.325 173.155 162.244 173.131 162.164 173.14V173.116Z" fill="#6CC2C3"/>
<path d="M136.094 170.202C135.624 170.258 135.152 170.127 134.764 169.834C134.703 169.765 134.659 169.681 134.633 169.589C134.608 169.498 134.602 169.401 134.617 169.307C134.623 169.248 134.642 169.192 134.674 169.145C134.706 169.098 134.748 169.06 134.798 169.037C135.316 168.779 136.899 169.816 137.08 169.938C137.096 169.95 137.109 169.967 137.117 169.986C137.125 170.006 137.128 170.027 137.125 170.049C137.12 170.07 137.109 170.09 137.094 170.105C137.079 170.12 137.06 170.131 137.04 170.135C136.726 170.178 136.41 170.201 136.094 170.202ZM135.012 169.202C134.967 169.203 134.923 169.213 134.882 169.233C134.863 169.242 134.845 169.256 134.833 169.274C134.82 169.292 134.812 169.314 134.809 169.337C134.797 169.4 134.8 169.464 134.817 169.525C134.833 169.586 134.864 169.642 134.905 169.687C135.141 169.951 135.812 170.049 136.725 169.957C136.203 169.589 135.622 169.333 135.012 169.202Z" fill="#6CC2C3"/>
<path d="M137.029 170.135H136.979C136.505 169.852 135.593 168.81 135.7 168.294C135.728 168.178 135.812 168.037 136.083 168.025C136.278 168.023 136.466 168.104 136.607 168.252C136.943 168.768 137.124 169.385 137.125 170.018C137.125 170.036 137.121 170.054 137.113 170.07C137.105 170.086 137.094 170.1 137.08 170.11L137.029 170.135ZM136.105 168.245C135.925 168.245 135.914 168.325 135.908 168.35C135.84 168.644 136.471 169.46 136.934 169.828C136.924 169.317 136.769 168.821 136.488 168.411C136.438 168.356 136.379 168.313 136.313 168.285C136.247 168.256 136.176 168.243 136.105 168.245Z" fill="#6CC2C3"/>
<path d="M151.391 83.0112C151.391 83.0112 133.654 112.22 133.17 125.849C132.668 140.024 136.071 164.35 136.071 164.35L143.007 164.915C143.007 164.915 143.813 141.778 145.069 127.916C146.439 112.809 166.48 95.9717 167.269 84.2992L151.391 83.0112Z" fill="#6CC2C3"/>
<path opacity="0.7" d="M151.391 83.0112C151.391 83.0112 133.654 112.22 133.17 125.849C132.668 140.024 136.071 164.35 136.071 164.35L143.007 164.915C143.007 164.915 143.813 141.778 145.069 127.916C146.439 112.809 166.48 95.9717 167.269 84.2992L151.391 83.0112Z" fill="black"/>
<path d="M159.037 168.981H168.869V166.099L157.882 165.915L159.037 168.981Z" fill="#6CC2C3"/>
<path d="M134.651 164.393L144.281 165.197L144.483 162.29L133.705 161.241L134.651 164.393Z" fill="#6CC2C3"/>
<path d="M159.037 49.6498C158.744 53.9066 154.113 62.2055 154.113 62.2055L143.627 56.2068C143.627 56.2068 147.177 49.9933 151.059 46.2947C154.941 42.596 159.358 44.9698 159.037 49.6498Z" fill="#6CC2C3"/>
<path opacity="0.7" d="M159.037 49.6498C158.744 53.9066 154.113 62.2055 154.113 62.2055L143.627 56.2068C143.627 56.2068 147.177 49.9933 151.059 46.2947C154.941 42.596 159.358 44.9698 159.037 49.6498Z" fill="white"/>
<path d="M159.352 44.7735C159.634 44.1601 159.229 41.9765 159.229 41.9765C159.229 41.9765 167.945 40.7007 171.061 41.9091C172.751 42.5592 171.264 45.8408 171.264 45.8408L159.352 44.7735Z" fill="#6CC2C3"/>
<path opacity="0.7" d="M159.352 44.7735C159.634 44.1601 159.229 41.9765 159.229 41.9765C159.229 41.9765 167.945 40.7007 171.061 41.9091C172.751 42.5592 171.264 45.8408 171.264 45.8408L159.352 44.7735Z" fill="black"/>
<path d="M173.258 84.7838L151.391 83.0112C150.677 77.0172 150.426 70.9685 150.642 64.9289C150.732 62.7576 150.89 60.758 151.081 58.9301C152.095 49.3677 154.236 44.5098 154.236 44.5098C156.342 44.0859 158.474 43.8419 160.615 43.7798C163.728 43.8348 166.836 44.0867 169.923 44.5343C172.16 44.8457 174.376 45.3211 176.554 45.9573C172.131 62.9355 173.658 81.1342 173.258 84.7838Z" fill="#6CC2C3"/>
<path opacity="0.7" d="M173.258 84.7838L151.391 83.0112C150.677 77.0172 150.426 70.9685 150.642 64.9289C150.732 62.7576 150.89 60.758 151.081 58.9301C152.095 49.3677 154.236 44.5098 154.236 44.5098C156.342 44.0859 158.474 43.8419 160.615 43.7798C163.728 43.8348 166.836 44.0867 169.923 44.5343C172.16 44.8457 174.376 45.3211 176.554 45.9573C172.131 62.9355 173.658 81.1342 173.258 84.7838Z" fill="white"/>
</svg>
