<svg width="175" height="163" viewBox="0 0 175 163" fill="none" xmlns="http://www.w3.org/2000/svg">
<path d="M115.894 44.9651C115.812 46.3394 115.652 47.5992 115.473 48.9048C115.294 50.2104 115.052 51.4885 114.777 52.7712C114.241 55.3672 113.466 57.9083 112.463 60.3619L112.046 61.2781L111.946 61.5072L111.909 61.6263L111.836 61.7729C111.696 62.0604 111.518 62.3284 111.309 62.57C111.059 62.851 110.761 63.0852 110.429 63.2617C110.103 63.4327 109.75 63.5444 109.385 63.5916C108.824 63.6515 108.258 63.5922 107.722 63.4175C106.963 63.1583 106.246 62.7878 105.596 62.318C105.028 61.917 104.484 61.481 103.97 61.0124C102.042 59.2246 100.307 57.2393 98.7935 55.0892L100.31 53.8019C101.226 54.6494 102.142 55.506 103.058 56.3169C103.969 57.1275 104.92 57.892 105.908 58.6074C106.373 58.9399 106.856 59.2458 107.355 59.5236C107.758 59.7678 108.193 59.9544 108.647 60.0779C108.803 60.11 108.913 60.0779 108.863 60.0779C108.755 60.0899 108.653 60.1365 108.574 60.2108C108.546 60.2108 108.546 60.2108 108.574 60.2108L108.721 59.8305L109.041 58.9968C109.836 56.7013 110.456 54.3492 110.897 51.9603C111.139 50.7601 111.309 49.5369 111.492 48.323C111.675 47.109 111.804 45.8584 111.909 44.6994L115.894 44.9651Z" fill="#FFC3BD"/>
<path d="M113.118 39.9215C111.41 40.3567 110.214 47.384 110.214 47.384L114.919 50.5907C114.919 50.5907 119.431 43.5038 118.125 41.6256C116.751 39.6604 115.61 39.2893 113.118 39.9215Z" fill="#7EDCE9"/>
<path d="M113.118 39.9215C111.41 40.3567 110.214 47.384 110.214 47.384L114.919 50.5907C114.919 50.5907 119.431 43.5038 118.125 41.6256C116.751 39.6604 115.61 39.2893 113.118 39.9215Z" fill="#7EDCE9"/>
<path opacity="0.4" d="M113.118 39.9215C111.41 40.3567 110.214 47.384 110.214 47.384L114.919 50.5907C114.919 50.5907 119.431 43.5038 118.125 41.6256C116.751 39.6604 115.61 39.2893 113.118 39.9215Z" fill="black"/>
<path opacity="0.3" d="M113.27 41.4927L111.959 48.5704L114.603 50.3661L113.27 41.4927Z" fill="black"/>
<path d="M100.388 53.5133L98.1659 49.9767L96.897 53.9943C96.897 53.9943 98.7294 55.9183 100.392 55.4602L100.388 53.5133Z" fill="#FFC3BD"/>
<path d="M94.8678 48.8087L93.9883 52.2262L96.8789 53.9945L98.1479 49.9769L94.8678 48.8087Z" fill="#FFC3BD"/>
<path d="M122.354 158.172H118.213L117.933 148.579H122.079L122.354 158.172Z" fill="#FFC3BD"/>
<path d="M158.906 138.931L155.75 141.616L148.525 135.166L151.682 132.486L158.906 138.931Z" fill="#FFC3BD"/>
<path d="M154.884 141.295L157.949 137.786C158.001 137.726 158.074 137.686 158.153 137.675C158.232 137.664 158.312 137.683 158.379 137.726L161.499 139.747C161.576 139.8 161.641 139.869 161.689 139.95C161.737 140.03 161.768 140.119 161.779 140.212C161.791 140.305 161.782 140.4 161.754 140.489C161.726 140.579 161.68 140.661 161.618 140.732C160.528 141.936 159.941 142.463 158.595 144.003C157.77 144.951 156.657 146.426 155.511 147.731C154.366 149.037 153.01 147.983 153.372 147.333C154.98 144.429 154.595 143.412 154.623 141.982C154.627 141.73 154.719 141.487 154.884 141.295Z" fill="#263238"/>
<path d="M118.071 157.695H122.725C122.805 157.694 122.883 157.723 122.943 157.775C123.004 157.827 123.044 157.9 123.055 157.979L123.586 161.644C123.601 161.741 123.594 161.84 123.567 161.934C123.539 162.028 123.491 162.114 123.425 162.188C123.36 162.261 123.28 162.318 123.189 162.357C123.099 162.395 123.002 162.413 122.904 162.409C121.282 162.382 120.499 162.285 118.451 162.285C117.191 162.285 114.589 162.418 112.848 162.418C111.107 162.418 111.016 160.696 111.744 160.545C114.988 159.844 116.266 158.882 117.361 157.961C117.557 157.79 117.81 157.695 118.071 157.695Z" fill="#263238"/>
<path opacity="0.2" d="M117.938 148.584L118.08 153.526H122.221L122.079 148.584H117.938Z" fill="black"/>
<path opacity="0.2" d="M151.686 132.486L148.525 135.166L152.254 138.491L155.411 135.807L151.686 132.486Z" fill="black"/>
<path d="M113.119 39.9214C113.119 39.9214 111.144 40.6177 115.098 64.9247H131.919C131.64 58.076 131.63 53.8523 134.901 39.8023C132.546 39.3167 130.16 39.0013 127.76 38.8586C125.216 38.6773 122.662 38.6773 120.118 38.8586C116.838 39.1793 113.119 39.9214 113.119 39.9214Z" fill="#7EDCE9"/>
<path opacity="0.4" d="M113.119 39.9214C113.119 39.9214 111.144 40.6177 115.098 64.9247H131.919C131.64 58.076 131.63 53.8523 134.901 39.8023C132.546 39.3167 130.16 39.0013 127.76 38.8586C125.216 38.6773 122.662 38.6773 120.118 38.8586C116.838 39.1793 113.119 39.9214 113.119 39.9214Z" fill="black"/>
<path d="M127.759 38.8586C125.215 38.6773 122.662 38.6773 120.118 38.8586C119.706 38.8952 119.284 38.941 118.867 38.9914C118.695 39.2518 118.585 39.5483 118.545 39.8581C118.505 40.1678 118.537 40.4826 118.638 40.778C119.174 42.1111 121.108 42.2669 122.519 42.2669C127.727 42.2669 128.607 39.2251 128.643 39.0968L128.694 38.9136C128.401 38.8952 128.071 38.8723 127.759 38.8586Z" fill="white"/>
<path d="M127.026 30.26C126.541 32.7154 126.064 37.2186 127.782 38.8586C127.782 38.8586 127.109 41.3553 122.542 41.3553C117.502 41.3553 120.141 38.8632 120.141 38.8632C122.89 38.2081 122.812 36.1741 122.335 34.2822L127.026 30.26Z" fill="#FFC3BD"/>
<path opacity="0.2" d="M125.089 31.8908L122.312 34.2592C122.432 34.7094 122.512 35.1693 122.551 35.6335C123.595 35.4823 125.034 34.3325 125.148 33.2376C125.212 32.7889 125.192 32.3321 125.089 31.8908Z" fill="black"/>
<path d="M124.145 16.8925C123.719 15.4495 123.362 13.1773 125.927 12.1511C124.924 10.9234 124.681 8.61457 125.927 7.24484C127.173 5.87511 129.042 6.37903 129.042 6.37903C129.042 6.37903 129.592 3.03029 133.664 3.63041C137.737 4.23052 135.923 6.91043 135.923 6.91043C135.923 6.91043 141.48 5.81098 141.851 11.0334C142.222 16.2557 139.033 15.6144 139.033 15.6144C139.033 15.6144 141.512 17.6942 140.137 19.9801C138.763 22.2661 135.588 21.4781 135.588 21.4781C135.588 21.4781 134.095 25.5186 130.577 23.2189C127.059 20.9192 124.145 16.8925 124.145 16.8925Z" fill="#263238"/>
<path d="M115.894 19.9389C114.52 21.7163 115.125 23.7274 116.353 24.5199C119.307 26.4073 123.581 18.4913 122.468 17.543C121.355 16.5947 117.269 18.1569 115.894 19.9389Z" fill="#263238"/>
<path d="M128.305 15.706C126.362 14.9227 124.392 15.7427 123.779 16.9246C122.281 19.806 129.083 24.9964 131.053 21.3957C132.221 19.2563 130.307 16.5123 128.305 15.706Z" fill="#7EDCE9"/>
<path d="M127.484 24.5199C127.626 28.6428 127.773 30.3653 125.909 32.6604C123.11 36.1099 118.029 35.3861 116.664 31.4006C115.436 27.8136 115.413 21.6979 119.257 19.6915C120.102 19.2445 121.047 19.021 122.003 19.0421C122.958 19.0632 123.892 19.3282 124.717 19.812C125.541 20.2958 126.228 20.9822 126.713 21.8062C127.197 22.6302 127.463 23.5643 127.484 24.5199Z" fill="#FFC3BD"/>
<path d="M126.866 26.6775C125.034 25.9949 124.576 23.8556 124.869 23.0127C123.953 22.976 121.951 22.6462 121.204 21.5101C119.775 22.4263 116.756 23.3425 116.431 21.817C116.105 20.2915 120.659 16.3702 124.104 16.0678C128.199 15.7105 132.24 19.7326 131.2 23.5853C130.16 27.4379 126.866 26.6775 126.866 26.6775Z" fill="#263238"/>
<path d="M115.116 64.9247C115.116 64.9247 111.85 96.8316 112.12 109.466C112.404 122.605 117.219 152.569 117.219 152.569H122.817C122.817 152.569 121.932 123.37 122.427 110.469C122.968 96.401 127.434 64.9247 127.434 64.9247H115.116Z" fill="#263238"/>
<path d="M123.284 152.771H116.715L116.229 150.677L123.591 150.421L123.284 152.771Z" fill="#7EDCE9"/>
<path opacity="0.2" d="M122.354 72.8635C118.231 81.1735 121.525 96.3367 122.986 101.981C123.733 93.5056 124.997 83.1479 125.982 75.5434C125.359 71.2464 124.278 69.0292 122.354 72.8635Z" fill="black"/>
<path d="M119.541 64.9248C119.541 64.9248 123.352 98.096 126.229 108.747C129.647 121.391 150.871 138.409 150.871 138.409L155.177 134.744C155.177 134.744 139.794 116.255 137.178 109.594C131.603 95.3932 136.376 74.1922 131.919 64.9156L119.541 64.9248Z" fill="#263238"/>
<path d="M155.864 134.556L150.523 139.092L148.525 137.896L154.568 132.275L155.864 134.556Z" fill="#7EDCE9"/>
<path d="M121.387 26.2425C121.419 26.5769 121.268 26.861 121.053 26.8839C120.838 26.9068 120.631 26.6502 120.595 26.3204C120.558 25.9906 120.714 25.6974 120.934 25.679C121.154 25.6607 121.355 25.8944 121.387 26.2425Z" fill="#263238"/>
<path d="M117.631 26.6044C117.663 26.9342 117.512 27.2228 117.292 27.2457C117.072 27.2686 116.875 27.0121 116.834 26.6777C116.792 26.3433 116.953 26.0592 117.168 26.0409C117.383 26.0226 117.599 26.27 117.631 26.6044Z" fill="#263238"/>
<path d="M117.274 26.05L116.454 25.8943C116.454 25.8943 116.948 26.4807 117.274 26.05Z" fill="#263238"/>
<path d="M118.675 27.0808C118.452 27.8673 118.122 28.6195 117.695 29.3164C117.877 29.4209 118.079 29.4848 118.287 29.5038C118.496 29.5228 118.707 29.4964 118.904 29.4263L118.675 27.0808Z" fill="#ED847E"/>
<path d="M120.751 30.5212C120.569 30.5708 120.384 30.6046 120.196 30.6219C120.184 30.6232 120.171 30.622 120.159 30.6183C120.146 30.6146 120.135 30.6085 120.125 30.6004C120.116 30.5923 120.107 30.5823 120.102 30.5711C120.096 30.5599 120.092 30.5476 120.091 30.5349C120.088 30.5089 120.096 30.4828 120.112 30.4623C120.128 30.4418 120.152 30.4284 120.178 30.425C120.593 30.3945 120.994 30.2671 121.351 30.053C121.707 29.839 122.008 29.5443 122.23 29.1927C122.235 29.1805 122.243 29.1697 122.253 29.1609C122.263 29.152 122.275 29.1454 122.287 29.1415C122.3 29.1376 122.313 29.1365 122.326 29.1382C122.339 29.1399 122.352 29.1444 122.363 29.1514C122.386 29.164 122.403 29.1849 122.41 29.2096C122.418 29.2343 122.416 29.2611 122.404 29.2843C122.035 29.8959 121.442 30.3395 120.751 30.5212Z" fill="#263238"/>
<path d="M128.447 27.3647C128.346 28.1531 127.938 28.8696 127.311 29.3575C126.472 29.9988 125.666 29.3575 125.57 28.3542C125.487 27.438 125.817 26.0637 126.816 25.798C127.034 25.7536 127.259 25.7628 127.473 25.8248C127.686 25.8867 127.882 25.9995 128.042 26.1536C128.203 26.3077 128.323 26.4984 128.394 26.7094C128.464 26.9203 128.482 27.1452 128.447 27.3647Z" fill="#FFC3BD"/>
<path d="M121.791 23.8879C121.765 23.8943 121.739 23.8956 121.713 23.8917C121.687 23.8878 121.662 23.8787 121.639 23.865C121.432 23.7324 121.196 23.6509 120.95 23.627C120.705 23.6031 120.458 23.6375 120.228 23.7275C120.181 23.7487 120.127 23.751 120.078 23.734C120.028 23.717 119.987 23.682 119.963 23.6359C119.941 23.5891 119.938 23.5354 119.955 23.4866C119.972 23.4377 120.008 23.3975 120.054 23.3748C120.343 23.2557 120.656 23.2076 120.967 23.2347C121.278 23.2618 121.577 23.3633 121.841 23.5305C121.863 23.5437 121.882 23.561 121.897 23.5815C121.912 23.602 121.922 23.6253 121.928 23.65C121.934 23.6747 121.935 23.7004 121.931 23.7255C121.927 23.7506 121.918 23.7746 121.905 23.7962C121.88 23.8401 121.839 23.8728 121.791 23.8879Z" fill="#263238"/>
<path d="M115.789 25.0286C115.742 25.0465 115.69 25.0465 115.642 25.0286C115.598 25.0026 115.565 24.9606 115.551 24.9112C115.536 24.8618 115.541 24.8087 115.565 24.7629C115.704 24.484 115.909 24.2431 116.162 24.0604C116.415 23.8778 116.708 23.7589 117.017 23.7138C117.042 23.7113 117.068 23.714 117.093 23.7216C117.117 23.7293 117.14 23.7419 117.16 23.7585C117.18 23.7752 117.196 23.7956 117.207 23.8186C117.219 23.8417 117.226 23.8668 117.227 23.8925C117.231 23.944 117.215 23.995 117.181 24.0344C117.148 24.0738 117.1 24.0985 117.049 24.1032C116.806 24.1441 116.576 24.2417 116.378 24.3882C116.179 24.5346 116.019 24.7258 115.908 24.9461C115.895 24.9674 115.878 24.9857 115.857 24.9999C115.837 25.0141 115.814 25.0239 115.789 25.0286Z" fill="#263238"/>
<path d="M136.619 44.2689C137.553 46.5539 138.359 48.8893 139.033 51.2641C139.748 53.6596 140.257 56.1117 140.554 58.5938C140.632 59.2259 140.655 59.8902 140.682 60.5453V60.9163C140.682 61.0492 140.66 61.1866 140.641 61.3057C140.603 61.5347 140.551 61.7611 140.485 61.9837C140.366 62.3647 140.213 62.7342 140.027 63.0878C139.392 64.2622 138.614 65.3532 137.709 66.3357C136.037 68.1726 134.197 69.8489 132.212 71.3428L130.888 69.8723C132.414 68.0902 133.953 66.2624 135.258 64.375C135.889 63.5185 136.427 62.5971 136.862 61.6264C136.936 61.4386 136.998 61.2457 137.045 61.0492C137.058 60.9826 137.065 60.9153 137.068 60.8476C137.07 60.8278 137.07 60.8078 137.068 60.7881V60.7239C137.008 60.1834 136.967 59.6428 136.866 59.0885C136.472 56.8255 135.923 54.5923 135.222 52.4048C134.521 50.1876 133.738 47.9383 132.931 45.7943L136.619 44.2689Z" fill="#FFC3BD"/>
<path d="M134.901 39.8023C136.587 40.3154 138.612 46.1195 138.612 46.1195L132.065 50.7922C132.065 50.7922 129.679 45.95 130.389 43.7695C131.149 41.5019 132.982 39.2159 134.901 39.8023Z" fill="#7EDCE9"/>
<path opacity="0.4" d="M134.901 39.8023C136.587 40.3154 138.612 46.1195 138.612 46.1195L132.065 50.7922C132.065 50.7922 129.679 45.95 130.389 43.7695C131.149 41.5019 132.982 39.2159 134.901 39.8023Z" fill="black"/>
<path d="M153.752 143.292C153.667 143.29 153.584 143.269 153.509 143.23C153.433 143.191 153.368 143.136 153.317 143.068C153.275 143.025 153.246 142.972 153.231 142.914C153.217 142.856 153.218 142.795 153.234 142.738C153.39 142.234 154.829 141.822 154.994 141.776C155.012 141.77 155.031 141.769 155.049 141.775C155.068 141.781 155.083 141.792 155.094 141.808C155.105 141.824 155.11 141.842 155.11 141.861C155.11 141.88 155.105 141.898 155.094 141.914C154.838 142.404 154.329 143.228 153.807 143.288L153.752 143.292ZM154.815 142.033C154.247 142.216 153.505 142.532 153.441 142.798C153.434 142.823 153.434 142.849 153.441 142.874C153.449 142.9 153.463 142.922 153.482 142.94C153.518 142.992 153.568 143.034 153.626 143.061C153.684 143.089 153.748 143.101 153.812 143.095C154.077 143.063 154.448 142.669 154.815 142.033Z" fill="#7EDCE9"/>
<path d="M154.362 142.051C153.933 142.095 153.504 141.974 153.161 141.712C153.113 141.651 153.087 141.576 153.087 141.499C153.087 141.422 153.113 141.347 153.161 141.286C153.202 141.223 153.257 141.169 153.321 141.129C153.385 141.09 153.457 141.065 153.532 141.057C154.128 140.984 155.03 141.762 155.067 141.795C155.081 141.805 155.091 141.82 155.096 141.836C155.102 141.852 155.103 141.869 155.099 141.886C155.097 141.904 155.09 141.921 155.079 141.935C155.067 141.949 155.052 141.959 155.035 141.964C154.816 142.026 154.589 142.056 154.362 142.051ZM153.633 141.249H153.569C153.522 141.255 153.477 141.27 153.437 141.295C153.396 141.319 153.362 141.352 153.335 141.391C153.267 141.497 153.29 141.552 153.335 141.588C153.514 141.822 154.33 141.909 154.824 141.817C154.486 141.524 154.074 141.328 153.633 141.249Z" fill="#7EDCE9"/>
<path d="M116.513 158.419C116.159 158.451 115.805 158.361 115.51 158.163C115.447 158.105 115.398 158.034 115.367 157.954C115.336 157.875 115.324 157.789 115.331 157.704C115.335 157.65 115.353 157.598 115.382 157.552C115.412 157.506 115.453 157.469 115.501 157.443C116.009 157.164 117.658 158.007 117.846 158.108C117.864 158.117 117.878 158.132 117.887 158.15C117.896 158.168 117.899 158.188 117.897 158.208C117.894 158.229 117.885 158.247 117.871 158.262C117.857 158.277 117.839 158.287 117.819 158.291C117.388 158.373 116.951 158.416 116.513 158.419ZM115.776 157.562C115.712 157.558 115.649 157.571 115.592 157.599C115.573 157.609 115.556 157.624 115.545 157.642C115.534 157.661 115.528 157.683 115.528 157.704C115.521 157.762 115.527 157.82 115.547 157.874C115.567 157.929 115.6 157.977 115.643 158.016C115.895 158.245 116.559 158.282 117.475 158.13C116.945 157.846 116.37 157.653 115.776 157.562Z" fill="#7EDCE9"/>
<path d="M117.8 158.286H117.759C117.264 158.062 116.288 157.169 116.385 156.701C116.385 156.591 116.481 156.449 116.751 156.422C116.849 156.412 116.947 156.421 117.041 156.451C117.135 156.48 117.222 156.528 117.296 156.591C117.814 157.027 117.91 158.14 117.915 158.19C117.916 158.207 117.913 158.224 117.906 158.239C117.898 158.254 117.887 158.268 117.873 158.277C117.863 158.284 117.85 158.288 117.838 158.29C117.825 158.291 117.812 158.29 117.8 158.286ZM116.811 156.605H116.756C116.572 156.605 116.563 156.697 116.559 156.72C116.513 156.999 117.177 157.705 117.681 158.007C117.64 157.536 117.454 157.09 117.15 156.729C117.057 156.644 116.936 156.595 116.811 156.591V156.605Z" fill="#7EDCE9"/>
<path d="M132.171 63.9169L132.602 65.424C132.661 65.5385 132.524 65.6577 132.327 65.6577H115.015C114.864 65.6577 114.736 65.5844 114.726 65.4881L114.575 63.9856C114.575 63.8802 114.694 63.7932 114.864 63.7932H131.901C131.953 63.7888 132.005 63.7978 132.052 63.8195C132.099 63.8412 132.14 63.8747 132.171 63.9169Z" fill="#7EDCE9"/>
<path opacity="0.3" d="M132.171 63.9169L132.602 65.424C132.661 65.5385 132.524 65.6577 132.327 65.6577H115.015C114.864 65.6577 114.736 65.5844 114.726 65.4881L114.575 63.9856C114.575 63.8802 114.694 63.7932 114.864 63.7932H131.901C131.953 63.7888 132.005 63.7978 132.052 63.8195C132.099 63.8412 132.14 63.8747 132.171 63.9169Z" fill="white"/>
<path d="M129.885 65.841H130.343C130.43 65.841 130.499 65.7952 130.495 65.7356L130.279 63.7795C130.279 63.7246 130.197 63.6742 130.105 63.6742H129.647C129.555 63.6742 129.487 63.7246 129.496 63.7795L129.707 65.7356C129.716 65.7952 129.775 65.841 129.885 65.841Z" fill="#263238"/>
<path d="M116.298 65.841H116.756C116.848 65.841 116.916 65.7952 116.912 65.7356L116.696 63.7795C116.696 63.7246 116.609 63.6742 116.522 63.6742H116.064C115.973 63.6742 115.904 63.7246 115.908 63.7795L116.124 65.7356C116.128 65.7952 116.206 65.841 116.298 65.841Z" fill="#263238"/>
<path d="M123.091 65.841H123.549C123.641 65.841 123.71 65.7952 123.705 65.7356L123.49 63.7795C123.49 63.7246 123.407 63.6742 123.316 63.6742H122.858C122.766 63.6742 122.697 63.7246 122.706 63.7795L122.903 65.7494C122.903 65.7952 123 65.841 123.091 65.841Z" fill="#263238"/>
<path d="M121.034 25.6881L120.214 25.5323C120.214 25.5323 120.682 26.1187 121.034 25.6881Z" fill="#263238"/>
<path opacity="0.2" d="M105.871 84.023C98.1099 87.0382 89.6288 87.6842 81.5004 85.8795C73.3719 84.0747 65.9612 79.9002 60.2053 73.8837C54.4493 67.8672 50.6067 60.2791 49.1633 52.0788C47.7199 43.8785 48.7405 35.4343 52.0961 27.814C55.4517 20.1938 60.9916 13.7397 68.0152 9.26786C75.0389 4.79603 83.2308 2.50734 91.5551 2.69117C99.8795 2.87501 107.962 5.52312 114.782 10.3007C121.601 15.0782 126.851 21.7706 129.867 29.5316C131.87 34.685 132.838 40.1826 132.716 45.7104C132.595 51.2381 131.385 56.6877 129.157 61.748C126.929 66.8082 123.725 71.3798 119.73 75.2018C115.734 79.0238 111.025 82.0213 105.871 84.023Z" fill="#7EDCE9"/>
<path opacity="0.1" d="M98.2531 3.37846L65.233 78.37C64.7245 77.9852 64.2206 77.5866 63.7258 77.1835C60.5344 74.5434 57.7551 71.4414 55.48 67.9802L84.0015 3.20438C88.7268 2.44332 93.5478 2.5022 98.2531 3.37846Z" fill="white"/>
<path opacity="0.1" d="M121.726 16.3887L90.6805 86.8954C84.232 86.9023 77.8682 85.4258 72.0815 82.5801L105.981 5.58661C111.987 7.93534 117.373 11.6309 121.726 16.3887Z" fill="white"/>
<path d="M55.9654 16.4207C61.5752 9.56611 69.0916 4.52896 77.5641 1.9462C86.0366 -0.636565 95.0848 -0.648938 103.564 1.91065C112.044 4.47023 119.574 9.48681 125.203 16.326C130.831 23.1652 134.305 31.5199 135.185 40.3335C136.066 49.1471 134.313 58.0238 130.148 65.8411C125.983 73.6584 119.594 80.0652 111.788 84.2513C103.982 88.4374 95.1105 90.2148 86.2945 89.3587C77.4786 88.5027 69.1144 85.0516 62.2597 79.442C53.0689 71.9189 47.2426 61.0532 46.0622 49.2347C44.8818 37.4163 48.444 25.613 55.9654 16.4207ZM122.445 70.8251C127.595 64.5306 130.762 56.8506 131.547 48.7562C132.331 40.6618 130.698 32.5165 126.854 25.3502C123.009 18.1839 117.126 12.3185 109.948 8.49568C102.77 4.67286 94.6202 3.06428 86.5282 3.87336C78.4362 4.68243 70.7658 7.87282 64.4869 13.0411C58.208 18.2094 53.6027 25.1234 51.2532 32.909C48.9037 40.6946 48.9156 49.002 51.2873 56.7809C53.659 64.5597 58.2841 71.4606 64.5778 76.6109C68.7571 80.031 73.5693 82.5944 78.7394 84.1546C83.9095 85.7149 89.3364 86.2414 94.71 85.7041C100.084 85.1668 105.299 83.5763 110.058 81.0233C114.817 78.4703 119.026 75.005 122.445 70.8251Z" fill="#7EDCE9"/>
<path d="M126.399 70.6694C130.81 73.3035 135.007 76.1987 139.13 79.1855C143.252 82.1723 147.27 85.2829 151.223 88.4758C155.177 91.6688 159.057 94.9534 162.8 98.4029C164.675 100.125 166.507 101.894 168.297 103.708C170.093 105.54 171.856 107.373 173.519 109.361C173.904 109.821 174.115 110.401 174.118 111C174.121 111.6 173.915 112.182 173.536 112.646C173.156 113.11 172.627 113.428 172.039 113.544C171.45 113.66 170.84 113.567 170.313 113.282C168.022 112.045 165.878 110.68 163.739 109.283C161.599 107.886 159.511 106.429 157.449 104.931C153.326 101.944 149.336 98.7969 145.428 95.549C141.521 92.301 137.673 88.9798 133.93 85.5257C130.187 82.0716 126.518 78.535 123.064 74.7327C122.633 74.2625 122.385 73.6524 122.367 73.0146C122.349 72.3767 122.562 71.7538 122.966 71.26C123.37 70.7662 123.939 70.4346 124.568 70.3262C125.197 70.2177 125.843 70.3395 126.39 70.6694H126.399Z" fill="#7EDCE9"/>
<path d="M131.328 69.4141L126.903 70.0875L130.068 72.8636C130.068 72.8636 132.57 71.9474 132.817 70.2524L131.328 69.4141Z" fill="#FFC3BD"/>
<path d="M124.511 72.63L127.292 74.8105L130.686 72.5933L126.903 70.0966L124.511 72.63Z" fill="#FFC3BD"/>
<path d="M103.59 77.4538C103.994 76.3504 104.723 75.3953 105.68 74.7141C106.638 74.0329 107.779 73.6577 108.954 73.6378H145.625C146.259 73.6141 146.89 73.7298 147.474 73.9766C148.058 74.2235 148.581 74.5955 149.006 75.0664C149.431 75.5373 149.747 76.0957 149.932 76.7022C150.117 77.3086 150.167 77.9483 150.078 78.5762L140.605 158.062C140.404 159.415 139.728 160.652 138.698 161.553C137.668 162.453 136.352 162.958 134.984 162.977H18.6254C17.9939 163.001 17.3648 162.887 16.7823 162.641C16.1999 162.396 15.6783 162.026 15.2542 161.557C14.8302 161.089 14.514 160.533 14.3279 159.929C14.1419 159.325 14.0904 158.688 14.1772 158.062L22.1207 91.2794C22.3218 89.9262 22.9977 88.6887 24.0274 87.7882C25.0572 86.8876 26.3738 86.3828 27.7417 86.3639H91.0607C93.8045 86.3171 96.4698 85.4409 98.7062 83.8506C100.942 82.2602 102.645 80.0302 103.59 77.4538Z" fill="#7EDCE9"/>
<path d="M16.271 159.317H137.856L144.783 77.5087H23.2021L16.271 159.317Z" fill="#F0F0F0"/>
<path d="M16.271 159.317H137.856L142.868 77.5087H23.2021L16.271 159.317Z" fill="#E0E0E0"/>
<path d="M16.271 159.317H137.856L142.034 74.9113H20.4535L16.271 159.317Z" fill="#F0F0F0"/>
<path d="M16.271 159.317H137.856L139.51 74.9113H20.4535L16.271 159.317Z" fill="#E0E0E0"/>
<path d="M16.271 159.317H137.856L138.58 72.6207H16.9994L16.271 159.317Z" fill="#F0F0F0"/>
<path d="M16.2707 159.317H137.856L135.359 74.2607H14.562L16.2707 159.317Z" fill="#E0E0E0"/>
<path d="M16.2708 159.317H137.856L134.246 74.9113H12.6655L16.2708 159.317Z" fill="#F0F0F0"/>
<path d="M16.271 159.317H137.856L132.107 76.1847H10.5264L16.271 159.317Z" fill="#E0E0E0"/>
<path d="M16.2712 159.317H137.856L131.191 76.8948H9.61035L16.2712 159.317Z" fill="#F0F0F0"/>
<path d="M77.1575 82.6164C77.1643 82.0849 77.2779 81.5602 77.4917 81.0735C77.7055 80.5868 78.015 80.1481 78.4018 79.7835C78.7886 79.419 79.2449 79.1359 79.7433 78.9513C80.2418 78.7666 80.7723 78.6842 81.3033 78.7088H117.974C119.394 78.7633 120.756 79.2877 121.845 80.1998C122.935 81.1118 123.691 82.3599 123.994 83.7479L138.484 157.961C139.024 160.741 137.21 163 134.43 163H18.0713C15.286 163 12.574 160.741 12.0472 157.961L0.0952871 96.781C-0.445275 94.0003 1.36881 91.7418 4.1495 91.7418H67.4732C72.9704 91.7418 76.9696 87.9579 77.1575 82.6164Z" fill="#7EDCE9"/>
<path opacity="0.2" d="M77.1575 82.6164C77.1643 82.0849 77.2779 81.5602 77.4917 81.0735C77.7055 80.5868 78.015 80.1481 78.4018 79.7835C78.7886 79.419 79.2449 79.1359 79.7433 78.9513C80.2418 78.7666 80.7723 78.6842 81.3033 78.7088H117.974C119.394 78.7633 120.756 79.2877 121.845 80.1998C122.935 81.1118 123.691 82.3599 123.994 83.7479L138.484 157.961C139.024 160.741 137.21 163 134.43 163H18.0713C15.286 163 12.574 160.741 12.0472 157.961L0.0952871 96.781C-0.445275 94.0003 1.36881 91.7418 4.1495 91.7418H67.4732C72.9704 91.7418 76.9696 87.9579 77.1575 82.6164Z" fill="black"/>
</svg>
