<svg width="20" height="20" viewBox="0 0 20 20" fill="none" xmlns="http://www.w3.org/2000/svg">
<path d="M13.9968 11.8333C14.0702 11.2283 14.1252 10.6233 14.1252 10C14.1252 9.37666 14.0702 8.77166 13.9968 8.16666H17.0952C17.2418 8.75333 17.3335 9.3675 17.3335 10C17.3335 10.6325 17.2418 11.2467 17.0952 11.8333H13.9968ZM12.3743 16.93C12.9243 15.9125 13.346 14.8125 13.6393 13.6667H16.3435C15.4554 15.1959 14.0464 16.3543 12.3743 16.93ZM12.1452 11.8333H7.85516C7.7635 11.2283 7.7085 10.6233 7.7085 10C7.7085 9.37666 7.7635 8.7625 7.85516 8.16666H12.1452C12.2277 8.7625 12.2918 9.37666 12.2918 10C12.2918 10.6233 12.2277 11.2283 12.1452 11.8333ZM10.0002 17.2967C9.23933 16.1967 8.62516 14.9775 8.24933 13.6667H11.751C11.3752 14.9775 10.761 16.1967 10.0002 17.2967ZM6.3335 6.33333H3.65683C4.53578 4.79994 5.94373 3.63969 7.61683 3.06999C7.06683 4.0875 6.65433 5.1875 6.3335 6.33333ZM3.65683 13.6667H6.3335C6.65433 14.8125 7.06683 15.9125 7.61683 16.93C5.94723 16.354 4.54127 15.1954 3.65683 13.6667ZM2.90516 11.8333C2.7585 11.2467 2.66683 10.6325 2.66683 10C2.66683 9.3675 2.7585 8.75333 2.90516 8.16666H6.0035C5.93016 8.77166 5.87516 9.37666 5.87516 10C5.87516 10.6233 5.93016 11.2283 6.0035 11.8333H2.90516ZM10.0002 2.69416C10.761 3.79416 11.3752 5.0225 11.751 6.33333H8.24933C8.62516 5.0225 9.23933 3.79416 10.0002 2.69416ZM16.3435 6.33333H13.6393C13.3524 5.198 12.9276 4.10207 12.3743 3.06999C14.061 3.6475 15.4635 4.81166 16.3435 6.33333ZM10.0002 0.833328C4.931 0.833328 0.833496 4.95833 0.833496 10C0.833496 12.4311 1.79927 14.7627 3.51835 16.4818C4.36955 17.333 5.38008 18.0082 6.49223 18.4689C7.60438 18.9296 8.79638 19.1667 10.0002 19.1667C12.4313 19.1667 14.7629 18.2009 16.482 16.4818C18.2011 14.7627 19.1668 12.4311 19.1668 10C19.1668 8.79621 18.9297 7.60421 18.4691 6.49206C18.0084 5.37991 17.3332 4.36939 16.482 3.51818C15.6308 2.66698 14.6202 1.99177 13.5081 1.5311C12.3959 1.07043 11.2039 0.833328 10.0002 0.833328Z" fill="#3564E7"/>
</svg>
