<svg width="16" height="17" viewBox="0 0 16 17" fill="none" xmlns="http://www.w3.org/2000/svg">
<path d="M2.57143 3.71428H1.42857C0.642857 3.71428 0 4.35714 0 5.14286V14.8571C0 15.6429 0.642857 16.2857 1.42857 16.2857H2.57143C3.35714 16.2857 4 15.6429 4 14.8571V5.14286C4 4.35714 3.35714 3.71428 2.57143 3.71428ZM14.8571 5.16964V3.71428C14.8571 3.24107 14.5804 2.58036 14.25 2.25L12.8929 0.892857C12.5625 0.562499 11.9018 0.285713 11.4286 0.285713H5.42857C4.95536 0.285713 4.57143 0.669642 4.57143 1.14286V14.8571C4.57143 15.6429 5.21429 16.2857 6 16.2857H13.7143C14.9732 16.2857 16 15.2589 16 14V7.14286C16 6.30357 15.5357 5.5625 14.8571 5.16964ZM8.28572 14C8.28572 14.1607 8.16072 14.2857 8 14.2857H6.85714C6.69643 14.2857 6.57143 14.1607 6.57143 14V12.8571C6.57143 12.6964 6.69643 12.5714 6.85714 12.5714H8C8.16072 12.5714 8.28572 12.6964 8.28572 12.8571V14ZM8.28572 11.7143C8.28572 11.875 8.16072 12 8 12H6.85714C6.69643 12 6.57143 11.875 6.57143 11.7143V10.5714C6.57143 10.4107 6.69643 10.2857 6.85714 10.2857H8C8.16072 10.2857 8.28572 10.4107 8.28572 10.5714V11.7143ZM8.28572 9.42857C8.28572 9.58929 8.16072 9.71429 8 9.71429H6.85714C6.69643 9.71429 6.57143 9.58929 6.57143 9.42857V8.28571C6.57143 8.125 6.69643 8 6.85714 8H8C8.16072 8 8.28572 8.125 8.28572 8.28571V9.42857ZM10.5714 14C10.5714 14.1607 10.4464 14.2857 10.2857 14.2857H9.14286C8.98214 14.2857 8.85714 14.1607 8.85714 14V12.8571C8.85714 12.6964 8.98214 12.5714 9.14286 12.5714H10.2857C10.4464 12.5714 10.5714 12.6964 10.5714 12.8571V14ZM10.5714 11.7143C10.5714 11.875 10.4464 12 10.2857 12H9.14286C8.98214 12 8.85714 11.875 8.85714 11.7143V10.5714C8.85714 10.4107 8.98214 10.2857 9.14286 10.2857H10.2857C10.4464 10.2857 10.5714 10.4107 10.5714 10.5714V11.7143ZM10.5714 9.42857C10.5714 9.58929 10.4464 9.71429 10.2857 9.71429H9.14286C8.98214 9.71429 8.85714 9.58929 8.85714 9.42857V8.28571C8.85714 8.125 8.98214 8 9.14286 8H10.2857C10.4464 8 10.5714 8.125 10.5714 8.28571V9.42857ZM12.8571 14C12.8571 14.1607 12.7321 14.2857 12.5714 14.2857H11.4286C11.2679 14.2857 11.1429 14.1607 11.1429 14V12.8571C11.1429 12.6964 11.2679 12.5714 11.4286 12.5714H12.5714C12.7321 12.5714 12.8571 12.6964 12.8571 12.8571V14ZM12.8571 11.7143C12.8571 11.875 12.7321 12 12.5714 12H11.4286C11.2679 12 11.1429 11.875 11.1429 11.7143V10.5714C11.1429 10.4107 11.2679 10.2857 11.4286 10.2857H12.5714C12.7321 10.2857 12.8571 10.4107 12.8571 10.5714V11.7143ZM12.8571 9.42857C12.8571 9.58929 12.7321 9.71429 12.5714 9.71429H11.4286C11.2679 9.71429 11.1429 9.58929 11.1429 9.42857V8.28571C11.1429 8.125 11.2679 8 11.4286 8H12.5714C12.7321 8 12.8571 8.125 12.8571 8.28571V9.42857ZM13.7143 6H5.71429V1.42857H11.4286V2.85714C11.4286 3.33036 11.8125 3.71428 12.2857 3.71428H13.7143V6Z" fill="#3564E7"/>
</svg>
